{
.appVersion = "913";
classes = (
{
code = "a d j l q t w  y G W";
name = aalt1;
},
{
code = "a.alt d.alt j.alt l.alt q.alt t.alt w.alt y.alt G.alt W.alt";
name = aalt2;
},
{
code = "zero.lnum one.lnum two.lnum three.lnum four.lnum five.lnum six.lnum seven.lnum eight.lnum nine.lnum";
name = lnum1;
},
{
code = "zero one two three four five six seven eight nine";
name = onum1;
},
{
code = "a b c d e f g h i j k l m n o p q r s t u v w x y z";
name = smcp1;
},
{
code = "A.sc B.sc C.sc D.sc E.sc F.sc G.sc H.sc I.sc J.sc K.sc L.sc M.sc N.sc O.sc P.sc Q.sc R.sc S.sc T.sc U.sc V.sc W.sc X.sc Y.sc Z.sc";
name = smcp2;
},
{
automatic = 1;

glyphs = (
{
glyphname = A;
lastChange = "2016-08-18 22:35:31 +0000";
layers = (
{
anchors = (
{
name = bottom;
position = "{523, 7}";
},
{
name = top;
position = "{410, 707}";
}
);
layerId = "D0976A8A-D56C-4C8B-8CB2-75EC6352B123";
paths = (
{
closed = 1;
nodes = (
"-48 0 LINE",
"45 0 LINE",
"166 208 LINE",
"445 208 LINE",
"478 0 LINE",
"571 0 LINE",
"454 710 LINE",
"372 710 LINE"
);
},
{
closed = 1;
nodes = (
"196 272 LINE",
"390 604 LINE",
"441 272 LINE"
);
}
);
width = 643;
}
);
leftKerningGroup = A;
rightKerningGroup = A;
unicode = 0041;
},
{
glyphname = AE;
lastChange = "2016-08-18 22:35:31 +0000";
layers = (
{
anchors = (
{
name = top;
position = "{444, 707}";
}
);
layerId = "D0976A8A-D56C-4C8B-8CB2-75EC6352B123";
paths = (
{
closed = 1;
nodes = (
"-82 0 LINE",
"15 0 LINE",
"180 208 LINE",
"415 208 LINE",
"370 0 LINE",
"821 0 LINE",
"838 80 LINE",
"478 80 LINE",
"528 322 LINE",
"829 322 LINE",
"847 402 LINE",
"546 402 LINE",
"594 630 LINE",
"946 630 LINE",
"964 710 LINE",
"498 710 LINE"
);
},
{
closed = 1;
nodes = (
"237 288 LINE",
"493 605 LINE",
"426 288 LINE"
);
}
);
width = 927;
}
);
leftKerningGroup = AE;
rightKerningGroup = E;
unicode = 00C6;
},
{
glyphname = B;
lastChange = "2016-08-18 22:35:31 +0000";
layers = (
{
layerId = "D0976A8A-D56C-4C8B-8CB2-75EC6352B123";
paths = (
{
closed = 1;
nodes = (
"19 0 LINE",
"340 0 LINE SMOOTH",
"463 0 OFFCURVE",
"583 89 OFFCURVE",
"583 221 CURVE SMOOTH",
"583 289 OFFCURVE",
"549 344 OFFCURVE",
"491 364 CURVE",
"572 399 OFFCURVE",
"628 481 OFFCURVE",
"628 565 CURVE SMOOTH",
"628 639 OFFCURVE",
"587 710 OFFCURVE",
"508 710 CURVE SMOOTH",
"170 710 LINE"
);
},
{
closed = 1;
nodes = (
"125 78 LINE",
"177 322 LINE",
"414 322 LINE SMOOTH",
"463 322 OFFCURVE",
"493 277 OFFCURVE",
"493 224 CURVE SMOOTH",
"493 148 OFFCURVE",
"425 78 OFFCURVE",
"356 78 CURVE SMOOTH"
);
},
{
closed = 1;
nodes = (
"192 395 LINE",
"243 632 LINE",
"459 632 LINE SMOOTH",
"506 632 OFFCURVE",
"534 592 OFFCURVE",
"534 540 CURVE SMOOTH",
"534 461 OFFCURVE",
"469 395 OFFCURVE",
"403 395 CURVE SMOOTH"
);
}
);
width = 644;
}
);
leftKerningGroup = I;
unicode = 0042;
},
{
glyphname = C;
lastChange = "2016-08-18 22:39:56 +0000";
layers = (
{
layerId = "D0976A8A-D56C-4C8B-8CB2-75EC6352B123";
paths = (
{
closed = 1;
nodes = (
"293 -6 CURVE SMOOTH",
"398 -6 OFFCURVE",
"532 53 OFFCURVE",
"597 159 CURVE",
"531 200 LINE",
"474 112 OFFCURVE",
"384 75 OFFCURVE",
"314 75 CURVE SMOOTH",
"203 75 OFFCURVE",
"136 178 OFFCURVE",
"136 299 CURVE SMOOTH",
"136 450 OFFCURVE",
"257 633 OFFCURVE",
"430 633 CURVE SMOOTH",
"498 633 OFFCURVE",
"569 603 OFFCURVE",
"589 513 CURVE",
"670 559 LINE",
"647 650 OFFCURVE",
"571 714 OFFCURVE",
"451 714 CURVE SMOOTH",
"217 714 OFFCURVE",
"45 489 OFFCURVE",
"45 294 CURVE SMOOTH",
"45 141 OFFCURVE",
"135 -6 OFFCURVE"
);
}
);
width = 663;
}
);
leftKerningGroup = O;
rightKerningGroup = C;
unicode = 0043;
},
{
glyphname = D;
lastChange = "2016-08-18 22:35:31 +0000";
layers = (
{
anchors = (
{
name = top;
position = "{424, 707}";
}
);
layerId = "D0976A8A-D56C-4C8B-8CB2-75EC6352B123";
paths = (
{
closed = 1;
nodes = (
"19 0 LINE",
"254 0 LINE SMOOTH",
"491 0 OFFCURVE",
"666 186 OFFCURVE",
"666 437 CURVE SMOOTH",
"666 590 OFFCURVE",
"584 710 OFFCURVE",
"405 710 CURVE SMOOTH",
"170 710 LINE"
);
},
{
closed = 1;
nodes = (
"125 80 LINE",
"243 630 LINE",
"388 630 LINE SMOOTH",
"510 630 OFFCURVE",
"574 545 OFFCURVE",
"574 423 CURVE SMOOTH",
"574 242 OFFCURVE",
"457 80 OFFCURVE",
"270 80 CURVE SMOOTH"
);
}
);
width = 688;
}
);
leftKerningGroup = I;
rightKerningGroup = D;
unicode = 0044;
},
{
glyphname = Eth;
lastChange = "2016-08-18 22:35:31 +0000";
layers = (
{
layerId = "D0976A8A-D56C-4C8B-8CB2-75EC6352B123";
paths = (
{
closed = 1;
nodes = (
"39 323 LINE",
"334 323 LINE",
"348 391 LINE",
"53 391 LINE"
);
},
{
closed = 1;
nodes = (
"24 0 LINE",
"259 0 LINE SMOOTH",
"496 0 OFFCURVE",
"672 186 OFFCURVE",
"672 437 CURVE SMOOTH",
"672 590 OFFCURVE",
"589 710 OFFCURVE",
"410 710 CURVE SMOOTH",
"175 710 LINE"
);
},
{
closed = 1;
nodes = (
"131 80 LINE",
"248 630 LINE",
"393 630 LINE SMOOTH",
"516 630 OFFCURVE",
"579 545 OFFCURVE",
"579 423 CURVE SMOOTH",
"579 242 OFFCURVE",
"463 80 OFFCURVE",
"276 80 CURVE SMOOTH"
);
}
);
width = 693;
}
);
leftKerningGroup = I;
rightKerningGroup = D;
unicode = 00D0;
},
{
glyphname = Dcroat;
lastChange = "2016-08-18 22:35:31 +0000";
layers = (
{
layerId = "D0976A8A-D56C-4C8B-8CB2-75EC6352B123";
paths = (
{
closed = 1;
nodes = (
"39 323 LINE",
"334 323 LINE",
"348 391 LINE",
"53 391 LINE"
);
},
{
closed = 1;
nodes = (
"24 0 LINE",
"259 0 LINE SMOOTH",
"496 0 OFFCURVE",
"672 186 OFFCURVE",
"672 437 CURVE SMOOTH",
"672 590 OFFCURVE",
"589 710 OFFCURVE",
"410 710 CURVE SMOOTH",
"175 710 LINE"
);
},
{
closed = 1;
nodes = (
"131 80 LINE",
"248 630 LINE",
"393 630 LINE SMOOTH",
"516 630 OFFCURVE",
"579 545 OFFCURVE",
"579 423 CURVE SMOOTH",
"579 242 OFFCURVE",
"463 80 OFFCURVE",
"276 80 CURVE SMOOTH"
);
}
);
width = 693;
}
);
leftKerningGroup = I;
rightKerningGroup = D;
unicode = 0110;
},
{
glyphname = E;
lastChange = "2016-08-18 22:35:31 +0000";
layers = (
{
anchors = (
{
name = bottom;
position = "{246, 0}";
},
{
name = top;
position = "{394, 707}";
}
);
layerId = "D0976A8A-D56C-4C8B-8CB2-75EC6352B123";
paths = (
{
closed = 1;
nodes = (
"19 0 LINE",
"478 0 LINE",
"494 80 LINE",
"125 80 LINE",
"178 325 LINE",
"491 325 LINE",
"507 400 LINE",
"194 400 LINE",
"243 630 LINE",
"603 630 LINE",
"620 710 LINE",
"170 710 LINE"
);
}
);
width = 583;
}
);
leftKerningGroup = I;
rightKerningGroup = E;
unicode = 0045;
},
{
glyphname = F;
lastChange = "2016-08-18 22:35:31 +0000";
layers = (
{
layerId = "D0976A8A-D56C-4C8B-8CB2-75EC6352B123";
paths = (
{
closed = 1;
nodes = (
"19 0 LINE",
"109 0 LINE",
"176 318 LINE",
"476 318 LINE",
"492 393 LINE",
"193 393 LINE",
"243 630 LINE",
"599 630 LINE",
"616 710 LINE",
"170 710 LINE"
);
}
);
width = 571;
}
);
leftKerningGroup = I;
unicode = 0046;
},
{
glyphname = H;
lastChange = "2016-08-18 22:35:31 +0000";
layers = (
{
anchors = (
{
name = top;
position = "{442, 707}";
}
);
layerId = "D0976A8A-D56C-4C8B-8CB2-75EC6352B123";
paths = (
{
closed = 1;
nodes = (
"19 0 LINE",
"109 0 LINE",
"177 323 LINE",
"542 323 LINE",
"474 0 LINE",
"564 0 LINE",
"715 710 LINE",
"625 710 LINE",
"559 403 LINE",
"194 403 LINE",
"260 710 LINE",
"170 710 LINE"
);
}
);
width = 710;
}
);
leftKerningGroup = I;
rightKerningGroup = I;
unicode = 0048;
},
{
glyphname = Hbar;
lastChange = "2016-08-18 22:35:31 +0000";
layers = (
{
layerId = "D0976A8A-D56C-4C8B-8CB2-75EC6352B123";
paths = (
{
closed = 1;
nodes = (
"91 548 LINE",
"731 548 LINE",
"741 595 LINE",
"102 595 LINE"
);
},
{
closed = 1;
nodes = (
"22 0 LINE",
"112 0 LINE",
"181 323 LINE",
"546 323 LINE",
"477 0 LINE",
"567 0 LINE",
"718 710 LINE",
"628 710 LINE",
"563 403 LINE",
"198 403 LINE",
"263 710 LINE",
"173 710 LINE"
);
}
);
width = 717;
}
);
leftKerningGroup = I;
rightKerningGroup = I;
unicode = 0126;
},
{
glyphname = I;
lastChange = "2016-08-18 22:35:31 +0000";
layers = (
{
anchors = (
{
name = bottom;
position = "{65, 0}";
},
{
name = ogonek;
position = "{174, 10}";
},
{
name = top;
position = "{217, 707}";
},
{
name = topleft;
position = "{116, 710}";
}
);
layerId = "D0976A8A-D56C-4C8B-8CB2-75EC6352B123";
paths = (
{
closed = 1;
nodes = (
"109 0 LINE",
"260 709 LINE",
"170 709 LINE",
"19 0 LINE"
);
}
);
width = 255;
}
);
leftKerningGroup = I;
rightKerningGroup = I;
unicode = 0049;
},
{
glyphname = J;
lastChange = "2016-08-18 22:35:31 +0000";
layers = (
{
anchors = (
{
name = top;
position = "{438, 707}";
}
);
layerId = "D0976A8A-D56C-4C8B-8CB2-75EC6352B123";
paths = (
{
closed = 1;
nodes = (
"305 -11 OFFCURVE",
"361 133 OFFCURVE",
"407 349 CURVE SMOOTH",
"484 709 LINE",
"394 709 LINE",
"317 349 LINE SMOOTH",
"278 168 OFFCURVE",
"242 70 OFFCURVE",
"116 70 CURVE SMOOTH",
"62 70 OFFCURVE",
"20 88 OFFCURVE",
"0 106 CURVE",
"-38 33 LINE",
"-4 4 OFFCURVE",
"41 -11 OFFCURVE",
"99 -11 CURVE SMOOTH"
);
}
);
width = 470;
}
);
leftKerningGroup = J;
rightKerningGroup = J;
unicode = 004A;
},
{
glyphname = K;
lastChange = "2016-08-18 22:35:31 +0000";
layers = (
{
anchors = (
{
name = bottom;
position = "{263, 0}";
}
);
layerId = "D0976A8A-D56C-4C8B-8CB2-75EC6352B123";
paths = (
{
closed = 1;
nodes = (
"19 0 LINE",
"109 0 LINE",
"154 215 LINE",
"290 336 LINE",
"457 0 LINE",
"562 0 LINE",
"362 397 LINE",
"699 710 LINE",
"593 710 LINE",
"178 325 LINE",
"260 709 LINE",
"170 709 LINE"
);
}
);
width = 621;
}
);
leftKerningGroup = I;
rightKerningGroup = K;
unicode = 004B;
},
{
glyphname = L;
lastChange = "2016-08-18 22:35:31 +0000";
layers = (
{
anchors = (
{
name = bottom;
position = "{258, 0}";
},
{
name = top;
position = "{273, 707}";
}
);
layerId = "D0976A8A-D56C-4C8B-8CB2-75EC6352B123";
paths = (
{
closed = 1;
nodes = (
"19 0 LINE",
"482 0 LINE",
"499 80 LINE",
"125 80 LINE",
"260 710 LINE",
"170 710 LINE"
);
}
);
width = 557;
}
);
leftKerningGroup = I;
rightKerningGroup = L;
unicode = 004C;
},
{
glyphname = Lslash;
lastChange = "2016-08-18 22:35:31 +0000";
layers = (
{
layerId = "D0976A8A-D56C-4C8B-8CB2-75EC6352B123";
paths = (
{
closed = 1;
nodes = (
"24 233 LINE",
"374 474 LINE",
"360 523 LINE",
"9 283 LINE"
);
},
{
closed = 1;
nodes = (
"27 0 LINE",
"491 0 LINE",
"508 80 LINE",
"134 80 LINE",
"268 710 LINE",
"178 710 LINE"
);
}
);
width = 565;
}
);
leftKerningGroup = I;
rightKerningGroup = L;
unicode = 0141;
},
{
glyphname = M;
lastChange = "2016-08-18 22:35:31 +0000";
layers = (
{
layerId = "D0976A8A-D56C-4C8B-8CB2-75EC6352B123";
paths = (
{
closed = 1;
nodes = (
"19 0 LINE",
"109 0 LINE",
"226 549 LINE",
"356 128 LINE",
"407 128 LINE",
"715 549 LINE",
"599 0 LINE",
"689 0 LINE",
"840 710 LINE",
"746 710 LINE",
"407 249 LINE",
"264 710 LINE",
"170 710 LINE"
);
}
);
width = 836;
}
);
leftKerningGroup = I;
rightKerningGroup = I;
unicode = 004D;
},
{
glyphname = N;
lastChange = "2016-08-18 22:35:31 +0000";
layers = (
{
anchors = (
{
name = bottom;
position = "{310, 0}";
},
{
name = top;
position = "{457, 707}";
}
);
layerId = "D0976A8A-D56C-4C8B-8CB2-75EC6352B123";
paths = (
{
closed = 1;
nodes = (
"19 0 LINE",
"109 0 LINE",
"224 542 LINE",
"514 0 LINE",
"589 0 LINE",
"740 709 LINE",
"650 709 LINE",
"533 157 LINE",
"239 710 LINE",
"170 710 LINE"
);
}
);
width = 736;
}
);
leftKerningGroup = I;
rightKerningGroup = I;
unicode = 004E;
},
{
glyphname = P;
lastChange = "2016-08-18 22:35:31 +0000";
layers = (
{
layerId = "D0976A8A-D56C-4C8B-8CB2-75EC6352B123";
paths = (
{
closed = 1;
nodes = (
"19 0 LINE",
"109 0 LINE",
"162 255 LINE",
"360 255 LINE SMOOTH",
"498 255 OFFCURVE",
"614 392 OFFCURVE",
"614 522 CURVE SMOOTH",
"614 617 OFFCURVE",
"553 710 OFFCURVE",
"451 710 CURVE SMOOTH",
"170 710 LINE"
);
},
{
closed = 1;
nodes = (
"180 335 LINE",
"243 630 LINE",
"428 630 LINE SMOOTH",
"483 630 OFFCURVE",
"522 580 OFFCURVE",
"522 514 CURVE SMOOTH",
"522 422 OFFCURVE",
"452 335 OFFCURVE",
"372 335 CURVE SMOOTH"
);
}
);
width = 598;
}
);
leftKerningGroup = I;
unicode = 0050;
},
{
glyphname = Thorn;
lastChange = "2016-08-18 22:35:31 +0000";
layers = (
{
layerId = "D0976A8A-D56C-4C8B-8CB2-75EC6352B123";
paths = (
{
closed = 1;
nodes = (
"19 0 LINE",
"109 0 LINE",
"133 118 LINE",
"314 118 LINE SMOOTH",
"451 118 OFFCURVE",
"567 255 OFFCURVE",
"567 385 CURVE SMOOTH",
"567 481 OFFCURVE",
"507 573 OFFCURVE",
"405 573 CURVE",
"230 573 LINE",
"260 710 LINE",
"170 710 LINE"
);
},
{
closed = 1;
nodes = (
"151 198 LINE",
"214 493 LINE",
"383 493 LINE SMOOTH",
"438 493 OFFCURVE",
"477 440 OFFCURVE",
"477 375 CURVE SMOOTH",
"477 290 OFFCURVE",
"407 198 OFFCURVE",
"327 198 CURVE"
);
}
);
width = 578;
}
);
leftKerningGroup = I;
unicode = 00DE;
},
{
glyphname = Q;
lastChange = "2016-08-18 22:35:31 +0000";
layers = (
{
layerId = "D0976A8A-D56C-4C8B-8CB2-75EC6352B123";
paths = (
{
closed = 1;
nodes = (
"513 -5 OFFCURVE",
"711 204 OFFCURVE",
"711 419 CURVE SMOOTH",
"711 571 OFFCURVE",
"620 715 OFFCURVE",
"455 715 CURVE SMOOTH",
"241 715 OFFCURVE",
"42 506 OFFCURVE",
"42 289 CURVE SMOOTH",
"42 136 OFFCURVE",
"135 -5 OFFCURVE",
"300 -5 CURVE SMOOTH"
);
},
{
closed = 1;
nodes = (
"615 0 LINE",
"471 232 LINE",
"384 232 LINE",
"527 0 LINE"
);
},
{
closed = 1;
nodes = (
"199 76 OFFCURVE",
"134 179 OFFCURVE",
"134 297 CURVE SMOOTH",
"134 455 OFFCURVE",
"266 634 OFFCURVE",
"436 634 CURVE SMOOTH",
"553 634 OFFCURVE",
"619 530 OFFCURVE",
"619 413 CURVE SMOOTH",
"619 256 OFFCURVE",
"489 76 OFFCURVE",
"318 76 CURVE SMOOTH"
);
}
);
width = 730;
}
);
leftKerningGroup = O;
rightKerningGroup = O;
unicode = 0051;
},
{
glyphname = R;
lastChange = "2016-08-18 22:35:31 +0000";
layers = (
{
anchors = (
{
name = bottom;
position = "{255, 0}";
},
{
name = top;
position = "{406, 710}";
}
);
layerId = "D0976A8A-D56C-4C8B-8CB2-75EC6352B123";
paths = (
{
closed = 1;
nodes = (
"109 0 LINE",
"162 255 LINE",
"336 255 LINE",
"430 0 LINE",
"533 0 LINE",
"432 272 LINE",
"538 300 OFFCURVE",
"622 411 OFFCURVE",
"622 522 CURVE SMOOTH",
"622 617 OFFCURVE",
"562 710 OFFCURVE",
"459 710 CURVE SMOOTH",
"170 710 LINE",
"19 0 LINE"
);
},
{
closed = 1;
nodes = (
"180 335 LINE",
"243 630 LINE",
"436 630 LINE SMOOTH",
"491 630 OFFCURVE",
"529 577 OFFCURVE",
"529 512 CURVE SMOOTH",
"529 424 OFFCURVE",
"459 335 OFFCURVE",
"380 335 CURVE SMOOTH"
);
}
);
width = 631;
}
);
leftKerningGroup = I;
rightKerningGroup = R;
unicode = 0052;
},
{
glyphname = S;
lastChange = "2016-08-18 22:41:03 +0000";
layers = (
{
anchors = (
{
name = bottom;
position = "{239, 0}";
},
{
name = top;
position = "{393, 721}";
}
);
layerId = "D0976A8A-D56C-4C8B-8CB2-75EC6352B123";
paths = (
{
closed = 1;
nodes = (
"242 -7 CURVE SMOOTH",
"401 -7 OFFCURVE",
"535 69 OFFCURVE",
"535 229 CURVE SMOOTH",
"535 327 OFFCURVE",
"461 365 OFFCURVE",
"346 394 CURVE SMOOTH",
"246 419 OFFCURVE",
"195 439 OFFCURVE",
"195 498 CURVE SMOOTH",
"195 577 OFFCURVE",
"249 635 OFFCURVE",
"370 635 CURVE SMOOTH",
"450 635 OFFCURVE",
"515 598 OFFCURVE",
"537 561 CURVE",
"594 634 LINE",
"548 683 OFFCURVE",
"479 715 OFFCURVE",
"389 715 CURVE SMOOTH",
"228 715 OFFCURVE",
"96 623 OFFCURVE",
"96 469 CURVE SMOOTH",
"96 384 OFFCURVE",
"158 348 OFFCURVE",
"268 318 CURVE SMOOTH",
"372 290 OFFCURVE",
"435 266 OFFCURVE",
"435 201 CURVE SMOOTH",
"435 121 OFFCURVE",
"369 74 OFFCURVE",
"261 74 CURVE SMOOTH",
"158 74 OFFCURVE",
"76 124 OFFCURVE",
"47 169 CURVE",
"-12 93 LINE",
"50 28 OFFCURVE",
"139 -7 OFFCURVE"
);
}
);
width = 586;
}
);
leftKerningGroup = S;
rightKerningGroup = S;
unicode = 0053;
},
{
glyphname = Schwa;
lastChange = "2016-08-18 22:35:31 +0000";
layers = (
{
layerId = "D0976A8A-D56C-4C8B-8CB2-75EC6352B123";
paths = (
{
closed = 1;
nodes = (
"511 -8 OFFCURVE",
"697 207 OFFCURVE",
"697 421 CURVE SMOOTH",
"697 575 OFFCURVE",
"603 715 OFFCURVE",
"436 715 CURVE SMOOTH",
"307 715 OFFCURVE",
"181 641 OFFCURVE",
"117 537 CURVE",
"205 509 LINE",
"248 585 OFFCURVE",
"340 634 OFFCURVE",
"420 634 CURVE SMOOTH",
"525 634 OFFCURVE",
"599 554 OFFCURVE",
"599 431 CURVE SMOOTH",
"599 414 OFFCURVE",
"598 398 OFFCURVE",
"596 382 CURVE",
"44 382 LINE",
"34 349 OFFCURVE",
"25 312 OFFCURVE",
"25 271 CURVE SMOOTH",
"25 122 OFFCURVE",
"118 -8 OFFCURVE",
"287 -8 CURVE SMOOTH"
);
},
{
closed = 1;
nodes = (
"182 73 OFFCURVE",
"121 161 OFFCURVE",
"121 258 CURVE SMOOTH",
"121 276 OFFCURVE",
"123 294 OFFCURVE",
"127 311 CURVE",
"579 311 LINE",
"547 174 OFFCURVE",
"430 73 OFFCURVE",
"303 73 CURVE SMOOTH"
);
}
);
width = 717;
}
);
rightKerningGroup = O;
unicode = 018F;
},
{
glyphname = T;
lastChange = "2016-08-18 22:35:31 +0000";
layers = (
{
anchors = (
{
name = bottom;
position = "{225, 0}";
},
{
name = top;
position = "{375, 707}";
}
);
layerId = "D0976A8A-D56C-4C8B-8CB2-75EC6352B123";
paths = (
{
closed = 1;
nodes = (
"181 0 LINE",
"271 0 LINE",
"405 630 LINE",
"636 630 LINE",
"653 710 LINE",
"101 710 LINE",
"84 630 LINE",
"315 630 LINE"
);
}
);
width = 584;
}
);
leftKerningGroup = T;
rightKerningGroup = T;
unicode = 0054;
},
{
glyphname = Tbar;
lastChange = "2016-08-18 22:35:31 +0000";
layers = (
{
layerId = "D0976A8A-D56C-4C8B-8CB2-75EC6352B123";
paths = (
{
closed = 1;
nodes = (
"74 350 LINE",
"561 350 LINE",
"571 397 LINE",
"84 397 LINE"
);
},
{
closed = 1;
nodes = (
"199 0 LINE",
"289 0 LINE",
"422 630 LINE",
"653 630 LINE",
"670 710 LINE",
"118 710 LINE",
"101 630 LINE",
"332 630 LINE"
);
}
);
width = 618;
}
);
leftKerningGroup = T;
rightKerningGroup = T;
unicode = 0166;
},
{
glyphname = V;
lastChange = "2016-08-18 22:35:31 +0000";
layers = (
{
layerId = "D0976A8A-D56C-4C8B-8CB2-75EC6352B123";
paths = (
{
closed = 1;
nodes = (
"215 0 LINE",
"293 0 LINE",
"718 710 LINE",
"623 710 LINE",
"278 113 LINE",
"186 710 LINE",
"91 710 LINE"
);
}
);
width = 643;
}
);
unicode = 0056;
},
{
glyphname = W;
lastChange = "2016-08-18 22:35:31 +0000";
layers = (
{
anchors = (
{
name = top;
position = "{578, 707}";
}
);
layerId = "D0976A8A-D56C-4C8B-8CB2-75EC6352B123";
paths = (
{
closed = 1;
nodes = (
"296 0 LINE",
"500 335 LINE",
"561 0 LINE",
"639 0 LINE",
"1071 710 LINE",
"973 710 LINE",
"620 104 LINE",
"569 397 LINE",
"752 706 LINE",
"667 706 LINE",
"525 459 LINE",
"490 706 LINE",
"406 706 LINE",
"456 397 LINE",
"282 104 LINE",
"186 710 LINE",
"88 710 LINE",
"218 0 LINE"
);
}
);
width = 992;
}
);
leftKerningGroup = W;
rightKerningGroup = W;
unicode = 0057;
},
{
glyphname = X;
lastChange = "2016-08-18 22:35:31 +0000";
layers = (
{
layerId = "D0976A8A-D56C-4C8B-8CB2-75EC6352B123";
paths = (
{
closed = 1;
nodes = (
"-55 0 LINE",
"45 0 LINE",
"300 286 LINE",
"432 0 LINE",
"531 0 LINE",
"361 350 LINE",
"690 710 LINE",
"591 710 LINE",
"327 414 LINE",
"188 710 LINE",
"88 710 LINE",
"264 350 LINE"
);
}
);
width = 605;
}
);
unicode = 0058;
},
{
glyphname = Y;
lastChange = "2016-08-18 22:35:31 +0000";
layers = (
{
anchors = (
{
name = bottom;
position = "{248, 0}";
},
{
name = top;
position = "{385, 707}";
},
{
name = topleft;
position = "{116, 710}";
}
);
layerId = "D0976A8A-D56C-4C8B-8CB2-75EC6352B123";
paths = (
{
closed = 1;
nodes = (
"279 0 LINE",
"335 259 LINE",
"687 710 LINE",
"588 710 LINE",
"307 340 LINE",
"185 710 LINE",
"87 710 LINE",
"245 261 LINE",
"190 0 LINE"
);
}
);
width = 607;
}
);
leftKerningGroup = Y;
rightKerningGroup = Y;
unicode = 0059;
},
{
glyphname = Z;
lastChange = "2016-08-18 22:35:31 +0000";
layers = (
{
anchors = (
{
name = top;
position = "{379, 707}";
}
);
layerId = "D0976A8A-D56C-4C8B-8CB2-75EC6352B123";
paths = (
{
closed = 1;
nodes = (
"-39 0 LINE",
"496 0 LINE",
"513 80 LINE",
"91 80 LINE",
"632 640 LINE",
"647 710 LINE",
"121 710 LINE",
"104 630 LINE",
"524 630 LINE",
"-24 70 LINE"
);
}
);
width = 589;
}
);
leftKerningGroup = Z;
rightKerningGroup = Z;
unicode = 005A;
},
{
glyphname = W.alt;
lastChange = "2016-08-18 22:35:31 +0000";
layers = (
{
layerId = "D0976A8A-D56C-4C8B-8CB2-75EC6352B123";
paths = (
{
closed = 1;
nodes = (
"161 0 LINE",
"255 0 LINE",
"561 563 LINE",
"633 0 LINE",
"727 0 LINE",
"1092 710 LINE",
"990 710 LINE",
"700 133 LINE",
"641 710 LINE",
"543 710 LINE",
"244 133 LINE",
"199 710 LINE",
"98 710 LINE"
);
}
);
width = 1024;
}
);
},
{
glyphname = a;
lastChange = "2016-08-18 22:35:31 +0000";
layers = (
{
anchors = (
{
name = bottom;
position = "{450, 9}";
},
{
name = top;
position = "{321, 520}";
}
);
layerId = "D0976A8A-D56C-4C8B-8CB2-75EC6352B123";
paths = (
{
closed = 1;
nodes = (
"280 -10 OFFCURVE",
"357 31 OFFCURVE",
"410 98 CURVE",
"401 54 OFFCURVE",
"401 50 OFFCURVE",
"401 44 CURVE SMOOTH",
"401 12 OFFCURVE",
"420 -1 OFFCURVE",
"451 -3 CURVE SMOOTH",
"460 -4 OFFCURVE",
"473 -3 OFFCURVE",
"489 0 CURVE",
"505 76 LINE",
"492 76 OFFCURVE",
"487 82 OFFCURVE",
"487 94 CURVE SMOOTH",
"487 98 OFFCURVE",
"488 105 OFFCURVE",
"489 110 CURVE SMOOTH",
"577 520 LINE",
"488 520 LINE",
"466 418 LINE",
"445 481 OFFCURVE",
"390 531 OFFCURVE",
"309 531 CURVE SMOOTH",
"158 531 OFFCURVE",
"21 375 OFFCURVE",
"21 207 CURVE SMOOTH",
"21 89 OFFCURVE",
"91 -10 OFFCURVE",
"207 -10 CURVE SMOOTH"
);
},
{
closed = 1;
nodes = (
"166 66 OFFCURVE",
"113 136 OFFCURVE",
"113 219 CURVE SMOOTH",
"113 333 OFFCURVE",
"210 455 OFFCURVE",
"315 455 CURVE SMOOTH",
"386 455 OFFCURVE",
"439 399 OFFCURVE",
"449 333 CURVE",
"417 183 LINE",
"390 118 OFFCURVE",
"306 66 OFFCURVE",
"242 66 CURVE SMOOTH"
);
}
);
width = 606;
}
);
leftKerningGroup = a;
rightKerningGroup = a;
unicode = 0061;
},
{
glyphname = ae;
lastChange = "2016-08-18 22:39:37 +0000";
layers = (
{
layerId = "D0976A8A-D56C-4C8B-8CB2-75EC6352B123";
paths = (
{
closed = 1;
nodes = (
"133 -10 CURVE SMOOTH",
"197 -10 OFFCURVE",
"302 21 OFFCURVE",
"363 103 CURVE",
"392 35 OFFCURVE",
"457 -10 OFFCURVE",
"547 -10 CURVE SMOOTH",
"648 -10 OFFCURVE",
"744 45 OFFCURVE",
"793 122 CURVE",
"721 143 LINE",
"690 91 OFFCURVE",
"624 56 OFFCURVE",
"563 56 CURVE SMOOTH",
"483 56 OFFCURVE",
"426 115 OFFCURVE",
"426 201 CURVE SMOOTH",
"426 212 OFFCURVE",
"427 221 OFFCURVE",
"428 231 CURVE",
"846 231 LINE",
"849 239 OFFCURVE",
"861 261 OFFCURVE",
"861 311 CURVE SMOOTH",
"861 434 OFFCURVE",
"788 531 OFFCURVE",
"661 531 CURVE SMOOTH",
"581 531 OFFCURVE",
"508 493 OFFCURVE",
"454 436 CURVE",
"435 496 OFFCURVE",
"383 531 OFFCURVE",
"303 531 CURVE SMOOTH",
"237 531 OFFCURVE",
"168 508 OFFCURVE",
"94 463 CURVE",
"110 406 LINE",
"174 446 OFFCURVE",
"230 467 OFFCURVE",
"280 467 CURVE SMOOTH",
"348 467 OFFCURVE",
"385 429 OFFCURVE",
"385 381 CURVE SMOOTH",
"385 349 OFFCURVE",
"368 328 OFFCURVE",
"358 294 CURVE",
"326 306 OFFCURVE",
"283 314 OFFCURVE",
"240 314 CURVE SMOOTH",
"103 314 OFFCURVE",
"-6 235 OFFCURVE",
"-6 124 CURVE SMOOTH",
"-6 48 OFFCURVE",
"46 -10 OFFCURVE"
);
},
{
closed = 1;
nodes = (
"169 56 CURVE SMOOTH",
"111 56 OFFCURVE",
"80 94 OFFCURVE",
"80 141 CURVE SMOOTH",
"80 212 OFFCURVE",
"150 261 OFFCURVE",
"243 261 CURVE SMOOTH",
"278 261 OFFCURVE",
"316 254 OFFCURVE",
"347 242 CURVE",
"344 227 OFFCURVE",
"342 206 OFFCURVE",
"342 188 CURVE SMOOTH",
"342 175 OFFCURVE",
"343 164 OFFCURVE",
"345 155 CURVE",
"326 103 OFFCURVE",
"234 56 OFFCURVE"
);
},
{
closed = 1;
nodes = (
"439 288 LINE",
"467 391 OFFCURVE",
"552 465 OFFCURVE",
"644 465 CURVE SMOOTH",
"726 465 OFFCURVE",
"777 407 OFFCURVE",
"777 321 CURVE SMOOTH",
"777 311 OFFCURVE",
"777 299 OFFCURVE",
"775 288 CURVE"
);
}
);
width = 891;
}
);
leftKerningGroup = a.alt2;
rightKerningGroup = e;
unicode = 00E6;
},
{
glyphname = c;
lastChange = "2016-08-18 22:39:13 +0000";
layers = (
{
layerId = "D0976A8A-D56C-4C8B-8CB2-75EC6352B123";
paths = (
{
closed = 1;
nodes = (
"225 -10 CURVE SMOOTH",
"326 -10 OFFCURVE",
"420 45 OFFCURVE",
"466 121 CURVE",
"385 147 LINE",
"361 103 OFFCURVE",
"296 66 OFFCURVE",
"239 66 CURVE SMOOTH",
"164 66 OFFCURVE",
"113 133 OFFCURVE",
"113 221 CURVE SMOOTH",
"113 350 OFFCURVE",
"215 455 OFFCURVE",
"321 455 CURVE SMOOTH",
"375 455 OFFCURVE",
"416 426 OFFCURVE",
"431 377 CURVE",
"522 404 LINE",
"502 481 OFFCURVE",
"438 531 OFFCURVE",
"339 531 CURVE SMOOTH",
"163 531 OFFCURVE",
"22 378 OFFCURVE",
"22 210 CURVE SMOOTH",
"22 89 OFFCURVE",
"97 -10 OFFCURVE"
);
}
);
width = 530;
}
);
leftKerningGroup = o;
rightKerningGroup = c;
unicode = 0063;
},
{
glyphname = f;
lastChange = "2016-08-18 22:35:31 +0000";
layers = (
{
layerId = "D0976A8A-D56C-4C8B-8CB2-75EC6352B123";
paths = (
{
closed = 1;
nodes = (
"-18 -213 LINE",
"70 -213 LINE",
"206 428 LINE",
"337 428 LINE",
"352 497 LINE",
"221 497 LINE",
"229 536 LINE SMOOTH",
"245 619 OFFCURVE",
"285 665 OFFCURVE",
"339 665 CURVE SMOOTH",
"364 665 OFFCURVE",
"391 656 OFFCURVE",
"406 643 CURVE",
"441 708 LINE",
"414 728 OFFCURVE",
"376 740 OFFCURVE",
"337 740 CURVE SMOOTH",
"243 740 OFFCURVE",
"167 661 OFFCURVE",
"140 533 CURVE SMOOTH",
"133 497 LINE",
"66 497 LINE",
"51 428 LINE",
"118 428 LINE"
);
}
);
width = 333;
}
);
leftKerningGroup = f;
rightKerningGroup = f;
unicode = 0066;
},
{
glyphname = g;
lastChange = "2016-08-18 22:38:48 +0000";
layers = (
{
anchors = (
{
name = bottom;
position = "{243, 0}";
},
{
name = top;
position = "{353, 522}";
}
);
layerId = "D0976A8A-D56C-4C8B-8CB2-75EC6352B123";
paths = (
{
closed = 1;
nodes = (
"208 -10 CURVE SMOOTH",
"279 -10 OFFCURVE",
"359 31 OFFCURVE",
"411 98 CURVE",
"404 69 OFFCURVE",
"402 53 OFFCURVE",
"402 41 CURVE SMOOTH",
"402 15 OFFCURVE",
"422 -4 OFFCURVE",
"459 -4 CURVE SMOOTH",
"468 -4 OFFCURVE",
"479 -2 OFFCURVE",
"494 0 CURVE",
"510 76 LINE",
"495 77 OFFCURVE",
"488 82 OFFCURVE",
"488 95 CURVE SMOOTH",
"488 99 OFFCURVE",
"489 103 OFFCURVE",
"490 108 CURVE SMOOTH",
"622 730 LINE",
"534 730 LINE",
"467 418 LINE",
"445 481 OFFCURVE",
"391 531 OFFCURVE",
"311 531 CURVE SMOOTH",
"159 531 OFFCURVE",
"22 374 OFFCURVE",
"22 207 CURVE SMOOTH",
"22 89 OFFCURVE",
"91 -10 OFFCURVE"
);
},
{
closed = 1;
nodes = (
"246 66 CURVE SMOOTH",
"166 66 OFFCURVE",
"115 135 OFFCURVE",
"115 221 CURVE SMOOTH",
"115 334 OFFCURVE",
"210 455 OFFCURVE",
"321 455 CURVE SMOOTH",
"382 455 OFFCURVE",
"440 401 OFFCURVE",
"449 333 CURVE",
"418 183 LINE",
"391 118 OFFCURVE",
"304 66 OFFCURVE"
);
}
);
width = 596;
}
);
leftKerningGroup = a;
rightKerningGroup = a.alt;
unicode = 0067;
},
{
glyphname = h;
lastChange = "2016-08-18 22:35:31 +0000";
layers = (
{
anchors = (
{
name = top;
position = "{391, 519}";
}
);
layerId = "D0976A8A-D56C-4C8B-8CB2-75EC6352B123";
paths = (
{
closed = 1;
nodes = (
"4 0 LINE",
"92 0 LINE",
"159 315 LINE",
"198 394 OFFCURVE",
"280 452 OFFCURVE",
"343 452 CURVE SMOOTH",
"393 452 OFFCURVE",
"420 421 OFFCURVE",
"420 360 CURVE SMOOTH",
"420 340 OFFCURVE",
"417 317 OFFCURVE",
"412 292 CURVE SMOOTH",
"350 0 LINE",
"438 0 LINE",
"504 312 LINE SMOOTH",
"511 343 OFFCURVE",
"515 374 OFFCURVE",
"515 401 CURVE SMOOTH",
"515 480 OFFCURVE",
"481 531 OFFCURVE",
"394 531 CURVE SMOOTH",
"315 531 OFFCURVE",
"233 485 OFFCURVE",
"179 410 CURVE",
"247 730 LINE",
"159 730 LINE"
);
}
);
width = 564;
}
);
leftKerningGroup = h;
rightKerningGroup = h;
unicode = 0068;
},
{
glyphname = hbar;
lastChange = "2016-08-18 22:35:31 +0000";
layers = (
{
layerId = "D0976A8A-D56C-4C8B-8CB2-75EC6352B123";
paths = (
{
closed = 1;
nodes = (
"74 611 LINE",
"329 611 LINE",
"341 667 LINE",
"85 667 LINE"
);
},
{
closed = 1;
nodes = (
"4 0 LINE",
"92 0 LINE",
"159 315 LINE",
"198 394 OFFCURVE",
"280 452 OFFCURVE",
"343 452 CURVE SMOOTH",
"393 452 OFFCURVE",
"420 421 OFFCURVE",
"420 360 CURVE SMOOTH",
"420 340 OFFCURVE",
"418 317 OFFCURVE",
"412 292 CURVE SMOOTH",
"350 0 LINE",
"438 0 LINE",
"504 312 LINE SMOOTH",
"511 343 OFFCURVE",
"515 374 OFFCURVE",
"515 401 CURVE SMOOTH",
"515 480 OFFCURVE",
"481 531 OFFCURVE",
"394 531 CURVE SMOOTH",
"315 531 OFFCURVE",
"233 485 OFFCURVE",
"179 410 CURVE",
"247 730 LINE",
"159 730 LINE"
);
}
);
width = 564;
}
);
leftKerningGroup = h;
rightKerningGroup = h;
unicode = 0127;
},
{
glyphname = i;
lastChange = "2016-08-18 22:37:12 +0000";
layers = (
{
layerId = "D0976A8A-D56C-4C8B-8CB2-75EC6352B123";
paths = (
{
closed = 1;
nodes = (
"5 0 LINE",
"93 0 LINE",
"204 522 LINE",
"116 522 LINE"
);
},
{
closed = 1;
nodes = (
"137 620 LINE",
"225 620 LINE",
"248 730 LINE",
"160 730 LINE"
);
}
);
width = 224;
}
);
leftKerningGroup = i;
rightKerningGroup = i;
unicode = 0069;
},
{
glyphname = idotless;
lastChange = "2016-08-18 22:35:31 +0000";
layers = (
{
anchors = (
{
name = bottom;
position = "{56, 0}";
},
{
name = ogonek;
position = "{138, 10}";
},
{
name = top;
position = "{163, 520}";
}
);
layerId = "D0976A8A-D56C-4C8B-8CB2-75EC6352B123";
paths = (
{
closed = 1;
nodes = (
"92 0 LINE",
"203 522 LINE",
"115 522 LINE",
"4 0 LINE"
);
}
);
width = 224;
}
);
leftKerningGroup = i;
rightKerningGroup = i;
unicode = 0131;
},
{
glyphname = j;
lastChange = "2016-08-18 22:36:59 +0000";
layers = (
{
layerId = "D0976A8A-D56C-4C8B-8CB2-75EC6352B123";
paths = (
{
closed = 1;
nodes = (
"-97 -186 CURVE SMOOTH",
"-14 -186 OFFCURVE",
"74 -116 OFFCURVE",
"95 -17 CURVE SMOOTH",
"210 522 LINE",
"122 522 LINE",
"6 -23 LINE SMOOTH",
"-4 -72 OFFCURVE",
"-50 -108 OFFCURVE",
"-90 -108 CURVE SMOOTH",
"-113 -108 OFFCURVE",
"-136 -102 OFFCURVE",
"-150 -85 CURVE",
"-203 -144 LINE",
"-178 -173 OFFCURVE",
"-141 -186 OFFCURVE"
);
},
{
closed = 1;
nodes = (
"142 620 LINE",
"230 620 LINE",
"254 730 LINE",
"166 730 LINE"
);
}
);
width = 230;
}
);
leftKerningGroup = i;
rightKerningGroup = i;
unicode = 006A;
},
{
glyphname = k;
lastChange = "2016-08-18 22:35:31 +0000";
layers = (
{
anchors = (
{
name = bottom;
position = "{216, 0}";
}
);
layerId = "D0976A8A-D56C-4C8B-8CB2-75EC6352B123";
paths = (
{
closed = 1;
nodes = (
"352 0 LINE",
"447 0 LINE",
"344 221 LINE",
"460 256 OFFCURVE",
"531 330 OFFCURVE",
"531 418 CURVE SMOOTH",
"531 490 OFFCURVE",
"486 531 OFFCURVE",
"410 531 CURVE SMOOTH",
"319 531 OFFCURVE",
"229 466 OFFCURVE",
"155 341 CURVE",
"132 247 LINE",
"208 379 OFFCURVE",
"292 455 OFFCURVE",
"369 455 CURVE SMOOTH",
"419 455 OFFCURVE",
"450 427 OFFCURVE",
"450 383 CURVE SMOOTH",
"450 316 OFFCURVE",
"377 263 OFFCURVE",
"248 239 CURVE"
);
},
{
closed = 1;
nodes = (
"4 0 LINE",
"91 0 LINE",
"246 730 LINE",
"159 730 LINE"
);
}
);
width = 545;
}
);
leftKerningGroup = h;
rightKerningGroup = k;
unicode = 006B;
},
{
glyphname = kgreenlandic;
lastChange = "2016-08-18 22:35:31 +0000";
layers = (
{
layerId = "D0976A8A-D56C-4C8B-8CB2-75EC6352B123";
paths = (
{
closed = 1;
nodes = (
"4 0 LINE",
"92 0 LINE",
"126 161 LINE",
"238 255 LINE",
"353 0 LINE",
"448 0 LINE",
"306 305 LINE",
"548 521 LINE",
"452 521 LINE",
"145 250 LINE",
"203 522 LINE",
"115 522 LINE"
);
}
);
width = 516;
}
);
unicode = 0138;
},
{
glyphname = m;
lastChange = "2016-08-18 22:37:37 +0000";
layers = (
{
layerId = "D0976A8A-D56C-4C8B-8CB2-75EC6352B123";
paths = (
{
closed = 1;
nodes = (
"5 0 LINE",
"93 0 LINE",
"160 315 LINE",
"200 397 OFFCURVE",
"270 452 OFFCURVE",
"336 452 CURVE SMOOTH",
"382 452 OFFCURVE",
"407 425 OFFCURVE",
"407 366 CURVE SMOOTH",
"407 345 OFFCURVE",
"404 321 OFFCURVE",
"398 292 CURVE SMOOTH",
"336 0 LINE",
"424 0 LINE",
"490 314 LINE",
"530 395 OFFCURVE",
"600 452 OFFCURVE",
"666 452 CURVE SMOOTH",
"713 452 OFFCURVE",
"738 424 OFFCURVE",
"738 365 CURVE SMOOTH",
"738 344 OFFCURVE",
"735 320 OFFCURVE",
"729 292 CURVE SMOOTH",
"667 0 LINE",
"755 0 LINE",
"822 312 LINE SMOOTH",
"829 345 OFFCURVE",
"833 376 OFFCURVE",
"833 404 CURVE SMOOTH",
"833 480 OFFCURVE",
"802 531 OFFCURVE",
"717 531 CURVE SMOOTH",
"638 531 OFFCURVE",
"564 487 OFFCURVE",
"503 404 CURVE",
"501 485 OFFCURVE",
"459 531 OFFCURVE",
"382 531 CURVE SMOOTH",
"305 531 OFFCURVE",
"225 484 OFFCURVE",
"172 410 CURVE",
"196 522 LINE",
"116 522 LINE"
);
}
);
width = 881;
}
);
leftKerningGroup = n;
rightKerningGroup = n;
unicode = 006D;
},
{
glyphname = n;
lastChange = "2016-08-18 22:35:31 +0000";
layers = (
{
anchors = (
{
name = bottom;
position = "{226, 0}";
},
{
name = top;
position = "{338, 520}";
}
);
layerId = "D0976A8A-D56C-4C8B-8CB2-75EC6352B123";
paths = (
{
closed = 1;
nodes = (
"4 0 LINE",
"92 0 LINE",
"159 315 LINE",
"198 394 OFFCURVE",
"283 452 OFFCURVE",
"350 452 CURVE SMOOTH",
"396 452 OFFCURVE",
"421 425 OFFCURVE",
"421 366 CURVE SMOOTH",
"421 346 OFFCURVE",
"418 321 OFFCURVE",
"412 292 CURVE SMOOTH",
"350 0 LINE",
"438 0 LINE",
"504 312 LINE SMOOTH",
"511 346 OFFCURVE",
"516 378 OFFCURVE",
"516 407 CURVE SMOOTH",
"516 483 OFFCURVE",
"485 531 OFFCURVE",
"402 531 CURVE SMOOTH",
"314 531 OFFCURVE",
"225 483 OFFCURVE",
"171 410 CURVE",
"195 522 LINE",
"115 522 LINE"
);
}
);
width = 564;
}
);
leftKerningGroup = n;
rightKerningGroup = n;
unicode = 006E;
},
{
color = 7;
glyphname = o;
lastChange = "2016-08-18 22:35:31 +0000";
layers = (
{
anchors = (
{
name = bottom;
position = "{224, 0}";
},
{
name = top;
position = "{334, 520}";
}
);
layerId = "D0976A8A-D56C-4C8B-8CB2-75EC6352B123";
paths = (
{
closed = 1;
nodes = (
"407 -10 OFFCURVE",
"537 147 OFFCURVE",
"537 312 CURVE SMOOTH",
"537 432 OFFCURVE",
"475 531 OFFCURVE",
"337 531 CURVE SMOOTH",
"152 531 OFFCURVE",
"21 375 OFFCURVE",
"21 208 CURVE SMOOTH",
"21 89 OFFCURVE",
"83 -10 OFFCURVE",
"222 -10 CURVE SMOOTH"
);
},
{
closed = 1;
nodes = (
"152 66 OFFCURVE",
"112 132 OFFCURVE",
"112 218 CURVE SMOOTH",
"112 345 OFFCURVE",
"205 455 OFFCURVE",
"321 455 CURVE SMOOTH",
"407 455 OFFCURVE",
"446 388 OFFCURVE",
"446 301 CURVE SMOOTH",
"446 174 OFFCURVE",
"347 66 OFFCURVE",
"237 66 CURVE SMOOTH"
);
}
);
width = 575;
}
);
leftKerningGroup = o;
rightKerningGroup = o;
unicode = 006F;
},
{
glyphname = p;
lastChange = "2016-08-18 22:36:09 +0000";
layers = (
{
layerId = "D0976A8A-D56C-4C8B-8CB2-75EC6352B123";
paths = (
{
closed = 1;
nodes = (
"-40 -213 LINE",
"48 -213 LINE",
"115 103 LINE",
"138 38 OFFCURVE",
"192 -10 OFFCURVE",
"273 -10 CURVE SMOOTH",
"427 -10 OFFCURVE",
"560 147 OFFCURVE",
"560 313 CURVE SMOOTH",
"560 430 OFFCURVE",
"491 531 OFFCURVE",
"376 531 CURVE SMOOTH",
"301 531 OFFCURVE",
"226 488 OFFCURVE",
"173 424 CURVE",
"194 522 LINE",
"116 522 LINE"
);
},
{
closed = 1;
nodes = (
"262 66 CURVE SMOOTH",
"196 66 OFFCURVE",
"146 120 OFFCURVE",
"133 189 CURVE",
"165 338 LINE",
"192 402 OFFCURVE",
"278 455 OFFCURVE",
"337 455 CURVE SMOOTH",
"417 455 OFFCURVE",
"468 385 OFFCURVE",
"468 299 CURVE SMOOTH",
"468 187 OFFCURVE",
"373 66 OFFCURVE"
);
}
);
width = 597;
}
);
leftKerningGroup = n;
rightKerningGroup = b;
unicode = 0070;
},
{
glyphname = r;
lastChange = "2016-08-18 22:35:31 +0000";
layers = (
{
anchors = (
{
name = bottom;
position = "{51, 0}";
},
{
name = top;
position = "{206, 520}";
}
);
layerId = "D0976A8A-D56C-4C8B-8CB2-75EC6352B123";
paths = (
{
closed = 1;
nodes = (
"4 0 LINE",
"92 0 LINE",
"160 322 LINE",
"203 398 OFFCURVE",
"281 443 OFFCURVE",
"364 445 CURVE",
"381 525 LINE",
"376 526 OFFCURVE",
"370 526 OFFCURVE",
"361 525 CURVE SMOOTH",
"294 521 OFFCURVE",
"223 478 OFFCURVE",
"171 401 CURVE",
"196 522 LINE",
"115 522 LINE"
);
}
);
width = 353;
}
);
leftKerningGroup = n;
rightKerningGroup = r;
unicode = 0072;
},
{
glyphname = s;
lastChange = "2016-08-18 22:41:32 +0000";
layers = (
{
anchors = (
{
name = bottom;
position = "{192, 0}";
},
{
name = top;
position = "{289, 522}";
}
);
layerId = "D0976A8A-D56C-4C8B-8CB2-75EC6352B123";
paths = (
{
closed = 1;
nodes = (
"178 -10 CURVE SMOOTH",
"315 -10 OFFCURVE",
"413 66 OFFCURVE",
"413 174 CURVE SMOOTH",
"413 243 OFFCURVE",
"356 270 OFFCURVE",
"246 299 CURVE SMOOTH",
"177 317 OFFCURVE",
"147 330 OFFCURVE",
"147 367 CURVE SMOOTH",
"147 435 OFFCURVE",
"205 467 OFFCURVE",
"273 467 CURVE SMOOTH",
"326 467 OFFCURVE",
"376 448 OFFCURVE",
"410 409 CURVE",
"461 462 LINE",
"424 503 OFFCURVE",
"363 531 OFFCURVE",
"289 531 CURVE SMOOTH",
"168 531 OFFCURVE",
"60 461 OFFCURVE",
"60 344 CURVE SMOOTH",
"60 282 OFFCURVE",
"107 259 OFFCURVE",
"205 232 CURVE SMOOTH",
"284 211 OFFCURVE",
"324 196 OFFCURVE",
"324 154 CURVE SMOOTH",
"324 94 OFFCURVE",
"269 55 OFFCURVE",
"190 55 CURVE SMOOTH",
"127 55 OFFCURVE",
"74 79 OFFCURVE",
"26 125 CURVE",
"-24 66 LINE",
"21 17 OFFCURVE",
"99 -10 OFFCURVE"
);
}
);
width = 464;
}
);
leftKerningGroup = s;
rightKerningGroup = s;
unicode = 0073;
},
{
glyphname = germandbls;
lastChange = "2016-08-18 22:35:31 +0000";
layers = (
{
layerId = "D0976A8A-D56C-4C8B-8CB2-75EC6352B123";
paths = (
{
closed = 1;
nodes = (
"166 -6 LINE",
"341 -2 OFFCURVE",
"482 77 OFFCURVE",
"482 250 CURVE SMOOTH",
"482 327 OFFCURVE",
"443 383 OFFCURVE",
"373 404 CURVE",
"437 422 OFFCURVE",
"503 500 OFFCURVE",
"503 581 CURVE SMOOTH",
"503 660 OFFCURVE",
"443 714 OFFCURVE",
"353 714 CURVE SMOOTH",
"239 714 OFFCURVE",
"138 633 OFFCURVE",
"113 517 CURVE SMOOTH",
"4 0 LINE",
"88 0 LINE",
"195 503 LINE SMOOTH",
"212 586 OFFCURVE",
"263 638 OFFCURVE",
"329 638 CURVE SMOOTH",
"380 638 OFFCURVE",
"415 603 OFFCURVE",
"415 554 CURVE SMOOTH",
"415 494 OFFCURVE",
"362 437 OFFCURVE",
"291 437 CURVE SMOOTH",
"274 437 LINE",
"257 357 LINE",
"276 357 LINE SMOOTH",
"341 357 OFFCURVE",
"389 314 OFFCURVE",
"389 244 CURVE SMOOTH",
"389 140 OFFCURVE",
"308 77 OFFCURVE",
"183 75 CURVE"
);
}
);
width = 532;
}
);
leftKerningGroup = h;
unicode = 00DF;
},
{
glyphname = schwa;
lastChange = "2016-08-18 22:37:55 +0000";
layers = (
{
layerId = "D0976A8A-D56C-4C8B-8CB2-75EC6352B123";
paths = (
{
closed = 1;
nodes = (
"213 -10 CURVE SMOOTH",
"386 -10 OFFCURVE",
"528 143 OFFCURVE",
"528 311 CURVE SMOOTH",
"528 433 OFFCURVE",
"453 531 OFFCURVE",
"326 531 CURVE SMOOTH",
"224 531 OFFCURVE",
"128 475 OFFCURVE",
"79 399 CURVE",
"150 378 LINE",
"182 429 OFFCURVE",
"248 464 OFFCURVE",
"308 464 CURVE SMOOTH",
"383 464 OFFCURVE",
"436 407 OFFCURVE",
"436 322 CURVE SMOOTH",
"436 312 OFFCURVE",
"435 301 OFFCURVE",
"434 290 CURVE",
"26 290 LINE",
"14 262 OFFCURVE",
"10 226 OFFCURVE",
"10 197 CURVE SMOOTH",
"10 80 OFFCURVE",
"84 -10 OFFCURVE"
);
},
{
closed = 1;
nodes = (
"228 56 CURVE SMOOTH",
"150 56 OFFCURVE",
"95 114 OFFCURVE",
"95 200 CURVE SMOOTH",
"95 211 OFFCURVE",
"95 221 OFFCURVE",
"97 232 CURVE",
"424 232 LINE",
"396 130 OFFCURVE",
"314 56 OFFCURVE"
);
}
);
width = 565;
}
);
rightKerningGroup = o;
unicode = 0259;
},
{
glyphname = u;
lastChange = "2016-08-18 22:35:31 +0000";
layers = (
{
anchors = (
{
name = bottom;
position = "{425, 9}";
},
{
name = top;
position = "{322, 520}";
}
);
layerId = "D0976A8A-D56C-4C8B-8CB2-75EC6352B123";
paths = (
{
closed = 1;
nodes = (
"240 -10 OFFCURVE",
"325 34 OFFCURVE",
"385 112 CURVE",
"373 52 OFFCURVE",
"372 47 OFFCURVE",
"372 43 CURVE SMOOTH",
"372 14 OFFCURVE",
"392 0 OFFCURVE",
"421 -3 CURVE SMOOTH",
"430 -3 OFFCURVE",
"444 -3 OFFCURVE",
"461 0 CURVE",
"477 76 LINE",
"465 76 OFFCURVE",
"459 82 OFFCURVE",
"459 95 CURVE SMOOTH",
"459 98 OFFCURVE",
"461 111 OFFCURVE",
"464 124 CURVE SMOOTH",
"548 522 LINE",
"460 522 LINE",
"391 195 LINE",
"345 115 OFFCURVE",
"270 66 OFFCURVE",
"204 66 CURVE SMOOTH",
"152 66 OFFCURVE",
"125 96 OFFCURVE",
"125 157 CURVE SMOOTH",
"125 176 OFFCURVE",
"128 200 OFFCURVE",
"134 226 CURVE SMOOTH",
"197 522 LINE",
"109 522 LINE",
"42 209 LINE SMOOTH",
"35 177 OFFCURVE",
"32 148 OFFCURVE",
"32 123 CURVE SMOOTH",
"32 35 OFFCURVE",
"74 -10 OFFCURVE",
"153 -10 CURVE SMOOTH"
);
}
);
width = 578;
}
);
leftKerningGroup = u;
rightKerningGroup = u;
unicode = 0075;
},
{
glyphname = v;
lastChange = "2016-08-18 22:35:31 +0000";
layers = (
{
layerId = "D0976A8A-D56C-4C8B-8CB2-75EC6352B123";
paths = (
{
closed = 1;
nodes = (
"127 0 LINE",
"216 0 LINE",
"357 168 OFFCURVE",
"449 348 OFFCURVE",
"501 522 CURVE",
"421 522 LINE",
"372 374 OFFCURVE",
"305 224 OFFCURVE",
"194 76 CURVE",
"147 522 LINE",
"56 522 LINE"
);
}
);
width = 490;
}
);
unicode = 0076;
},
{
glyphname = w;
lastChange = "2016-08-18 22:35:31 +0000";
layers = (
{
anchors = (
{
name = top;
position = "{429, 520}";
}
);
layerId = "D0976A8A-D56C-4C8B-8CB2-75EC6352B123";
paths = (
{
closed = 1;
nodes = (
"216 0 LINE",
"278 79 OFFCURVE",
"330 161 OFFCURVE",
"374 244 CURVE",
"412 0 LINE",
"466 0 LINE",
"620 168 OFFCURVE",
"722 348 OFFCURVE",
"785 522 CURVE",
"705 522 LINE",
"649 377 OFFCURVE",
"589 251 OFFCURVE",
"464 106 CURVE",
"431 296 LINE",
"475 370 OFFCURVE",
"507 441 OFFCURVE",
"536 522 CURVE",
"468 522 LINE",
"447 468 OFFCURVE",
"423 410 OFFCURVE",
"394 351 CURVE",
"371 522 LINE",
"299 522 LINE",
"337 298 LINE",
"301 225 OFFCURVE",
"256 151 OFFCURVE",
"203 86 CURVE",
"135 522 LINE",
"50 522 LINE",
"143 0 LINE"
);
}
);
width = 760;
}
);
leftKerningGroup = w;
rightKerningGroup = w;
unicode = 0077;
},
{
glyphname = x;
lastChange = "2016-08-18 22:36:45 +0000";
layers = (
{
layerId = "D0976A8A-D56C-4C8B-8CB2-75EC6352B123";
paths = (
{
closed = 1;
nodes = (
"-52 0 LINE",
"41 0 LINE",
"214 191 LINE",
"225 206 LINE",
"231 191 LINE",
"323 0 LINE",
"416 0 LINE",
"286 260 LINE",
"526 522 LINE",
"433 522 LINE",
"260 330 LINE",
"248 314 LINE",
"244 330 LINE",
"152 522 LINE",
"60 522 LINE",
"189 260 LINE"
);
}
);
width = 488;
}
);
unicode = 0078;
},
{
glyphname = y;
lastChange = "2016-08-18 22:35:31 +0000";
layers = (
{
anchors = (
{
name = top;
position = "{294, 520}";
}
);
layerId = "D0976A8A-D56C-4C8B-8CB2-75EC6352B123";
paths = (
{
closed = 1;
nodes = (
"-35 -228 LINE",
"70 -220 OFFCURVE",
"127 -178 OFFCURVE",
"222 -26 CURVE SMOOTH",
"303 103 LINE SMOOTH",
"436 315 OFFCURVE",
"474 393 OFFCURVE",
"510 522 CURVE",
"424 522 LINE",
"394 401 OFFCURVE",
"354 309 OFFCURVE",
"259 157 CURVE SMOOTH",
"210 79 LINE",
"138 522 LINE",
"48 522 LINE",
"147 -4 LINE",
"111 -56 LINE SMOOTH",
"61 -128 OFFCURVE",
"34 -152 OFFCURVE",
"-45 -161 CURVE"
);
}
);
width = 493;
}
);
leftKerningGroup = y;
rightKerningGroup = y;
unicode = 0079;
},
{
glyphname = z;
lastChange = "2016-08-18 22:35:31 +0000";
layers = (
{
anchors = (
{
name = top;
position = "{279, 520}";
}
);
layerId = "D0976A8A-D56C-4C8B-8CB2-75EC6352B123";
paths = (
{
closed = 1;
nodes = (
"-38 0 LINE",
"370 0 LINE",
"384 64 LINE",
"70 64 LINE",
"467 465 LINE",
"479 522 LINE",
"81 522 LINE",
"68 458 LINE",
"371 458 LINE",
"-26 57 LINE"
);
}
);
width = 463;
}
);
leftKerningGroup = z;
rightKerningGroup = z;
unicode = 007A;
},
{
glyphname = j.alt;
lastChange = "2016-08-18 22:35:31 +0000";
layers = (
{
layerId = "D0976A8A-D56C-4C8B-8CB2-75EC6352B123";
paths = (
{
closed = 1;
nodes = (
"-41 -213 LINE",
"47 -213 LINE",
"202 517 LINE",
"114 517 LINE"
);
},
{
closed = 1;
nodes = (
"136 620 LINE",
"223 620 LINE",
"245 722 LINE",
"158 722 LINE"
);
}
);
width = 224;
}
);
leftKerningGroup = i;
rightKerningGroup = i;
},
{
glyphname = l.alt;
lastChange = "2016-08-18 22:35:31 +0000";
layers = (
{
layerId = "D0976A8A-D56C-4C8B-8CB2-75EC6352B123";
paths = (
{
closed = 1;
nodes = (
"9 0 LINE",
"40 0 OFFCURVE",
"97 0 OFFCURVE",
"97 0 CURVE",
"252 730 LINE",
"164 730 LINE"
);
}
);
width = 233;
}
);
},
{
glyphname = t.alt;
lastChange = "2016-08-18 22:35:31 +0000";
layers = (
{
layerId = "D0976A8A-D56C-4C8B-8CB2-75EC6352B123";
paths = (
{
closed = 1;
nodes = (
"35 0 LINE",
"125 0 LINE",
"219 442 LINE",
"336 442 LINE",
"353 522 LINE",
"236 522 LINE",
"274 697 LINE",
"183 697 LINE",
"146 522 LINE",
"73 522 LINE",
"56 442 LINE",
"129 442 LINE"
);
}
);
width = 328;
}
);
},
{
glyphname = w.alt;
lastChange = "2016-08-18 22:35:31 +0000";
layers = (
{
layerId = "D0976A8A-D56C-4C8B-8CB2-75EC6352B123";
paths = (
{
closed = 1;
nodes = (
"122 0 LINE",
"216 0 LINE",
"416 387 LINE",
"446 0 LINE",
"545 0 LINE",
"828 522 LINE",
"737 522 LINE",
"517 108 LINE",
"487 522 LINE",
"402 522 LINE",
"195 108 LINE",
"151 522 LINE",
"60 522 LINE"
);
}
);
width = 800;
}
);
},
{
glyphname = f_f;
lastChange = "2016-08-18 22:35:31 +0000";
layers = (
{
layerId = "D0976A8A-D56C-4C8B-8CB2-75EC6352B123";
paths = (
{
closed = 1;
nodes = (
"27 0 LINE",
"115 0 LINE",
"206 428 LINE",
"348 428 LINE",
"257 0 LINE",
"345 0 LINE",
"436 428 LINE",
"584 428 LINE",
"598 497 LINE",
"451 497 LINE",
"459 536 LINE SMOOTH",
"471 598 OFFCURVE",
"511 664 OFFCURVE",
"585 664 CURVE SMOOTH",
"619 664 OFFCURVE",
"636 650 OFFCURVE",
"646 643 CURVE",
"682 708 LINE",
"662 717 OFFCURVE",
"637 740 OFFCURVE",
"583 740 CURVE SMOOTH",
"523 740 OFFCURVE",
"477 715 OFFCURVE",
"441 675 CURVE",
"414 689 OFFCURVE",
"377 702 OFFCURVE",
"335 702 CURVE SMOOTH",
"228 702 OFFCURVE",
"157 615 OFFCURVE",
"136 513 CURVE SMOOTH",
"133 497 LINE",
"66 497 LINE",
"51 428 LINE",
"118 428 LINE"
);
},
{
closed = 1;
nodes = (
"221 497 LINE",
"225 516 LINE SMOOTH",
"237 564 OFFCURVE",
"267 626 OFFCURVE",
"336 626 CURVE SMOOTH",
"354 626 OFFCURVE",
"384 622 OFFCURVE",
"401 608 CURVE",
"384 577 OFFCURVE",
"372 547 OFFCURVE",
"362 497 CURVE"
);
}
);
width = 581;
}
);
leftKerningGroup = f;
rightKerningGroup = f;
},
{
glyphname = f_f_i;
lastChange = "2016-08-18 22:35:31 +0000";
layers = (
{
layerId = "D0976A8A-D56C-4C8B-8CB2-75EC6352B123";
paths = (
{
closed = 1;
nodes = (
"27 0 LINE",
"115 0 LINE",
"206 428 LINE",
"348 428 LINE",
"257 0 LINE",
"345 0 LINE",
"436 428 LINE",
"603 428 LINE",
"511 0 LINE",
"600 0 LINE",
"706 497 LINE",
"451 497 LINE",
"459 536 LINE SMOOTH",
"471 598 OFFCURVE",
"514 664 OFFCURVE",
"593 664 CURVE SMOOTH",
"632 664 OFFCURVE",
"677 645 OFFCURVE",
"695 623 CURVE",
"747 688 LINE",
"716 711 OFFCURVE",
"664 740 OFFCURVE",
"600 740 CURVE SMOOTH",
"533 740 OFFCURVE",
"481 715 OFFCURVE",
"441 675 CURVE",
"414 689 OFFCURVE",
"377 702 OFFCURVE",
"336 702 CURVE SMOOTH",
"228 702 OFFCURVE",
"157 614 OFFCURVE",
"136 513 CURVE SMOOTH",
"133 497 LINE",
"66 497 LINE",
"51 428 LINE",
"118 428 LINE"
);
},
{
closed = 1;
nodes = (
"221 497 LINE",
"224 515 LINE SMOOTH",
"234 564 OFFCURVE",
"267 626 OFFCURVE",
"336 626 CURVE SMOOTH",
"354 626 OFFCURVE",
"384 622 OFFCURVE",
"401 608 CURVE",
"384 577 OFFCURVE",
"372 541 OFFCURVE",
"362 497 CURVE"
);
}
);
width = 732;
}
);
leftKerningGroup = f;
rightKerningGroup = i;
},
{
glyphname = f_i;
lastChange = "2016-08-18 22:35:31 +0000";
layers = (
{
layerId = "D0976A8A-D56C-4C8B-8CB2-75EC6352B123";
paths = (
{
closed = 1;
nodes = (
"27 0 LINE",
"115 0 LINE",
"206 428 LINE",
"372 428 LINE",
"282 0 LINE",
"370 0 LINE",
"475 497 LINE",
"221 497 LINE",
"229 536 LINE SMOOTH",
"241 598 OFFCURVE",
"287 664 OFFCURVE",
"358 664 CURVE SMOOTH",
"405 664 OFFCURVE",
"445 646 OFFCURVE",
"465 623 CURVE",
"517 688 LINE",
"488 711 OFFCURVE",
"440 740 OFFCURVE",
"370 740 CURVE SMOOTH",
"246 740 OFFCURVE",
"161 636 OFFCURVE",
"140 533 CURVE SMOOTH",
"133 497 LINE",
"66 497 LINE",
"51 428 LINE",
"118 428 LINE"
);
}
);
width = 501;
}
);
leftKerningGroup = f;
rightKerningGroup = i;
},
{
glyphname = A.sc;
lastChange = "2016-08-18 22:35:31 +0000";
layers = (
{
anchors = (
{
name = bottom;
position = "{578, 8}";
},
{
name = top;
position = "{274, 707}";
}
);
layerId = "D0976A8A-D56C-4C8B-8CB2-75EC6352B123";
paths = (
{
closed = 1;
nodes = (
"-45 0 LINE",
"40 0 LINE",
"138 155 LINE",
"373 155 LINE",
"405 0 LINE",
"489 0 LINE",
"373 551 LINE",
"307 551 LINE"
);
},
{
closed = 1;
nodes = (
"171 225 LINE",
"319 452 LINE",
"368 225 LINE"
);
}
);
width = 566;
}
);
},
{
glyphname = B.sc;
lastChange = "2016-08-18 22:35:31 +0000";
layers = (
{
layerId = "D0976A8A-D56C-4C8B-8CB2-75EC6352B123";
paths = (
{
closed = 1;
nodes = (
"14 0 LINE",
"286 0 LINE SMOOTH",
"391 0 OFFCURVE",
"491 66 OFFCURVE",
"491 170 CURVE SMOOTH",
"491 224 OFFCURVE",
"461 267 OFFCURVE",
"410 283 CURVE",
"478 309 OFFCURVE",
"523 372 OFFCURVE",
"523 436 CURVE SMOOTH",
"523 495 OFFCURVE",
"487 551 OFFCURVE",
"419 551 CURVE SMOOTH",
"131 551 LINE"
);
},
{
closed = 1;
nodes = (
"108 69 LINE",
"146 246 LINE",
"343 246 LINE SMOOTH",
"385 246 OFFCURVE",
"411 213 OFFCURVE",
"411 173 CURVE SMOOTH",
"411 118 OFFCURVE",
"357 69 OFFCURVE",
"300 69 CURVE SMOOTH"
);
},
{
closed = 1;
nodes = (
"160 311 LINE",
"196 481 LINE",
"376 481 LINE SMOOTH",
"415 481 OFFCURVE",
"439 452 OFFCURVE",
"439 413 CURVE SMOOTH",
"439 355 OFFCURVE",
"390 311 OFFCURVE",
"335 311 CURVE SMOOTH"
);
}
);
width = 563;
}
);
leftKerningGroup = I.sc;
},
{
glyphname = D.sc;
lastChange = "2016-08-18 22:35:31 +0000";
layers = (
{
anchors = (
{
name = top;
position = "{295, 707}";
}
);
layerId = "D0976A8A-D56C-4C8B-8CB2-75EC6352B123";
paths = (
{
closed = 1;
nodes = (
"14 0 LINE",
"215 0 LINE SMOOTH",
"414 0 OFFCURVE",
"561 141 OFFCURVE",
"561 334 CURVE SMOOTH",
"561 456 OFFCURVE",
"489 551 OFFCURVE",
"333 551 CURVE SMOOTH",
"131 551 LINE"
);
},
{
closed = 1;
nodes = (
"109 71 LINE",
"195 480 LINE",
"317 480 LINE SMOOTH",
"424 480 OFFCURVE",
"478 415 OFFCURVE",
"478 322 CURVE SMOOTH",
"478 188 OFFCURVE",
"385 71 OFFCURVE",
"230 71 CURVE SMOOTH"
);
}
);
width = 604;
}
);
leftKerningGroup = I.sc;
},
{
glyphname = E.sc;
lastChange = "2016-08-18 22:35:31 +0000";
layers = (
{
anchors = (
{
name = bottom;
position = "{286, 0}";
},
{
name = top;
position = "{286, 707}";
}
);
layerId = "D0976A8A-D56C-4C8B-8CB2-75EC6352B123";
paths = (
{
closed = 1;
nodes = (
"14 0 LINE",
"406 0 LINE",
"421 71 LINE",
"109 71 LINE",
"146 248 LINE",
"412 248 LINE",
"426 314 LINE",
"160 314 LINE",
"195 480 LINE",
"501 480 LINE",
"516 551 LINE",
"131 551 LINE"
);
}
);
width = 514;
}
);
leftKerningGroup = I.sc;
},
{
glyphname = F.sc;
lastChange = "2016-08-18 22:35:31 +0000";
layers = (
{
layerId = "D0976A8A-D56C-4C8B-8CB2-75EC6352B123";
paths = (
{
closed = 1;
nodes = (
"14 0 LINE",
"94 0 LINE",
"145 241 LINE",
"399 241 LINE",
"413 308 LINE",
"160 308 LINE",
"195 480 LINE",
"497 480 LINE",
"512 551 LINE",
"131 551 LINE"
);
}
);
width = 500;
}
);
leftKerningGroup = I.sc;
},
{
glyphname = H.sc;
lastChange = "2016-08-18 22:35:31 +0000";
layers = (
{
anchors = (
{
name = top;
position = "{309, 707}";
}
);
layerId = "D0976A8A-D56C-4C8B-8CB2-75EC6352B123";
paths = (
{
closed = 1;
nodes = (
"14 0 LINE",
"94 0 LINE",
"146 246 LINE",
"453 246 LINE",
"401 0 LINE",
"481 0 LINE",
"598 551 LINE",
"518 551 LINE",
"468 318 LINE",
"161 318 LINE",
"211 551 LINE",
"131 551 LINE"
);
}
);
width = 623;
}
);
leftKerningGroup = I.sc;
rightKerningGroup = I.sc;
},
{
glyphname = I.sc;
lastChange = "2016-08-18 22:35:31 +0000";
layers = (
{
anchors = (
{
name = bottom;
position = "{52, 0}";
},
{
name = top;
position = "{51, 707}";
}
);
layerId = "D0976A8A-D56C-4C8B-8CB2-75EC6352B123";
paths = (
{
closed = 1;
nodes = (
"14 0 LINE",
"94 0 LINE",
"211 551 LINE",
"131 551 LINE"
);
}
);
width = 236;
}
);
leftKerningGroup = I.sc;
rightKerningGroup = I.sc;
},
{
glyphname = K.sc;
lastChange = "2016-08-18 22:35:31 +0000";
layers = (
{
anchors = (
{
name = bottom;
position = "{256, 0}";
}
);
layerId = "D0976A8A-D56C-4C8B-8CB2-75EC6352B123";
paths = (
{
closed = 1;
nodes = (
"14 0 LINE",
"94 0 LINE",
"130 168 LINE",
"245 261 LINE",
"395 0 LINE",
"481 0 LINE",
"304 308 LINE",
"585 551 LINE",
"498 551 LINE",
"148 256 LINE",
"211 551 LINE",
"131 551 LINE"
);
}
);
width = 550;
}
);
leftKerningGroup = I.sc;
},
{
glyphname = L.sc;
lastChange = "2016-08-18 22:35:31 +0000";
layers = (
{
anchors = (
{
name = bottom;
position = "{273, 0}";
},
{
name = top;
position = "{273, 707}";
}
);
layerId = "D0976A8A-D56C-4C8B-8CB2-75EC6352B123";
paths = (
{
closed = 1;
nodes = (
"14 0 LINE",
"392 0 LINE",
"407 71 LINE",
"109 71 LINE",
"211 551 LINE",
"131 551 LINE"
);
}
);
width = 468;
}
);
leftKerningGroup = I.sc;
},
{
glyphname = M.sc;
lastChange = "2016-08-18 22:35:31 +0000";
layers = (
{
layerId = "D0976A8A-D56C-4C8B-8CB2-75EC6352B123";
paths = (
{
closed = 1;
nodes = (
"14 0 LINE",
"94 0 LINE",
"181 409 LINE",
"299 98 LINE",
"344 98 LINE",
"594 409 LINE",
"507 0 LINE",
"586 0 LINE",
"704 551 LINE",
"620 551 LINE",
"345 206 LINE",
"216 551 LINE",
"131 551 LINE"
);
}
);
width = 729;
}
);
leftKerningGroup = I.sc;
rightKerningGroup = I.sc;
},
{
glyphname = N.sc;
lastChange = "2016-08-18 22:35:31 +0000";
layers = (
{
anchors = (
{
name = bottom;
position = "{336, 0}";
},
{
name = top;
position = "{335, 707}";
}
);
layerId = "D0976A8A-D56C-4C8B-8CB2-75EC6352B123";
paths = (
{
closed = 1;
nodes = (
"14 0 LINE",
"94 0 LINE",
"179 402 LINE",
"435 0 LINE",
"503 0 LINE",
"619 551 LINE",
"539 551 LINE",
"453 141 LINE",
"193 551 LINE",
"131 551 LINE"
);
}
);
width = 645;
}
);
leftKerningGroup = I.sc;
rightKerningGroup = I.sc;
},
{
glyphname = P.sc;
lastChange = "2016-08-18 22:35:31 +0000";
layers = (
{
layerId = "D0976A8A-D56C-4C8B-8CB2-75EC6352B123";
paths = (
{
closed = 1;
nodes = (
"14 0 LINE",
"94 0 LINE",
"135 194 LINE",
"301 194 LINE SMOOTH",
"417 194 OFFCURVE",
"514 300 OFFCURVE",
"514 401 CURVE SMOOTH",
"514 477 OFFCURVE",
"461 551 OFFCURVE",
"371 551 CURVE SMOOTH",
"131 551 LINE"
);
},
{
closed = 1;
nodes = (
"150 265 LINE",
"195 480 LINE",
"352 480 LINE SMOOTH",
"398 480 OFFCURVE",
"432 443 OFFCURVE",
"432 393 CURVE SMOOTH",
"432 325 OFFCURVE",
"377 265 OFFCURVE",
"311 265 CURVE SMOOTH"
);
}
);
width = 527;
}
);
leftKerningGroup = I.sc;
},
{
glyphname = R.sc;
lastChange = "2016-08-18 22:35:31 +0000";
layers = (
{
anchors = (
{
name = bottom;
position = "{258, 0}";
},
{
name = top;
position = "{258, 710}";
}
);
layerId = "D0976A8A-D56C-4C8B-8CB2-75EC6352B123";
paths = (
{
closed = 1;
nodes = (
"14 0 LINE",
"94 0 LINE",
"135 194 LINE",
"280 194 LINE",
"368 0 LINE",
"459 0 LINE",
"365 210 LINE",
"453 234 OFFCURVE",
"522 317 OFFCURVE",
"522 401 CURVE SMOOTH",
"522 477 OFFCURVE",
"468 551 OFFCURVE",
"379 551 CURVE SMOOTH",
"131 551 LINE"
);
},
{
closed = 1;
nodes = (
"150 265 LINE",
"195 480 LINE",
"359 480 LINE SMOOTH",
"406 480 OFFCURVE",
"439 441 OFFCURVE",
"439 392 CURVE SMOOTH",
"439 327 OFFCURVE",
"383 265 OFFCURVE",
"319 265 CURVE SMOOTH"
);
}
);
width = 560;
}
);
leftKerningGroup = I.sc;
},
{
glyphname = T.sc;
lastChange = "2016-08-18 22:35:31 +0000";
layers = (
{
anchors = (
{
name = bottom;
position = "{238, 0}";
},
{
name = top;
position = "{238, 707}";
}
);
layerId = "D0976A8A-D56C-4C8B-8CB2-75EC6352B123";
paths = (
{
closed = 1;
nodes = (
"152 0 LINE",
"233 0 LINE",
"335 480 LINE",
"530 480 LINE",
"546 551 LINE",
"73 551 LINE",
"58 480 LINE",
"255 480 LINE"
);
}
);
width = 515;
}
);
},
{
glyphname = V.sc;
lastChange = "2016-08-18 22:35:31 +0000";
layers = (
{
layerId = "D0976A8A-D56C-4C8B-8CB2-75EC6352B123";
paths = (
{
closed = 1;
nodes = (
"182 0 LINE",
"251 0 LINE",
"601 551 LINE",
"516 551 LINE",
"241 112 LINE",
"149 551 LINE",
"65 551 LINE"
);
}
);
width = 566;
}
);
},
{
glyphname = W.sc;
lastChange = "2016-08-18 22:35:31 +0000";
layers = (
{
anchors = (
{
name = top;
position = "{446, 707}";
}
);
layerId = "D0976A8A-D56C-4C8B-8CB2-75EC6352B123";
paths = (
{
closed = 1;
nodes = (
"187 0 LINE",
"255 0 LINE",
"421 252 LINE",
"480 0 LINE",
"549 0 LINE",
"906 551 LINE",
"818 551 LINE",
"529 97 LINE",
"482 305 LINE",
"633 548 LINE",
"558 548 LINE",
"443 359 LINE",
"409 548 LINE",
"334 548 LINE",
"381 305 LINE",
"248 97 LINE",
"151 551 LINE",
"64 551 LINE"
);
}
);
width = 869;
}
);
},
{
glyphname = X.sc;
lastChange = "2016-08-18 22:35:31 +0000";
layers = (
{
layerId = "D0976A8A-D56C-4C8B-8CB2-75EC6352B123";
paths = (
{
closed = 1;
nodes = (
"-46 0 LINE",
"43 0 LINE",
"251 214 LINE",
"368 0 LINE",
"456 0 LINE",
"306 272 LINE",
"579 551 LINE",
"491 551 LINE",
"275 329 LINE",
"153 551 LINE",
"64 551 LINE",
"219 272 LINE"
);
}
);
width = 538;
}
);
},
{
glyphname = Y.sc;
lastChange = "2016-08-18 22:35:31 +0000";
layers = (
{
anchors = (
{
name = top;
position = "{239, 707}";
}
);
layerId = "D0976A8A-D56C-4C8B-8CB2-75EC6352B123";
paths = (
{
closed = 1;
nodes = (
"159 0 LINE",
"239 0 LINE",
"282 199 LINE",
"575 551 LINE",
"487 551 LINE",
"257 270 LINE",
"149 551 LINE",
"61 551 LINE",
"202 200 LINE"
);
}
);
width = 536;
}
);
},
{
glyphname = Z.sc;
lastChange = "2016-08-18 22:35:31 +0000";
layers = (
{
anchors = (
{
name = top;
position = "{270, 707}";
}
);
layerId = "D0976A8A-D56C-4C8B-8CB2-75EC6352B123";
paths = (
{
closed = 1;
nodes = (
"-31 0 LINE",
"426 0 LINE",
"441 71 LINE",
"84 71 LINE",
"530 489 LINE",
"543 551 LINE",
"94 551 LINE",
"78 480 LINE",
"434 480 LINE",
"-18 62 LINE"
);
}
);
width = 526;
}
);
},
{
color = 4;
glyphname = "Be-cy";
lastChange = "2016-08-18 22:35:31 +0000";
layers = (
{
layerId = "D0976A8A-D56C-4C8B-8CB2-75EC6352B123";
paths = (
{
closed = 1;
nodes = (
"356 0 LINE SMOOTH",
"507 0 OFFCURVE",
"596 90 OFFCURVE",
"615 208 CURVE SMOOTH",
"635 326 OFFCURVE",
"572 407 OFFCURVE",
"416 407 CURVE SMOOTH",
"196 407 LINE",
"243 631 LINE",
"640 631 LINE",
"656 710 LINE",
"170 710 LINE",
"19 0 LINE"
);
},
{
closed = 1;
nodes = (
"180 335 LINE",
"397 335 LINE SMOOTH",
"513 335 OFFCURVE",
"535 275 OFFCURVE",
"523 211 CURVE SMOOTH",
"512 144 OFFCURVE",
"461 78 OFFCURVE",
"356 78 CURVE SMOOTH",
"126 78 LINE"
);
}
);
width = 665;
}
);
leftMetricsKey = "En-cy";
unicode = 0411;
},
{
color = 4;
glyphname = "Ge-cy";
lastChange = "2016-08-18 22:35:31 +0000";
layers = (
{
anchors = (
{
name = bottomright;
position = "{43, 0}";
},
{
name = top;
position = "{387, 710}";
}
);
layerId = "D0976A8A-D56C-4C8B-8CB2-75EC6352B123";
paths = (
{
closed = 1;
nodes = (
"106 0 LINE",
"240 630 LINE",
"562 630 LINE",
"579 710 LINE",
"166 710 LINE",
"16 0 LINE"
);
}
);
width = 506;
}
);
unicode = 0413;
},
{
color = 4;
glyphname = "Gheupturn-cy";
lastChange = "2016-08-18 22:35:31 +0000";
layers = (
{
layerId = "D0976A8A-D56C-4C8B-8CB2-75EC6352B123";
paths = (
{
closed = 1;
nodes = (
"109 0 LINE",
"242 630 LINE",
"565 630 LINE",
"613 857 LINE",
"533 857 LINE",
"503 710 LINE",
"170 710 LINE",
"19 0 LINE"
);
}
);
width = 509;
}
);
leftMetricsKey = "En-cy";
rightMetricsKey = "Ge-cy";
unicode = 0490;
},
{
color = 4;
glyphname = "De-cy";
lastChange = "2016-08-18 22:35:31 +0000";
layers = (
{
layerId = "D0976A8A-D56C-4C8B-8CB2-75EC6352B123";
paths = (
{
closed = 1;
nodes = (
"30 -136 LINE",
"58 0 LINE",
"581 0 LINE",
"553 -136 LINE",
"633 -136 LINE",
"678 80 LINE",
"590 80 LINE",
"723 710 LINE",
"275 710 LINE",
"237 530 LINE SMOOTH",
"169 207 OFFCURVE",
"109 82 OFFCURVE",
"31 80 CURVE SMOOTH",
"-5 80 LINE",
"-50 -136 LINE"
);
},
{
closed = 1;
nodes = (
"212 126 OFFCURVE",
"261 240 OFFCURVE",
"314 491 CURVE SMOOTH",
"343 630 LINE",
"617 630 LINE",
"500 80 LINE",
"152 80 LINE"
);
}
);
width = 757;
}
);
unicode = 0414;
},
{
color = 4;
glyphname = "Zhe-cy";
lastChange = "2016-08-18 22:35:31 +0000";
layers = (
{
anchors = (
{
name = bottomright;
position = "{831, 0}";
},
{
name = top;
position = "{567, 710}";
}
);
layerId = "D0976A8A-D56C-4C8B-8CB2-75EC6352B123";
paths = (
{
closed = 1;
nodes = (
"921 710 LINE",
"638 403 LINE",
"552 403 LINE",
"617 710 LINE",
"527 710 LINE",
"462 403 LINE",
"368 403 LINE",
"197 710 LINE",
"99 710 LINE",
"293 367 LINE",
"-42 0 LINE",
"63 0 LINE",
"359 321 LINE",
"445 321 LINE",
"377 0 LINE",
"467 0 LINE",
"535 321 LINE",
"629 321 LINE",
"815 0 LINE",
"920 0 LINE",
"705 367 LINE",
"1022 710 LINE"
);
}
);
width = 959;
}
);
rightMetricsKey = "Ka-cy";
unicode = 0416;
},
{
color = 5;
glyphname = "Ze-cy";
lastChange = "2016-08-18 22:35:31 +0000";
layers = (
{
anchors = (
{
name = bottom;
position = "{238, 0}";
},
{
name = top;
position = "{355, 710}";
}
);
layerId = "D0976A8A-D56C-4C8B-8CB2-75EC6352B123";
paths = (
{
closed = 1;
nodes = (
"390 -8 OFFCURVE",
"497 66 OFFCURVE",
"516 192 CURVE SMOOTH",
"529 277 OFFCURVE",
"492 346 OFFCURVE",
"414 369 CURVE",
"483 398 OFFCURVE",
"528 461 OFFCURVE",
"539 530 CURVE SMOOTH",
"556 645 OFFCURVE",
"481 718 OFFCURVE",
"352 718 CURVE SMOOTH",
"251 718 OFFCURVE",
"174 671 OFFCURVE",
"119 599 CURVE",
"179 554 LINE",
"214 605 OFFCURVE",
"270 636 OFFCURVE",
"337 636 CURVE SMOOTH",
"418 636 OFFCURVE",
"460 587 OFFCURVE",
"449 518 CURVE SMOOTH",
"439 451 OFFCURVE",
"385 401 OFFCURVE",
"314 401 CURVE SMOOTH",
"258 401 LINE",
"244 330 LINE",
"303 330 LINE SMOOTH",
"395 330 OFFCURVE",
"438 276 OFFCURVE",
"426 200 CURVE SMOOTH",
"414 120 OFFCURVE",
"349 68 OFFCURVE",
"252 68 CURVE SMOOTH",
"179 68 OFFCURVE",
"126 101 OFFCURVE",
"102 157 CURVE",
"26 115 LINE",
"61 37 OFFCURVE",
"140 -8 OFFCURVE",
"243 -8 CURVE SMOOTH"
);
}
);
width = 579;
}
);
rightMetricsKey = "Ve-cy";
unicode = 0417;
},
{
color = 4;
glyphname = "Ii-cy";
lastChange = "2016-08-18 22:35:31 +0000";
layers = (
{
anchors = (
{
name = bottomright;
position = "{551, 0}";
},
{
name = top;
position = "{454, 710}";
}
);
layerId = "D0976A8A-D56C-4C8B-8CB2-75EC6352B123";
paths = (
{
closed = 1;
nodes = (
"108 0 LINE",
"636 599 LINE",
"620 608 LINE",
"490 0 LINE",
"580 0 LINE",
"730 710 LINE",
"646 710 LINE",
"112 96 LINE",
"128 91 LINE",
"259 710 LINE",
"169 710 LINE",
"19 0 LINE"
);
}
);
width = 726;
}
);
leftMetricsKey = "En-cy";
rightMetricsKey = "En-cy";
unicode = 0418;
},
{
color = 4;
glyphname = "Ka-cy";
lastChange = "2016-08-18 22:35:31 +0000";
layers = (
{
anchors = (
{
name = bottomright;
position = "{470, 0}";
},
{
name = top;
position = "{393, 710}";
}
);
layerId = "D0976A8A-D56C-4C8B-8CB2-75EC6352B123";
paths = (
{
closed = 1;
nodes = (
"573 710 LINE",
"282 403 LINE",
"194 403 LINE",
"259 710 LINE",
"169 710 LINE",
"19 0 LINE",
"109 0 LINE",
"177 321 LINE",
"280 321 LINE",
"453 0 LINE",
"558 0 LINE",
"354 371 LINE",
"687 710 LINE"
);
}
);
width = 636;
}
);
leftMetricsKey = "En-cy";
unicode = 041A;
},
{
color = 4;
glyphname = "El-cy";
lastChange = "2016-08-18 22:35:31 +0000";
layers = (
{
layerId = "D0976A8A-D56C-4C8B-8CB2-75EC6352B123";
paths = (
{
closed = 1;
nodes = (
"148 -2 OFFCURVE",
"231 101 OFFCURVE",
"324 483 CURVE SMOOTH",
"359 630 LINE",
"631 630 LINE",
"497 0 LINE",
"587 0 LINE",
"737 710 LINE",
"292 710 LINE",
"243 506 LINE SMOOTH",
"160 166 OFFCURVE",
"96 77 OFFCURVE",
"-3 77 CURVE",
"-19 -2 LINE"
);
}
);
width = 734;
}
);
rightMetricsKey = "En-cy";
unicode = 041B;
},
{
color = 4;
glyphname = "O-cy";
lastChange = "2016-08-18 22:35:31 +0000";
layers = (
{
anchors = (
{
name = top;
position = "{436, 710}";
}
);
layerId = "D0976A8A-D56C-4C8B-8CB2-75EC6352B123";
paths = (
{
closed = 1;
nodes = (
"532 -5 OFFCURVE",
"703 159 OFFCURVE",
"729 354 CURVE SMOOTH",
"754 538 OFFCURVE",
"643 715 OFFCURVE",
"439 715 CURVE SMOOTH",
"242 715 OFFCURVE",
"71 544 OFFCURVE",
"44 355 CURVE SMOOTH",
"19 173 OFFCURVE",
"132 -5 OFFCURVE",
"335 -5 CURVE SMOOTH"
);
},
{
closed = 1;
nodes = (
"196 76 OFFCURVE",
"115 210 OFFCURVE",
"135 355 CURVE SMOOTH",
"155 493 OFFCURVE",
"270 633 OFFCURVE",
"426 633 CURVE SMOOTH",
"576 633 OFFCURVE",
"659 506 OFFCURVE",
"638 355 CURVE SMOOTH",
"619 218 OFFCURVE",
"504 76 OFFCURVE",
"348 76 CURVE SMOOTH"
);
}
);
width = 749;
}
);
leftMetricsKey = O;
rightMetricsKey = O;
unicode = 041E;
},
{
color = 4;
glyphname = "Pe-cy";
lastChange = "2016-08-18 22:35:31 +0000";
layers = (
{
anchors = (
{
name = bottomright;
position = "{497, 0}";
}
);
layerId = "D0976A8A-D56C-4C8B-8CB2-75EC6352B123";
paths = (
{
closed = 1;
nodes = (
"109 0 LINE",
"242 630 LINE",
"610 630 LINE",
"476 0 LINE",
"566 0 LINE",
"716 710 LINE",
"169 710 LINE",
"19 0 LINE"
);
}
);
width = 713;
}
);
leftMetricsKey = "En-cy";
rightMetricsKey = "En-cy";
unicode = 041F;
},
{
color = 4;
glyphname = "Es-cy";
lastChange = "2016-08-18 22:35:31 +0000";
layers = (
{
layerId = "D0976A8A-D56C-4C8B-8CB2-75EC6352B123";
paths = (
{
closed = 1;
nodes = (
"452 -6 OFFCURVE",
"591 52 OFFCURVE",
"653 159 CURVE",
"584 200 LINE",
"529 112 OFFCURVE",
"433 75 OFFCURVE",
"355 75 CURVE SMOOTH",
"209 75 OFFCURVE",
"120 208 OFFCURVE",
"141 356 CURVE SMOOTH",
"160 490 OFFCURVE",
"267 633 OFFCURVE",
"431 633 CURVE SMOOTH",
"507 633 OFFCURVE",
"588 603 OFFCURVE",
"619 513 CURVE",
"696 559 LINE",
"663 650 OFFCURVE",
"577 714 OFFCURVE",
"447 714 CURVE SMOOTH",
"228 714 OFFCURVE",
"74 532 OFFCURVE",
"50 360 CURVE SMOOTH",
"25 180 OFFCURVE",
"139 -6 OFFCURVE",
"339 -6 CURVE SMOOTH"
);
}
);
width = 708;
}
);
leftMetricsKey = O;
rightMetricsKey = C;
unicode = 0421;
},
{
color = 4;
glyphname = "U-cy";
lastChange = "2016-08-18 22:35:31 +0000";
layers = (
{
anchors = (
{
name = top;
position = "{410, 710}";
}
);
layerId = "D0976A8A-D56C-4C8B-8CB2-75EC6352B123";
paths = (
{
closed = 1;
nodes = (
"198 -3 LINE",
"256 -3 OFFCURVE",
"290 20 OFFCURVE",
"328 80 CURVE SMOOTH",
"723 710 LINE",
"626 710 LINE",
"344 261 LINE",
"274 134 LINE SMOOTH",
"250 92 OFFCURVE",
"233 73 OFFCURVE",
"201 73 CURVE",
"130 73 LINE",
"114 -3 LINE"
);
},
{
closed = 1;
nodes = (
"360 244 LINE",
"187 710 LINE",
"88 710 LINE",
"309 149 LINE"
);
}
);
width = 642;
}
);
unicode = 0423;
},
{
color = 4;
glyphname = "Ef-cy";
lastChange = "2016-08-18 22:35:31 +0000";
layers = (
{
layerId = "D0976A8A-D56C-4C8B-8CB2-75EC6352B123";
paths = (
{
closed = 1;
nodes = (
"346 139 LINE",
"219 143 OFFCURVE",
"114 221 OFFCURVE",
"140 377 CURVE SMOOTH",
"165 529 OFFCURVE",
"290 616 OFFCURVE",
"445 616 CURVE",
"454 690 LINE",
"265 690 OFFCURVE",
"91 576 OFFCURVE",
"58 377 CURVE SMOOTH",
"28 186 OFFCURVE",
"160 68 OFFCURVE",
"338 65 CURVE"
);
},
{
closed = 1;
nodes = (
"389 0 LINE",
"409 95 LINE",
"410 110 LINE",
"524 650 LINE",
"530 665 LINE",
"546 743 LINE",
"460 743 LINE",
"444 665 LINE",
"443 650 LINE",
"330 111 LINE",
"324 96 LINE",
"304 0 LINE"
);
},
{
closed = 1;
nodes = (
"584 65 OFFCURVE",
"762 186 OFFCURVE",
"792 377 CURVE SMOOTH",
"822 572 OFFCURVE",
"686 688 OFFCURVE",
"511 690 CURVE",
"503 616 LINE",
"633 613 OFFCURVE",
"734 532 OFFCURVE",
"710 377 CURVE SMOOTH",
"686 226 OFFCURVE",
"552 139 OFFCURVE",
"402 139 CURVE",
"393 65 LINE"
);
}
);
width = 816;
}
);
leftMetricsKey = O;
rightMetricsKey = O;
unicode = 0424;
},
{
color = 4;
glyphname = "Che-cy";
lastChange = "2016-08-18 22:35:31 +0000";
layers = (
{
anchors = (
{
name = bottomright;
position = "{442, 0}";
},
{
name = center;
position = "{327, 302}";
},
{
name = top;
position = "{421, 710}";
}
);
layerId = "D0976A8A-D56C-4C8B-8CB2-75EC6352B123";
paths = (
{
closed = 1;
nodes = (
"503 370 LINE",
"462 349 OFFCURVE",
"393 334 OFFCURVE",
"333 334 CURVE SMOOTH",
"221 334 OFFCURVE",
"177 378 OFFCURVE",
"200 483 CURVE SMOOTH",
"251 710 LINE",
"163 710 LINE",
"111 480 LINE SMOOTH",
"77 329 OFFCURVE",
"150 260 OFFCURVE",
"308 260 CURVE SMOOTH",
"375 260 OFFCURVE",
"433 273 OFFCURVE",
"487 294 CURVE",
"425 0 LINE",
"515 0 LINE",
"665 710 LINE",
"575 710 LINE"
);
}
);
width = 661;
}
);
rightMetricsKey = "En-cy";
unicode = 0427;
},
{
color = 4;
glyphname = "Tse-cy";
lastChange = "2016-08-18 22:35:31 +0000";
layers = (
{
layerId = "D0976A8A-D56C-4C8B-8CB2-75EC6352B123";
paths = (
{
closed = 1;
nodes = (
"608 -135 LINE",
"653 80 LINE",
"565 80 LINE",
"699 710 LINE",
"609 710 LINE",
"475 80 LINE",
"126 80 LINE",
"260 710 LINE",
"170 710 LINE",
"19 0 LINE",
"556 0 LINE",
"528 -135 LINE"
);
}
);
width = 732;
}
);
leftMetricsKey = "En-cy";
rightMetricsKey = "De-cy";
unicode = 0426;
},
{
color = 4;
glyphname = "Sha-cy";
lastChange = "2016-08-18 22:35:31 +0000";
layers = (
{
layerId = "D0976A8A-D56C-4C8B-8CB2-75EC6352B123";
paths = (
{
closed = 1;
nodes = (
"798 0 LINE",
"948 710 LINE",
"858 710 LINE",
"724 80 LINE",
"469 80 LINE",
"602 710 LINE",
"512 710 LINE",
"379 80 LINE",
"123 80 LINE",
"256 710 LINE",
"166 710 LINE",
"16 0 LINE"
);
}
);
width = 951;
}
);
leftMetricsKey = "En-cy";
rightMetricsKey = "En-cy";
unicode = 0428;
},
{
color = 4;
glyphname = "Shcha-cy";
lastChange = "2016-08-18 22:35:31 +0000";
layers = (
{
layerId = "D0976A8A-D56C-4C8B-8CB2-75EC6352B123";
paths = (
{
closed = 1;
nodes = (
"863 -136 LINE",
"909 80 LINE",
"820 80 LINE",
"954 710 LINE",
"864 710 LINE",
"731 80 LINE",
"475 80 LINE",
"608 710 LINE",
"518 710 LINE",
"385 80 LINE",
"129 80 LINE",
"262 710 LINE",
"172 710 LINE",
"22 0 LINE",
"811 0 LINE",
"783 -136 LINE"
);
}
);
width = 966;
}
);
leftMetricsKey = "En-cy";
rightMetricsKey = "De-cy";
unicode = 0429;
},
{
color = 4;
glyphname = "Dzhe-cy";
lastChange = "2016-08-18 22:35:31 +0000";
layers = (
{
layerId = "D0976A8A-D56C-4C8B-8CB2-75EC6352B123";
paths = (
{
closed = 1;
nodes = (
"532 372 LINE",
"456 12 LINE",
"274 12 LINE",
"421 710 LINE",
"331 710 LINE",
"195 68 LINE",
"252 68 LINE",
"281 202 LINE",
"215 202 LINE",
"172 0 LINE",
"399 0 LINE",
"478 372 LINE"
);
}
);
width = 698;
}
);
leftMetricsKey = "En-cy";
rightMetricsKey = "En-cy";
unicode = 040F;
},
{
color = 4;
glyphname = "Softsign-cy";
lastChange = "2016-08-18 22:35:31 +0000";
layers = (
{
layerId = "D0976A8A-D56C-4C8B-8CB2-75EC6352B123";
paths = (
{
closed = 1;
nodes = (
"290 0 LINE SMOOTH",
"439 0 OFFCURVE",
"535 96 OFFCURVE",
"555 221 CURVE SMOOTH",
"575 352 OFFCURVE",
"510 441 OFFCURVE",
"355 441 CURVE SMOOTH",
"202 441 LINE",
"259 710 LINE",
"169 710 LINE",
"19 0 LINE"
);
},
{
closed = 1;
nodes = (
"186 366 LINE",
"337 366 LINE SMOOTH",
"451 366 OFFCURVE",
"476 296 OFFCURVE",
"463 221 CURVE SMOOTH",
"450 144 OFFCURVE",
"395 75 OFFCURVE",
"290 75 CURVE SMOOTH",
"125 75 LINE"
);
}
);
width = 621;
}
);
leftMetricsKey = "En-cy";
unicode = 042C;
},
{
color = 4;
glyphname = "Hardsign-cy";
lastChange = "2016-08-18 22:35:31 +0000";
layers = (
{
layerId = "D0976A8A-D56C-4C8B-8CB2-75EC6352B123";
paths = (
{
closed = 1;
nodes = (
"409 0 LINE SMOOTH",
"558 0 OFFCURVE",
"654 96 OFFCURVE",
"674 221 CURVE SMOOTH",
"695 352 OFFCURVE",
"629 441 OFFCURVE",
"474 441 CURVE SMOOTH",
"317 441 LINE",
"374 710 LINE",
"101 710 LINE",
"85 634 LINE",
"268 634 LINE",
"134 0 LINE"
);
},
{
closed = 1;
nodes = (
"301 366 LINE",
"456 366 LINE SMOOTH",
"570 366 OFFCURVE",
"595 296 OFFCURVE",
"582 221 CURVE SMOOTH",
"570 144 OFFCURVE",
"514 75 OFFCURVE",
"409 75 CURVE SMOOTH",
"240 75 LINE"
);
}
);
width = 740;
}
);
leftMetricsKey = T;
rightMetricsKey = "Softsign-cy";
unicode = 042A;
},
{
color = 4;
glyphname = "Yeru-cy";
lastChange = "2016-08-18 22:35:31 +0000";
layers = (
{
anchors = (
{
name = top;
position = "{495, 710}";
}
);
components = (
{
name = I;
transform = "{1, 0, 0, 1, 570, 0}";
}
);
layerId = "D0976A8A-D56C-4C8B-8CB2-75EC6352B123";
paths = (
{
closed = 1;
nodes = (
"260 0 LINE SMOOTH",
"409 0 OFFCURVE",
"505 96 OFFCURVE",
"525 221 CURVE SMOOTH",
"545 352 OFFCURVE",
"480 441 OFFCURVE",
"325 441 CURVE SMOOTH",
"202 441 LINE",
"259 710 LINE",
"169 710 LINE",
"19 0 LINE"
);
},
{
closed = 1;
nodes = (
"186 366 LINE",
"307 366 LINE SMOOTH",
"421 366 OFFCURVE",
"446 296 OFFCURVE",
"433 221 CURVE SMOOTH",
"421 144 OFFCURVE",
"365 75 OFFCURVE",
"260 75 CURVE SMOOTH",
"125 75 LINE"
);
}
);
width = 840;
}
);
leftMetricsKey = "En-cy";
rightMetricsKey = "En-cy";
unicode = 042B;
},
{
color = 4;
glyphname = "Lje-cy";
lastChange = "2016-08-18 22:35:31 +0000";
layers = (
{
layerId = "D0976A8A-D56C-4C8B-8CB2-75EC6352B123";
paths = (
{
closed = 1;
nodes = (
"708 0 LINE SMOOTH",
"858 0 OFFCURVE",
"954 96 OFFCURVE",
"973 221 CURVE SMOOTH",
"994 352 OFFCURVE",
"928 441 OFFCURVE",
"774 441 CURVE SMOOTH",
"663 441 LINE",
"719 710 LINE",
"292 710 LINE",
"243 506 LINE SMOOTH",
"161 166 OFFCURVE",
"96 77 OFFCURVE",
"-3 77 CURVE",
"-19 -2 LINE",
"148 -2 OFFCURVE",
"233 101 OFFCURVE",
"324 483 CURVE SMOOTH",
"359 630 LINE",
"613 630 LINE",
"479 0 LINE"
);
},
{
closed = 1;
nodes = (
"647 366 LINE",
"756 366 LINE SMOOTH",
"870 366 OFFCURVE",
"895 296 OFFCURVE",
"882 221 CURVE SMOOTH",
"869 144 OFFCURVE",
"810 75 OFFCURVE",
"708 75 CURVE SMOOTH",
"585 75 LINE"
);
}
);
width = 1040;
}
);
leftMetricsKey = "El-cy";
rightMetricsKey = "Softsign-cy";
unicode = 0409;
},
{
color = 4;
glyphname = "Nje-cy";
lastChange = "2016-08-18 22:35:31 +0000";
layers = (
{
layerId = "D0976A8A-D56C-4C8B-8CB2-75EC6352B123";
paths = (
{
closed = 1;
nodes = (
"109 0 LINE",
"180 332 LINE",
"518 332 LINE",
"448 0 LINE",
"688 0 LINE SMOOTH",
"838 0 OFFCURVE",
"933 93 OFFCURVE",
"952 215 CURVE SMOOTH",
"972 339 OFFCURVE",
"905 423 OFFCURVE",
"751 423 CURVE SMOOTH",
"627 423 LINE",
"688 710 LINE",
"598 710 LINE",
"535 412 LINE",
"196 412 LINE",
"260 710 LINE",
"170 710 LINE",
"19 0 LINE"
);
},
{
closed = 1;
nodes = (
"611 348 LINE",
"732 348 LINE SMOOTH",
"846 348 OFFCURVE",
"872 284 OFFCURVE",
"861 215 CURVE SMOOTH",
"849 141 OFFCURVE",
"794 75 OFFCURVE",
"688 75 CURVE SMOOTH",
"554 75 LINE"
);
}
);
width = 1020;
}
);
leftMetricsKey = "En-cy";
rightMetricsKey = "Softsign-cy";
unicode = 040A;
},
{
color = 4;
glyphname = "E-cy";
lastChange = "2016-08-18 22:35:31 +0000";
layers = (
{
components = (
{
name = "Es-cy";
}
);
layerId = "D0976A8A-D56C-4C8B-8CB2-75EC6352B123";
paths = (
{
closed = 1;
nodes = (
"440 326 LINE",
"454 400 LINE",
"136 400 LINE",
"120 326 LINE"
);
}
);
width = 708;
}
);
leftMetricsKey = O;
rightMetricsKey = C;
unicode = 0404;
},
{
color = 4;
glyphname = "Ereversed-cy";
lastChange = "2016-08-18 22:35:31 +0000";
layers = (
{
layerId = "D0976A8A-D56C-4C8B-8CB2-75EC6352B123";
paths = (
{
closed = 1;
nodes = (
"493 -6 OFFCURVE",
"646 170 OFFCURVE",
"675 357 CURVE SMOOTH",
"704 535 OFFCURVE",
"621 714 OFFCURVE",
"400 714 CURVE SMOOTH",
"263 714 OFFCURVE",
"166 650 OFFCURVE",
"101 559 CURVE",
"167 512 LINE",
"222 595 OFFCURVE",
"303 633 OFFCURVE",
"388 633 CURVE SMOOTH",
"537 633 OFFCURVE",
"607 522 OFFCURVE",
"584 357 CURVE SMOOTH",
"560 207 OFFCURVE",
"449 75 OFFCURVE",
"294 75 CURVE SMOOTH",
"208 75 OFFCURVE",
"134 117 OFFCURVE",
"105 200 CURVE",
"24 159 LINE",
"60 56 OFFCURVE",
"156 -6 OFFCURVE",
"285 -6 CURVE SMOOTH"
);
},
{
closed = 1;
nodes = (
"602 326 LINE",
"616 400 LINE",
"274 400 LINE",
"259 326 LINE"
);
}
);
width = 701;
}
);
rightMetricsKey = O;
unicode = 042D;
},
{
color = 4;
glyphname = "Tshe-cy";
lastChange = "2016-08-18 22:35:31 +0000";
layers = (
{
layerId = "D0976A8A-D56C-4C8B-8CB2-75EC6352B123";
paths = (
{
closed = 1;
nodes = (
"202 0 LINE",
"336 632 LINE",
"604 632 LINE",
"620 710 LINE",
"101 710 LINE",
"84 632 LINE",
"246 632 LINE",
"112 0 LINE"
);
},
{
closed = 1;
nodes = (
"618 0 LINE",
"662 213 LINE SMOOTH",
"690 371 OFFCURVE",
"620 442 OFFCURVE",
"470 442 CURVE SMOOTH",
"401 442 OFFCURVE",
"333 425 OFFCURVE",
"276 399 CURVE",
"264 325 LINE",
"309 352 OFFCURVE",
"383 373 OFFCURVE",
"448 373 CURVE SMOOTH",
"554 373 OFFCURVE",
"597 323 OFFCURVE",
"576 218 CURVE SMOOTH",
"530 0 LINE"
);
}
);
width = 737;
}
);
leftMetricsKey = T;
unicode = 040B;
},
{
color = 4;
glyphname = "Iu-cy";
lastChange = "2016-08-18 22:35:31 +0000";
layers = (
{
components = (
{
name = "O-cy";
transform = "{1, 0, 0, 1, 258, 0}";
}
);
layerId = "D0976A8A-D56C-4C8B-8CB2-75EC6352B123";
paths = (
{
closed = 1;
nodes = (
"110 0 LINE",
"177 317 LINE",
"340 317 LINE",
"356 397 LINE",
"193 397 LINE",
"260 710 LINE",
"170 710 LINE",
"20 0 LINE"
);
}
);
width = 1014;
}
);
leftMetricsKey = "En-cy";
rightMetricsKey = O;
unicode = 042E;
},
{
color = 4;
glyphname = "Ia-cy";
lastChange = "2016-08-18 22:35:31 +0000";
layers = (
{
layerId = "D0976A8A-D56C-4C8B-8CB2-75EC6352B123";
paths = (
{
closed = 1;
nodes = (
"98 0 LINE",
"322 285 LINE",
"329 285 OFFCURVE",
"337 285 OFFCURVE",
"345 285 CURVE SMOOTH",
"458 285 LINE",
"398 0 LINE",
"488 0 LINE",
"638 710 LINE",
"379 710 LINE SMOOTH",
"241 710 OFFCURVE",
"140 633 OFFCURVE",
"118 517 CURVE SMOOTH",
"100 418 OFFCURVE",
"145 338 OFFCURVE",
"244 313 CURVE",
"-5 0 LINE"
);
},
{
closed = 1;
nodes = (
"475 363 LINE",
"332 363 LINE SMOOTH",
"233 363 OFFCURVE",
"193 423 OFFCURVE",
"206 501 CURVE SMOOTH",
"221 588 OFFCURVE",
"293 632 OFFCURVE",
"382 632 CURVE SMOOTH",
"531 632 LINE"
);
}
);
width = 634;
}
);
rightMetricsKey = "En-cy";
unicode = 042F;
},
{
color = 4;
glyphname = "Dje-cy";
lastChange = "2016-08-18 22:35:31 +0000";
layers = (
{
layerId = "D0976A8A-D56C-4C8B-8CB2-75EC6352B123";
paths = (
{
closed = 1;
nodes = (
"233 0 LINE",
"366 630 LINE",
"608 630 LINE",
"626 710 LINE",
"101 710 LINE",
"84 630 LINE",
"276 630 LINE",
"143 0 LINE"
);
},
{
closed = 1;
nodes = (
"573 -8 OFFCURVE",
"671 67 OFFCURVE",
"695 216 CURVE SMOOTH",
"718 360 OFFCURVE",
"636 447 OFFCURVE",
"499 447 CURVE SMOOTH",
"431 447 OFFCURVE",
"357 425 OFFCURVE",
"288 383 CURVE",
"276 302 LINE",
"345 348 OFFCURVE",
"414 371 OFFCURVE",
"477 371 CURVE SMOOTH",
"565 371 OFFCURVE",
"624 317 OFFCURVE",
"607 216 CURVE SMOOTH",
"590 115 OFFCURVE",
"527 68 OFFCURVE",
"439 68 CURVE SMOOTH",
"417 68 OFFCURVE",
"396 73 OFFCURVE",
"375 79 CURVE",
"344 5 LINE",
"374 -4 OFFCURVE",
"405 -8 OFFCURVE",
"435 -8 CURVE SMOOTH"
);
}
);
width = 769;
}
);
leftMetricsKey = T;
rightMetricsKey = "Tshe-cy";
unicode = 0402;
},
{
color = 4;
glyphname = "Yat-cy";
lastChange = "2016-08-18 22:35:31 +0000";
layers = (
{
components = (
{
name = "Softsign-cy";
transform = "{1, 0, 0, 1, 64, 0}";
}
);
layerId = "D0976A8A-D56C-4C8B-8CB2-75EC6352B123";
paths = (
{
closed = 1;
nodes = (
"473 549 LINE",
"485 606 LINE",
"79 606 LINE",
"67 549 LINE"
);
}
);
width = 685;
}
);
rightMetricsKey = "Softsign-cy";
unicode = 0462;
},
{
color = 4;
glyphname = "Yusbig-cy";
lastChange = "2016-08-18 22:35:31 +0000";
layers = (
{
layerId = "D0976A8A-D56C-4C8B-8CB2-75EC6352B123";
paths = (
{
closed = 1;
nodes = (
"52 0 LINE",
"348 317 LINE",
"440 317 LINE",
"373 0 LINE",
"463 0 LINE",
"530 317 LINE",
"614 317 LINE",
"805 0 LINE",
"907 0 LINE",
"691 363 LINE",
"1005 710 LINE",
"902 710 LINE",
"623 399 LINE",
"357 399 LINE",
"180 710 LINE",
"83 710 LINE",
"285 363 LINE",
"-50 0 LINE"
);
},
{
closed = 1;
nodes = (
"895 653 LINE",
"904 710 LINE",
"156 710 LINE",
"147 653 LINE"
);
}
);
width = 957;
}
);
leftMetricsKey = "Zhe-cy";
rightMetricsKey = "Zhe-cy";
unicode = 046A;
},
{
color = 4;
glyphname = "Izhitsa-cy";
lastChange = "2016-08-18 22:35:31 +0000";
layers = (
{
layerId = "D0976A8A-D56C-4C8B-8CB2-75EC6352B123";
paths = (
{
closed = 1;
nodes = (
"293 0 LINE",
"595 549 LINE SMOOTH",
"632 615 OFFCURVE",
"656 634 OFFCURVE",
"700 634 CURVE SMOOTH",
"725 634 LINE",
"749 710 LINE",
"705 710 LINE SMOOTH",
"626 710 OFFCURVE",
"582 679 OFFCURVE",
"533 584 CURVE SMOOTH",
"278 113 LINE",
"186 710 LINE",
"91 710 LINE",
"215 0 LINE"
);
}
);
width = 661;
}
);
leftMetricsKey = V;
unicode = 0474;
},
{
color = 4;
glyphname = "Ghestroke-cy";
lastChange = "2016-08-18 22:35:31 +0000";
layers = (
{
components = (
{
name = "Ge-cy";
transform = "{1, 0, 0, 1, 22, 0}";
}
);
layerId = "D0976A8A-D56C-4C8B-8CB2-75EC6352B123";
paths = (
{
closed = 1;
nodes = (
"409 303 LINE",
"419 364 LINE",
"7 364 LINE",
"-3 303 LINE"
);
}
);
width = 529;
}
);
rightMetricsKey = "Ge-cy";
unicode = 0492;
},
{
color = 4;
glyphname = "Ghemiddlehook-cy";
lastChange = "2016-08-18 22:35:31 +0000";
layers = (
{
components = (
{
name = "Ge-cy";
transform = "{1, 0, 0, 1, 3, 0}";
}
);
layerId = "D0976A8A-D56C-4C8B-8CB2-75EC6352B123";
paths = (
{
closed = 1;
nodes = (
"446 -40 OFFCURVE",
"544 34 OFFCURVE",
"568 182 CURVE SMOOTH",
"592 332 OFFCURVE",
"509 423 OFFCURVE",
"372 423 CURVE SMOOTH",
"304 423 OFFCURVE",
"232 402 OFFCURVE",
"164 361 CURVE",
"152 288 LINE",
"220 333 OFFCURVE",
"288 355 OFFCURVE",
"350 355 CURVE SMOOTH",
"441 355 OFFCURVE",
"501 297 OFFCURVE",
"484 189 CURVE SMOOTH",
"467 84 OFFCURVE",
"402 36 OFFCURVE",
"312 36 CURVE SMOOTH",
"290 36 OFFCURVE",
"269 41 OFFCURVE",
"248 47 CURVE",
"217 -27 LINE",
"247 -36 OFFCURVE",
"278 -40 OFFCURVE",
"308 -40 CURVE SMOOTH"
);
}
);
width = 648;
}
);
leftMetricsKey = "En-cy";
rightMetricsKey = "Tshe-cy";
unicode = 0494;
},
{
color = 4;
glyphname = "Zhedescender-cy";
lastChange = "2016-08-18 22:35:31 +0000";
layers = (
{
components = (
{
name = "Zhe-cy";
}
);
layerId = "D0976A8A-D56C-4C8B-8CB2-75EC6352B123";
paths = (
{
closed = 1;
nodes = (
"927 -135 LINE",
"973 80 LINE",
"837 80 LINE",
"820 0 LINE",
"877 0 LINE",
"849 -135 LINE"
);
}
);
width = 1032;
}
);
leftMetricsKey = "Zhe-cy";
rightMetricsKey = "Kadescender-cy";
unicode = 0496;
},
{
color = 4;
glyphname = "Zedescender-cy";
lastChange = "2016-08-18 22:35:31 +0000";
layers = (
{
components = (
{
name = "Ze-cy";
}
);
layerId = "D0976A8A-D56C-4C8B-8CB2-75EC6352B123";
paths = (
{
closed = 1;
nodes = (
"264 -135 LINE",
"301 45 LINE",
"220 45 LINE",
"184 -135 LINE"
);
}
);
width = 579;
}
);
leftMetricsKey = "Ze-cy";
rightMetricsKey = "Ze-cy";
unicode = 0498;
},
{
color = 4;
glyphname = "Kadescender-cy";
lastChange = "2016-08-18 22:35:31 +0000";
layers = (
{
components = (
{
name = "Ka-cy";
}
);
layerId = "D0976A8A-D56C-4C8B-8CB2-75EC6352B123";
paths = (
{
closed = 1;
nodes = (
"577 -135 LINE",
"623 80 LINE",
"488 80 LINE",
"470 0 LINE",
"528 0 LINE",
"499 -135 LINE"
);
}
);
width = 682;
}
);
leftMetricsKey = "En-cy";
unicode = 049A;
},
{
color = 4;
glyphname = "Kaverticalstroke-cy";
lastChange = "2016-08-18 22:40:40 +0000";
layers = (
{
components = (
{
name = "verticalbar-cy.case";
transform = "{1, 0, 0, 1, 132, 57}";
}
);
layerId = "D0976A8A-D56C-4C8B-8CB2-75EC6352B123";
paths = (
{
closed = 1;
nodes = (
"583 710 LINE",
"292 403 LINE",
"194 403 LINE",
"259 710 LINE",
"169 710 LINE",
"19 0 LINE",
"109 0 LINE",
"177 321 LINE",
"290 321 LINE",
"463 0 LINE",
"568 0 LINE",
"364 371 LINE",
"697 710 LINE"
);
}
);
width = 636;
}
);
leftMetricsKey = "En-cy";
rightMetricsKey = "Ka-cy";
unicode = 049C;
},
{
color = 4;
glyphname = "Kabashkir-cy";
lastChange = "2016-08-18 22:35:31 +0000";
layers = (
{
components = (
{
name = "Ka-cy";
transform = "{1, 0, 0, 1, 89, 0}";
}
);
layerId = "D0976A8A-D56C-4C8B-8CB2-75EC6352B123";
paths = (
{
closed = 1;
nodes = (
"262 634 LINE",
"278 710 LINE",
"101 710 LINE",
"85 634 LINE"
);
}
);
width = 725;
}
);
leftMetricsKey = "Hardsign-cy";
rightMetricsKey = "Ka-cy";
unicode = 04A0;
},
{
color = 4;
glyphname = "Esdescender-cy";
lastChange = "2016-08-18 22:35:31 +0000";
layers = (
{
components = (
{
name = "Es-cy";
transform = "{1, 0, 0, 1, 1, 0}";
}
);
layerId = "D0976A8A-D56C-4C8B-8CB2-75EC6352B123";
paths = (
{
closed = 1;
nodes = (
"325 -135 LINE",
"365 61 LINE",
"289 61 LINE",
"249 -135 LINE"
);
}
);
width = 682;
}
);
leftMetricsKey = O;
rightMetricsKey = C;
unicode = 04AA;
},
{
color = 4;
glyphname = "Ustraitstroke-cy";
lastChange = "2016-08-18 22:35:31 +0000";
layers = (
{
components = (
{
name = "Ustrait-cy";
}
);
layerId = "D0976A8A-D56C-4C8B-8CB2-75EC6352B123";
paths = (
{
closed = 1;
nodes = (
"433 182 LINE",
"446 242 LINE",
"137 242 LINE",
"124 182 LINE"
);
}
);
width = 607;
}
);
leftMetricsKey = Y;
rightMetricsKey = Y;
unicode = 04B0;
},
{
color = 9;
glyphname = "Chekhakassian-cy";
lastChange = "2016-08-18 22:35:31 +0000";
layers = (
{
components = (
{
name = "Che-cy";
}
);
layerId = "D0976A8A-D56C-4C8B-8CB2-75EC6352B123";
paths = (
{
closed = 1;
nodes = (
"386 -135 LINE",
"414 0 LINE",
"491 0 LINE",
"508 80 LINE",
"352 80 LINE",
"308 -135 LINE"
);
}
);
width = 661;
}
);
leftMetricsKey = "Che-cy";
rightMetricsKey = H;
unicode = 04CB;
},
{
color = 4;
glyphname = "Obarred-cy";
lastChange = "2016-08-18 22:35:31 +0000";
layers = (
{
components = (
{
name = "O-cy";
}
);
layerId = "D0976A8A-D56C-4C8B-8CB2-75EC6352B123";
paths = (
{
closed = 1;
nodes = (
"677 339 LINE",
"679 387 LINE",
"106 387 LINE",
"103 339 LINE"
);
}
);
width = 742;
}
);
unicode = 04E8;
},
{
color = 9;
glyphname = "De-cy.loclBGR";
lastChange = "2016-08-18 22:35:31 +0000";
layers = (
{
layerId = "D0976A8A-D56C-4C8B-8CB2-75EC6352B123";
paths = (
{
closed = 1;
nodes = (
"101 28 LINE",
"446 604 LINE",
"537 28 LINE",
"627 28 LINE",
"510 710 LINE",
"427 710 LINE",
"8 28 LINE"
);
},
{
closed = 1;
nodes = (
"6 -136 LINE",
"34 0 LINE",
"599 0 LINE",
"571 -136 LINE",
"651 -136 LINE",
"696 80 LINE",
"-29 80 LINE",
"-74 -136 LINE"
);
}
);
width = 751;
}
);
},
{
color = 4;
glyphname = "El-cy.loclBGR";
lastChange = "2016-08-18 22:35:31 +0000";
layers = (
{
layerId = "D0976A8A-D56C-4C8B-8CB2-75EC6352B123";
paths = (
{
closed = 1;
nodes = (
"45 0 LINE",
"390 604 LINE",
"478 0 LINE",
"571 0 LINE",
"454 710 LINE",
"372 710 LINE",
"-48 0 LINE"
);
}
);
width = 643;
}
);
},
{
color = 9;
glyphname = "Ef-cy.loclBGR";
lastChange = "2016-08-18 22:35:31 +0000";
layers = (
{
layerId = "D0976A8A-D56C-4C8B-8CB2-75EC6352B123";
paths = (
{
closed = 1;
nodes = (
"376 -62 LINE",
"387 -5 LINE",
"591 -11 OFFCURVE",
"760 134 OFFCURVE",
"792 354 CURVE SMOOTH",
"820 558 OFFCURVE",
"702 693 OFFCURVE",
"540 713 CURVE",
"552 772 LINE",
"467 772 LINE",
"455 715 LINE",
"249 721 OFFCURVE",
"81 578 OFFCURVE",
"49 355 CURVE SMOOTH",
"20 152 OFFCURVE",
"138 17 OFFCURVE",
"302 -3 CURVE",
"290 -62 LINE"
);
},
{
closed = 1;
nodes = (
"199 85 OFFCURVE",
"108 186 OFFCURVE",
"131 355 CURVE SMOOTH",
"156 530 OFFCURVE",
"281 646 OFFCURVE",
"441 641 CURVE",
"320 71 LINE"
);
},
{
closed = 1;
nodes = (
"522 639 LINE",
"643 624 OFFCURVE",
"733 523 OFFCURVE",
"710 354 CURVE SMOOTH",
"685 180 OFFCURVE",
"558 65 OFFCURVE",
"401 69 CURVE"
);
}
);
width = 818;
}
);
leftMetricsKey = O;
rightMetricsKey = O;
},
{
color = 4;
glyphname = "Esdescender-cy.loclBSH";
lastChange = "2016-08-18 22:35:31 +0000";
layers = (
{
components = (
{
name = "Es-cy";
transform = "{1, 0, 0, 1, 1, 0}";
}
);
layerId = "D0976A8A-D56C-4C8B-8CB2-75EC6352B123";
paths = (
{
closed = 1;
nodes = (
"315 -135 LINE",
"351 45 LINE",
"271 45 LINE",
"234 -135 LINE"
);
}
);
width = 675;
}
);
leftMetricsKey = O;
rightMetricsKey = C;
},
{
color = 9;
glyphname = "be-cy";
lastChange = "2016-08-18 22:35:31 +0000";
layers = (
{
layerId = "D0976A8A-D56C-4C8B-8CB2-75EC6352B123";
paths = (
{
closed = 1;
nodes = (
"426 -10 OFFCURVE",
"529 92 OFFCURVE",
"552 244 CURVE SMOOTH",
"573 386 OFFCURVE",
"504 485 OFFCURVE",
"365 485 CURVE SMOOTH",
"276 485 OFFCURVE",
"201 444 OFFCURVE",
"156 373 CURVE",
"198 532 OFFCURVE",
"255 606 OFFCURVE",
"390 631 CURVE SMOOTH",
"507 651 OFFCURVE",
"587 660 OFFCURVE",
"609 738 CURVE",
"549 763 LINE",
"525 715 OFFCURVE",
"451 718 OFFCURVE",
"376 702 CURVE SMOOTH",
"206 670 OFFCURVE",
"109 562 OFFCURVE",
"62 288 CURVE SMOOTH",
"29 103 OFFCURVE",
"101 -10 OFFCURVE",
"266 -10 CURVE SMOOTH"
);
},
{
closed = 1;
nodes = (
"174 62 OFFCURVE",
"128 142 OFFCURVE",
"145 238 CURVE SMOOTH",
"163 344 OFFCURVE",
"241 413 OFFCURVE",
"332 413 CURVE SMOOTH",
"432 413 OFFCURVE",
"477 341 OFFCURVE",
"461 238 CURVE SMOOTH",
"444 132 OFFCURVE",
"375 62 OFFCURVE",
"274 62 CURVE SMOOTH"
);
}
);
width = 598;
}
);
leftMetricsKey = "=o+30";
rightMetricsKey = o;
unicode = 0431;
},
{
color = 9;
glyphname = "ve-cy";
lastChange = "2016-08-18 22:35:31 +0000";
layers = (
{
layerId = "D0976A8A-D56C-4C8B-8CB2-75EC6352B123";
paths = (
{
closed = 1;
nodes = (
"363 -10 OFFCURVE",
"466 51 OFFCURVE",
"466 156 CURVE SMOOTH",
"466 246 OFFCURVE",
"368 285 OFFCURVE",
"286 282 CURVE",
"263 249 LINE",
"332 249 OFFCURVE",
"386 222 OFFCURVE",
"386 157 CURVE SMOOTH",
"386 89 OFFCURVE",
"323 52 OFFCURVE",
"246 53 CURVE SMOOTH",
"133 54 OFFCURVE",
"97 121 OFFCURVE",
"121 255 CURVE SMOOTH",
"138 391 OFFCURVE",
"216 468 OFFCURVE",
"321 468 CURVE SMOOTH",
"383 468 OFFCURVE",
"414 440 OFFCURVE",
"414 397 CURVE SMOOTH",
"414 334 OFFCURVE",
"349 291 OFFCURVE",
"217 289 CURVE SMOOTH",
"178 289 OFFCURVE",
"134 292 OFFCURVE",
"85 299 CURVE",
"75 251 LINE",
"122 245 OFFCURVE",
"168 242 OFFCURVE",
"210 242 CURVE SMOOTH",
"374 242 OFFCURVE",
"491 304 OFFCURVE",
"491 407 CURVE SMOOTH",
"491 485 OFFCURVE",
"429 532 OFFCURVE",
"324 532 CURVE SMOOTH",
"164 532 OFFCURVE",
"54 436 OFFCURVE",
"36 259 CURVE SMOOTH",
"11 82 OFFCURVE",
"77 -9 OFFCURVE",
"232 -9 CURVE SMOOTH"
);
}
);
width = 532;
}
);
leftMetricsKey = "o-cy";
rightMetricsKey = "o-cy";
unicode = 0432;
},
{
color = 4;
glyphname = "ge-cy";
lastChange = "2016-08-18 22:35:31 +0000";
layers = (
{
anchors = (
{
name = bottomright;
position = "{218, 0}";
},
{
name = top;
position = "{293, 522}";
}
);
layerId = "D0976A8A-D56C-4C8B-8CB2-75EC6352B123";
paths = (
{
closed = 1;
nodes = (
"325 -10 OFFCURVE",
"396 23 OFFCURVE",
"445 76 CURVE",
"391 122 LINE",
"355 80 OFFCURVE",
"301 57 OFFCURVE",
"244 57 CURVE SMOOTH",
"169 57 OFFCURVE",
"131 85 OFFCURVE",
"136 135 CURVE SMOOTH",
"141 182 OFFCURVE",
"171 206 OFFCURVE",
"277 238 CURVE SMOOTH",
"390 275 OFFCURVE",
"445 315 OFFCURVE",
"451 395 CURVE SMOOTH",
"455 479 OFFCURVE",
"401 532 OFFCURVE",
"292 532 CURVE SMOOTH",
"198 532 OFFCURVE",
"124 499 OFFCURVE",
"81 442 CURVE",
"142 405 LINE",
"171 445 OFFCURVE",
"223 468 OFFCURVE",
"278 468 CURVE SMOOTH",
"336 468 OFFCURVE",
"369 441 OFFCURVE",
"365 392 CURVE SMOOTH",
"360 346 OFFCURVE",
"332 324 OFFCURVE",
"242 294 CURVE SMOOTH",
"106 254 OFFCURVE",
"51 212 OFFCURVE",
"45 133 CURVE SMOOTH",
"39 46 OFFCURVE",
"98 -10 OFFCURVE",
"227 -10 CURVE SMOOTH"
);
}
);
width = 521;
}
);
unicode = 0433;
},
{
color = 4;
glyphname = "gheupturn-cy";
lastChange = "2016-08-18 22:35:31 +0000";
layers = (
{
layerId = "D0976A8A-D56C-4C8B-8CB2-75EC6352B123";
paths = (
{
closed = 1;
nodes = (
"72 -173 OFFCURVE",
"124 -101 OFFCURVE",
"147 0 CURVE SMOOTH",
"244 453 LINE",
"465 453 LINE",
"506 645 LINE",
"427 645 LINE",
"400 522 LINE",
"170 522 LINE",
"59 -1 LINE SMOOTH",
"45 -64 OFFCURVE",
"23 -97 OFFCURVE",
"-31 -97 CURVE SMOOTH",
"-56 -97 OFFCURVE",
"-83 -88 OFFCURVE",
"-98 -76 CURVE",
"-133 -140 LINE",
"-106 -160 OFFCURVE",
"-68 -173 OFFCURVE",
"-30 -173 CURVE SMOOTH"
);
}
);
width = 448;
}
);
unicode = 0491;
},
{
color = 9;
glyphname = "de-cy";
lastChange = "2016-08-18 22:35:31 +0000";
layers = (
{
layerId = "D0976A8A-D56C-4C8B-8CB2-75EC6352B123";
paths = (
{
closed = 1;
nodes = (
"379 -10 OFFCURVE",
"483 75 OFFCURVE",
"524 192 CURVE SMOOTH",
"557 284 OFFCURVE",
"573 374 OFFCURVE",
"573 461 CURVE SMOOTH",
"573 571 OFFCURVE",
"540 642 OFFCURVE",
"475 684 CURVE SMOOTH",
"411 724 OFFCURVE",
"317 737 OFFCURVE",
"185 733 CURVE",
"185 664 LINE",
"301 666 OFFCURVE",
"377 659 OFFCURVE",
"429 626 CURVE SMOOTH",
"489 588 OFFCURVE",
"511 510 OFFCURVE",
"494 377 CURVE",
"471 456 OFFCURVE",
"401 511 OFFCURVE",
"308 511 CURVE SMOOTH",
"167 511 OFFCURVE",
"50 393 OFFCURVE",
"32 255 CURVE SMOOTH",
"12 114 OFFCURVE",
"95 -10 OFFCURVE",
"255 -10 CURVE SMOOTH"
);
},
{
closed = 1;
nodes = (
"167 61 OFFCURVE",
"104 143 OFFCURVE",
"119 250 CURVE SMOOTH",
"134 357 OFFCURVE",
"221 441 OFFCURVE",
"314 441 CURVE SMOOTH",
"407 441 OFFCURVE",
"471 358 OFFCURVE",
"456 251 CURVE SMOOTH",
"441 148 OFFCURVE",
"354 61 OFFCURVE",
"261 61 CURVE SMOOTH"
);
}
);
width = 607;
}
);
leftMetricsKey = "o-cy";
unicode = 0434;
},
{
color = 4;
glyphname = "ie-cy";
lastChange = "2016-08-18 22:35:31 +0000";
layers = (
{
anchors = (
{
name = top;
position = "{333, 522}";
}
);
layerId = "D0976A8A-D56C-4C8B-8CB2-75EC6352B123";
paths = (
{
closed = 1;
nodes = (
"345 -10 OFFCURVE",
"442 44 OFFCURVE",
"488 126 CURVE",
"416 149 LINE",
"386 92 OFFCURVE",
"322 56 OFFCURVE",
"262 56 CURVE SMOOTH",
"174 56 OFFCURVE",
"128 120 OFFCURVE",
"124 208 CURVE SMOOTH",
"119 336 OFFCURVE",
"207 465 OFFCURVE",
"324 465 CURVE SMOOTH",
"372 465 OFFCURVE",
"428 437 OFFCURVE",
"430 379 CURVE SMOOTH",
"433 323 OFFCURVE",
"383 288 OFFCURVE",
"236 288 CURVE SMOOTH",
"189 288 OFFCURVE",
"144 290 OFFCURVE",
"88 294 CURVE",
"71 237 LINE",
"135 232 OFFCURVE",
"188 230 OFFCURVE",
"238 230 CURVE SMOOTH",
"428 230 OFFCURVE",
"522 284 OFFCURVE",
"517 387 CURVE SMOOTH",
"512 480 OFFCURVE",
"428 531 OFFCURVE",
"337 531 CURVE SMOOTH",
"156 531 OFFCURVE",
"24 378 OFFCURVE",
"32 211 CURVE SMOOTH",
"39 85 OFFCURVE",
"120 -10 OFFCURVE",
"247 -10 CURVE SMOOTH"
);
}
);
width = 554;
}
);
leftMetricsKey = "o-cy";
rightMetricsKey = "o-cy";
unicode = 0435;
},
{
color = 5;
glyphname = "zhe-cy";
lastChange = "2016-08-18 22:35:31 +0000";
layers = (
{
anchors = (
{
name = bottomright;
position = "{612, 0}";
},
{
name = top;
position = "{432, 522}";
}
);
layerId = "D0976A8A-D56C-4C8B-8CB2-75EC6352B123";
paths = (
{
closed = 1;
nodes = (
"60 0 LINE",
"125 107 OFFCURVE",
"186 190 OFFCURVE",
"275 232 CURVE",
"328 232 LINE",
"279 0 LINE",
"367 0 LINE",
"416 232 LINE",
"492 232 LINE",
"612 0 LINE",
"707 0 LINE",
"569 267 LINE",
"644 321 OFFCURVE",
"715 408 OFFCURVE",
"784 522 CURVE",
"692 522 LINE",
"629 419 OFFCURVE",
"574 346 OFFCURVE",
"501 301 CURVE",
"430 301 LINE",
"477 522 LINE",
"390 522 LINE",
"343 301 LINE",
"275 301 LINE",
"166 522 LINE",
"78 522 LINE",
"208 270 LINE",
"114 217 OFFCURVE",
"37 119 OFFCURVE",
"-34 0 CURVE"
);
}
);
width = 775;
}
);
rightMetricsKey = "ka-cy";
unicode = 0436;
},
{
color = 4;
glyphname = "ze-cy";
lastChange = "2016-08-18 22:35:31 +0000";
layers = (
{
anchors = (
{
name = bottom;
position = "{172, 0}";
},
{
name = top;
position = "{267, 522}";
}
);
layerId = "D0976A8A-D56C-4C8B-8CB2-75EC6352B123";
paths = (
{
closed = 1;
nodes = (
"297 -7 OFFCURVE",
"390 49 OFFCURVE",
"406 145 CURVE SMOOTH",
"416 208 OFFCURVE",
"390 256 OFFCURVE",
"330 275 CURVE",
"378 296 OFFCURVE",
"409 342 OFFCURVE",
"417 391 CURVE SMOOTH",
"431 479 OFFCURVE",
"366 530 OFFCURVE",
"264 530 CURVE SMOOTH",
"178 530 OFFCURVE",
"108 493 OFFCURVE",
"64 430 CURVE",
"127 394 LINE",
"155 436 OFFCURVE",
"195 458 OFFCURVE",
"250 458 CURVE SMOOTH",
"316 458 OFFCURVE",
"346 427 OFFCURVE",
"337 380 CURVE SMOOTH",
"330 335 OFFCURVE",
"292 301 OFFCURVE",
"251 301 CURVE SMOOTH",
"184 301 LINE",
"172 243 LINE",
"239 243 LINE SMOOTH",
"303 242 OFFCURVE",
"334 207 OFFCURVE",
"325 157 CURVE SMOOTH",
"316 101 OFFCURVE",
"263 65 OFFCURVE",
"187 65 CURVE SMOOTH",
"123 65 OFFCURVE",
"81 90 OFFCURVE",
"64 133 CURVE",
"-11 101 LINE",
"14 33 OFFCURVE",
"79 -7 OFFCURVE",
"180 -7 CURVE SMOOTH"
);
}
);
width = 476;
}
);
rightMetricsKey = "ve-cy";
unicode = 0437;
},
{
color = 9;
glyphname = "ka-cy";
lastChange = "2016-08-18 22:35:31 +0000";
layers = (
{
anchors = (
{
name = bottomright;
position = "{345, 0}";
},
{
name = center;
position = "{254, 261}";
},
{
name = top;
position = "{301, 522}";
}
);
layerId = "D0976A8A-D56C-4C8B-8CB2-75EC6352B123";
paths = (
{
closed = 1;
nodes = (
"100 0 LINE",
"149 232 LINE",
"226 232 LINE",
"345 0 LINE",
"441 0 LINE",
"302 267 LINE",
"378 321 OFFCURVE",
"449 407 OFFCURVE",
"518 522 CURVE",
"426 522 LINE",
"368 426 OFFCURVE",
"307 346 OFFCURVE",
"234 301 CURVE",
"164 301 LINE",
"211 522 LINE",
"123 522 LINE",
"13 0 LINE"
);
}
);
width = 508;
}
);
leftMetricsKey = "en-cy";
unicode = 043A;
},
{
color = 4;
glyphname = "el-cy";
lastChange = "2016-08-18 22:35:31 +0000";
layers = (
{
layerId = "D0976A8A-D56C-4C8B-8CB2-75EC6352B123";
paths = (
{
closed = 1;
nodes = (
"68 0 LINE",
"122 146 OFFCURVE",
"197 295 OFFCURVE",
"322 441 CURVE",
"373 0 LINE",
"465 0 LINE",
"390 522 LINE",
"300 522 LINE",
"143 354 OFFCURVE",
"40 174 OFFCURVE",
"-18 0 CURVE"
);
}
);
width = 542;
}
);
unicode = 043B;
},
{
color = 9;
glyphname = "em-cy";
lastChange = "2016-08-18 22:35:31 +0000";
layers = (
{
layerId = "D0976A8A-D56C-4C8B-8CB2-75EC6352B123";
paths = (
{
closed = 1;
nodes = (
"97 0 LINE",
"182 401 LINE",
"287 93 LINE",
"343 93 LINE",
"574 399 LINE",
"490 0 LINE",
"574 0 LINE",
"684 522 LINE",
"589 522 LINE",
"330 180 LINE",
"213 522 LINE",
"123 522 LINE",
"13 0 LINE"
);
}
);
width = 697;
}
);
leftMetricsKey = "en-cy";
rightMetricsKey = "en-cy";
unicode = 043C;
},
{
color = 5;
glyphname = "en-cy";
lastChange = "2016-08-18 22:35:31 +0000";
layers = (
{
anchors = (
{
name = bottomright;
position = "{373, 0}";
}
);
layerId = "D0976A8A-D56C-4C8B-8CB2-75EC6352B123";
paths = (
{
closed = 1;
nodes = (
"101 0 LINE",
"150 232 LINE",
"422 232 LINE",
"373 0 LINE",
"461 0 LINE",
"571 522 LINE",
"483 522 LINE",
"436 301 LINE",
"164 301 LINE",
"211 522 LINE",
"123 522 LINE",
"13 0 LINE"
);
}
);
width = 584;
}
);
unicode = 043D;
},
{
color = 4;
glyphname = "o-cy";
lastChange = "2016-08-18 22:35:31 +0000";
layers = (
{
anchors = (
{
name = top;
position = "{340, 520}";
}
);
layerId = "D0976A8A-D56C-4C8B-8CB2-75EC6352B123";
paths = (
{
closed = 1;
nodes = (
"426 -10 OFFCURVE",
"547 115 OFFCURVE",
"567 260 CURVE SMOOTH",
"587 406 OFFCURVE",
"497 531 OFFCURVE",
"341 531 CURVE SMOOTH",
"186 531 OFFCURVE",
"60 406 OFFCURVE",
"40 260 CURVE SMOOTH",
"20 115 OFFCURVE",
"108 -10 OFFCURVE",
"265 -10 CURVE SMOOTH"
);
},
{
closed = 1;
nodes = (
"179 62 OFFCURVE",
"113 148 OFFCURVE",
"128 259 CURVE SMOOTH",
"143 371 OFFCURVE",
"235 459 OFFCURVE",
"331 459 CURVE SMOOTH",
"426 459 OFFCURVE",
"494 371 OFFCURVE",
"479 261 CURVE SMOOTH",
"464 153 OFFCURVE",
"371 62 OFFCURVE",
"275 62 CURVE SMOOTH"
);
}
);
width = 592;
}
);
unicode = 043E;
},
{
color = 4;
glyphname = "pe-cy";
lastChange = "2016-08-18 22:35:31 +0000";
layers = (
{
anchors = (
{
name = bottomright;
position = "{369, 0}";
}
);
layerId = "D0976A8A-D56C-4C8B-8CB2-75EC6352B123";
paths = (
{
closed = 1;
nodes = (
"101 0 LINE",
"197 452 LINE",
"453 452 LINE",
"357 0 LINE",
"445 0 LINE",
"556 522 LINE",
"123 522 LINE",
"13 0 LINE"
);
}
);
width = 568;
}
);
leftMetricsKey = "en-cy";
rightMetricsKey = "en-cy";
unicode = 043F;
},
{
color = 4;
glyphname = "es-cy";
lastChange = "2016-08-18 22:35:31 +0000";
layers = (
{
layerId = "D0976A8A-D56C-4C8B-8CB2-75EC6352B123";
paths = (
{
closed = 1;
nodes = (
"362 -10 OFFCURVE",
"457 45 OFFCURVE",
"499 121 CURVE",
"416 147 LINE",
"393 103 OFFCURVE",
"326 66 OFFCURVE",
"265 66 CURVE SMOOTH",
"170 66 OFFCURVE",
"103 152 OFFCURVE",
"119 262 CURVE SMOOTH",
"135 373 OFFCURVE",
"222 455 OFFCURVE",
"319 455 CURVE SMOOTH",
"377 455 OFFCURVE",
"424 426 OFFCURVE",
"444 377 CURVE",
"534 404 LINE",
"507 481 OFFCURVE",
"435 531 OFFCURVE",
"332 531 CURVE SMOOTH",
"173 531 OFFCURVE",
"49 409 OFFCURVE",
"29 262 CURVE SMOOTH",
"9 115 OFFCURVE",
"100 -10 OFFCURVE",
"257 -10 CURVE SMOOTH"
);
}
);
width = 549;
}
);
leftMetricsKey = o;
unicode = 0441;
},
{
color = 4;
glyphname = "ef-cy";
lastChange = "2016-08-18 22:35:31 +0000";
layers = (
{
layerId = "D0976A8A-D56C-4C8B-8CB2-75EC6352B123";
paths = (
{
closed = 1;
nodes = (
"292 -213 LINE",
"337 0 LINE",
"370 0 LINE SMOOTH",
"528 0 OFFCURVE",
"645 120 OFFCURVE",
"668 260 CURVE SMOOTH",
"691 398 OFFCURVE",
"614 516 OFFCURVE",
"465 520 CURVE SMOOTH",
"448 521 LINE",
"492 730 LINE",
"404 730 LINE",
"360 521 LINE",
"325 521 LINE SMOOTH",
"167 521 OFFCURVE",
"51 401 OFFCURVE",
"28 260 CURVE SMOOTH",
"5 124 OFFCURVE",
"80 5 OFFCURVE",
"229 0 CURVE SMOOTH",
"249 0 LINE",
"204 -213 LINE"
);
},
{
closed = 1;
nodes = (
"151 70 OFFCURVE",
"96 152 OFFCURVE",
"114 259 CURVE SMOOTH",
"131 367 OFFCURVE",
"216 451 OFFCURVE",
"315 451 CURVE SMOOTH",
"349 451 LINE",
"268 70 LINE",
"251 70 LINE SMOOTH"
);
},
{
closed = 1;
nodes = (
"429 451 LINE",
"445 451 LINE SMOOTH",
"544 451 OFFCURVE",
"600 367 OFFCURVE",
"582 259 CURVE SMOOTH",
"564 152 OFFCURVE",
"481 70 OFFCURVE",
"380 70 CURVE SMOOTH",
"348 70 LINE"
);
}
);
width = 707;
}
);
leftMetricsKey = o;
rightMetricsKey = o;
unicode = 0444;
},
{
color = 4;
glyphname = "che-cy";
lastChange = "2016-08-18 22:35:31 +0000";
layers = (
{
anchors = (
{
name = bottomright;
position = "{320, 0}";
},
{
name = center;
position = "{257, 223}";
},
{
name = top;
position = "{311, 522}";
}
);
layerId = "D0976A8A-D56C-4C8B-8CB2-75EC6352B123";
paths = (
{
closed = 1;
nodes = (
"402 0 LINE",
"513 522 LINE",
"425 522 LINE",
"372 275 LINE",
"343 259 OFFCURVE",
"295 248 OFFCURVE",
"252 248 CURVE SMOOTH",
"178 248 OFFCURVE",
"144 284 OFFCURVE",
"162 370 CURVE SMOOTH",
"196 522 LINE",
"107 522 LINE",
"71 358 LINE SMOOTH",
"45 239 OFFCURVE",
"102 180 OFFCURVE",
"215 180 CURVE SMOOTH",
"268 180 OFFCURVE",
"312 189 OFFCURVE",
"358 209 CURVE",
"312 0 LINE"
);
}
);
width = 526;
}
);
rightMetricsKey = "en-cy";
unicode = 0447;
},
{
color = 9;
glyphname = "tse-cy";
lastChange = "2016-08-18 22:35:31 +0000";
layers = (
{
layerId = "D0976A8A-D56C-4C8B-8CB2-75EC6352B123";
paths = (
{
closed = 1;
nodes = (
"487 -123 LINE",
"529 77 LINE",
"505 77 LINE SMOOTH",
"461 77 OFFCURVE",
"456 90 OFFCURVE",
"469 150 CURVE SMOOTH",
"548 522 LINE",
"460 522 LINE",
"391 195 LINE",
"345 115 OFFCURVE",
"270 66 OFFCURVE",
"204 66 CURVE SMOOTH",
"152 66 OFFCURVE",
"125 96 OFFCURVE",
"125 157 CURVE SMOOTH",
"125 176 OFFCURVE",
"128 200 OFFCURVE",
"134 226 CURVE SMOOTH",
"197 522 LINE",
"109 522 LINE",
"42 209 LINE SMOOTH",
"35 177 OFFCURVE",
"32 148 OFFCURVE",
"32 123 CURVE SMOOTH",
"32 35 OFFCURVE",
"74 -10 OFFCURVE",
"153 -10 CURVE SMOOTH",
"240 -10 OFFCURVE",
"325 34 OFFCURVE",
"386 112 CURVE",
"372 42 OFFCURVE",
"376 4 OFFCURVE",
"434 0 CURVE",
"407 -123 LINE"
);
}
);
width = 601;
}
);
leftMetricsKey = u;
unicode = 0446;
},
{
color = 9;
glyphname = "shcha-cy";
lastChange = "2016-08-18 22:35:31 +0000";
layers = (
{
layerId = "D0976A8A-D56C-4C8B-8CB2-75EC6352B123";
paths = (
{
closed = 1;
nodes = (
"807 -123 LINE",
"849 77 LINE",
"823 77 LINE SMOOTH",
"781 77 OFFCURVE",
"777 90 OFFCURVE",
"789 151 CURVE SMOOTH",
"868 522 LINE",
"780 522 LINE",
"713 207 LINE",
"672 124 OFFCURVE",
"603 70 OFFCURVE",
"537 70 CURVE SMOOTH",
"490 70 OFFCURVE",
"466 97 OFFCURVE",
"466 156 CURVE SMOOTH",
"466 176 OFFCURVE",
"468 201 OFFCURVE",
"475 230 CURVE SMOOTH",
"536 522 LINE",
"448 522 LINE",
"382 208 LINE",
"341 123 OFFCURVE",
"272 70 OFFCURVE",
"207 70 CURVE SMOOTH",
"160 70 OFFCURVE",
"135 98 OFFCURVE",
"135 158 CURVE SMOOTH",
"135 178 OFFCURVE",
"138 202 OFFCURVE",
"144 230 CURVE SMOOTH",
"205 522 LINE",
"117 522 LINE",
"51 210 LINE SMOOTH",
"43 170 OFFCURVE",
"40 138 OFFCURVE",
"40 116 CURVE SMOOTH",
"40 40 OFFCURVE",
"71 -9 OFFCURVE",
"155 -9 CURVE SMOOTH",
"235 -9 OFFCURVE",
"322 38 OFFCURVE",
"371 122 CURVE",
"370 51 OFFCURVE",
"394 -9 OFFCURVE",
"489 -9 CURVE SMOOTH",
"573 -9 OFFCURVE",
"643 30 OFFCURVE",
"702 113 CURVE",
"687 34 OFFCURVE",
"697 4 OFFCURVE",
"753 0 CURVE",
"727 -123 LINE"
);
}
);
width = 920;
}
);
leftMetricsKey = u;
rightMetricsKey = "tse-cy";
unicode = 0449;
},
{
color = 9;
glyphname = "softsign-cy";
lastChange = "2016-08-18 22:35:31 +0000";
layers = (
{
layerId = "D0976A8A-D56C-4C8B-8CB2-75EC6352B123";
paths = (
{
closed = 1;
nodes = (
"356 -8 OFFCURVE",
"448 49 OFFCURVE",
"465 175 CURVE SMOOTH",
"483 299 OFFCURVE",
"402 355 OFFCURVE",
"273 355 CURVE SMOOTH",
"137 355 LINE",
"126 290 LINE",
"261 290 LINE SMOOTH",
"358 290 OFFCURVE",
"397 247 OFFCURVE",
"387 177 CURVE SMOOTH",
"377 107 OFFCURVE",
"327 66 OFFCURVE",
"246 66 CURVE SMOOTH",
"172 66 OFFCURVE",
"118 108 OFFCURVE",
"138 200 CURVE SMOOTH",
"159 307 OFFCURVE",
"186 415 OFFCURVE",
"211 522 CURVE",
"123 522 LINE",
"98 417 OFFCURVE",
"71 310 OFFCURVE",
"50 205 CURVE SMOOTH",
"21 59 OFFCURVE",
"105 -8 OFFCURVE",
"233 -8 CURVE SMOOTH"
);
}
);
width = 530;
}
);
leftMetricsKey = u;
unicode = 044C;
},
{
color = 9;
glyphname = "hardsign-cy";
lastChange = "2016-08-18 22:35:31 +0000";
layers = (
{
layerId = "D0976A8A-D56C-4C8B-8CB2-75EC6352B123";
paths = (
{
closed = 1;
nodes = (
"429 -8 OFFCURVE",
"516 57 OFFCURVE",
"532 175 CURVE SMOOTH",
"548 290 OFFCURVE",
"487 356 OFFCURVE",
"349 356 CURVE SMOOTH",
"322 356 OFFCURVE",
"295 356 OFFCURVE",
"268 356 CURVE",
"293 411 OFFCURVE",
"326 468 OFFCURVE",
"362 522 CURVE",
"76 522 LINE",
"61 453 LINE",
"258 453 LINE",
"180 356 OFFCURVE",
"119 239 OFFCURVE",
"119 145 CURVE SMOOTH",
"119 47 OFFCURVE",
"185 -8 OFFCURVE",
"312 -8 CURVE SMOOTH"
);
},
{
closed = 1;
nodes = (
"241 66 OFFCURVE",
"205 98 OFFCURVE",
"205 162 CURVE SMOOTH",
"205 199 OFFCURVE",
"219 244 OFFCURVE",
"243 292 CURVE",
"272 292 OFFCURVE",
"300 293 OFFCURVE",
"327 293 CURVE SMOOTH",
"427 293 OFFCURVE",
"462 247 OFFCURVE",
"454 177 CURVE SMOOTH",
"445 107 OFFCURVE",
"394 66 OFFCURVE",
"318 66 CURVE SMOOTH"
);
}
);
width = 597;
}
);
rightMetricsKey = "softsign-cy";
unicode = 044A;
},
{
color = 9;
glyphname = "lje-cy";
lastChange = "2016-08-18 22:35:31 +0000";
layers = (
{
layerId = "D0976A8A-D56C-4C8B-8CB2-75EC6352B123";
paths = (
{
closed = 1;
nodes = (
"604 -8 OFFCURVE",
"681 42 OFFCURVE",
"696 131 CURVE SMOOTH",
"719 268 OFFCURVE",
"647 331 OFFCURVE",
"510 326 CURVE SMOOTH",
"380 321 LINE",
"376 250 LINE",
"508 255 LINE SMOOTH",
"596 259 OFFCURVE",
"629 220 OFFCURVE",
"619 149 CURVE SMOOTH",
"611 100 OFFCURVE",
"574 66 OFFCURVE",
"518 66 CURVE SMOOTH",
"437 66 OFFCURVE",
"424 106 OFFCURVE",
"409 206 CURVE SMOOTH",
"367 522 LINE",
"274 522 LINE",
"133 354 OFFCURVE",
"37 174 OFFCURVE",
"-15 0 CURVE",
"73 0 LINE",
"122 148 OFFCURVE",
"188 297 OFFCURVE",
"300 445 CURVE",
"328 196 LINE SMOOTH",
"341 53 OFFCURVE",
"378 -8 OFFCURVE",
"509 -8 CURVE SMOOTH"
);
}
);
width = 769;
}
);
leftMetricsKey = "el-cy";
rightMetricsKey = "softsign-cy";
unicode = 0459;
},
{
color = 9;
glyphname = "nje-cy";
lastChange = "2016-08-18 22:35:31 +0000";
layers = (
{
layerId = "D0976A8A-D56C-4C8B-8CB2-75EC6352B123";
paths = (
{
closed = 1;
nodes = (
"662 -8 OFFCURVE",
"749 41 OFFCURVE",
"765 153 CURVE SMOOTH",
"782 274 OFFCURVE",
"705 326 OFFCURVE",
"583 326 CURVE SMOOTH",
"455 326 LINE",
"441 255 LINE",
"572 255 LINE SMOOTH",
"659 255 OFFCURVE",
"695 220 OFFCURVE",
"686 155 CURVE SMOOTH",
"679 98 OFFCURVE",
"635 66 OFFCURVE",
"565 66 CURVE SMOOTH",
"488 66 OFFCURVE",
"438 107 OFFCURVE",
"458 196 CURVE SMOOTH",
"527 522 LINE",
"439 522 LINE",
"394 310 LINE",
"167 310 LINE",
"211 522 LINE",
"123 522 LINE",
"13 0 LINE",
"101 0 LINE",
"152 242 LINE",
"380 242 LINE",
"369 192 LINE SMOOTH",
"346 56 OFFCURVE",
"425 -8 OFFCURVE",
"549 -8 CURVE SMOOTH"
);
}
);
width = 834;
}
);
leftMetricsKey = "en-cy";
rightMetricsKey = "softsign-cy";
unicode = 045A;
},
{
color = 4;
glyphname = "e-cy";
lastChange = "2016-08-18 22:35:31 +0000";
layers = (
{
layerId = "D0976A8A-D56C-4C8B-8CB2-75EC6352B123";
paths = (
{
closed = 1;
nodes = (
"347 -9 OFFCURVE",
"442 40 OFFCURVE",
"493 121 CURVE",
"412 148 LINE",
"374 92 OFFCURVE",
"314 66 OFFCURVE",
"262 66 CURVE SMOOTH",
"164 66 OFFCURVE",
"104 154 OFFCURVE",
"121 262 CURVE SMOOTH",
"143 377 OFFCURVE",
"228 455 OFFCURVE",
"326 455 CURVE SMOOTH",
"376 455 OFFCURVE",
"420 433 OFFCURVE",
"443 377 CURVE",
"532 404 LINE",
"506 478 OFFCURVE",
"444 531 OFFCURVE",
"339 531 CURVE SMOOTH",
"172 531 OFFCURVE",
"56 397 OFFCURVE",
"36 263 CURVE SMOOTH",
"14 125 OFFCURVE",
"92 -9 OFFCURVE",
"250 -9 CURVE SMOOTH"
);
},
{
closed = 1;
nodes = (
"345 240 LINE",
"357 291 LINE",
"92 291 LINE",
"82 240 LINE"
);
}
);
width = 558;
}
);
rightMetricsKey = c;
unicode = 0454;
},
{
color = 4;
glyphname = "ereversed-cy";
lastChange = "2016-08-18 22:35:31 +0000";
layers = (
{
layerId = "D0976A8A-D56C-4C8B-8CB2-75EC6352B123";
paths = (
{
closed = 1;
nodes = (
"389 -9 OFFCURVE",
"503 125 OFFCURVE",
"526 263 CURVE SMOOTH",
"547 397 OFFCURVE",
"474 531 OFFCURVE",
"303 531 CURVE SMOOTH",
"201 531 OFFCURVE",
"119 483 OFFCURVE",
"69 411 CURVE",
"131 376 LINE",
"175 436 OFFCURVE",
"233 459 OFFCURVE",
"292 459 CURVE SMOOTH",
"396 459 OFFCURVE",
"460 381 OFFCURVE",
"443 262 CURVE",
"425 152 OFFCURVE",
"331 62 OFFCURVE",
"229 62 CURVE SMOOTH",
"164 62 OFFCURVE",
"110 90 OFFCURVE",
"87 150 CURVE",
"11 117 LINE",
"39 37 OFFCURVE",
"122 -9 OFFCURVE",
"222 -9 CURVE SMOOTH"
);
},
{
closed = 1;
nodes = (
"469 240 LINE",
"480 291 LINE",
"216 291 LINE",
"205 240 LINE"
);
}
);
width = 567;
}
);
rightMetricsKey = o;
unicode = 044D;
},
{
color = 4;
glyphname = "tshe-cy";
lastChange = "2016-08-18 22:35:31 +0000";
layers = (
{
layerId = "D0976A8A-D56C-4C8B-8CB2-75EC6352B123";
paths = (
{
closed = 1;
nodes = (
"90 0 LINE",
"208 557 LINE",
"437 557 LINE",
"449 613 LINE",
"220 613 LINE",
"245 730 LINE",
"157 730 LINE",
"132 613 LINE",
"55 613 LINE",
"44 557 LINE",
"120 557 LINE",
"2 0 LINE"
);
},
{
closed = 1;
nodes = (
"461 0 LINE",
"516 264 LINE SMOOTH",
"543 394 OFFCURVE",
"498 465 OFFCURVE",
"369 465 CURVE SMOOTH",
"282 465 OFFCURVE",
"211 425 OFFCURVE",
"158 356 CURVE",
"144 261 LINE",
"186 340 OFFCURVE",
"246 386 OFFCURVE",
"329 386 CURVE SMOOTH",
"415 386 OFFCURVE",
"443 337 OFFCURVE",
"424 244 CURVE SMOOTH",
"373 0 LINE"
);
}
);
width = 592;
}
);
leftMetricsKey = hbar;
rightMetricsKey = n;
unicode = 045B;
},
{
color = 4;
glyphname = "iu-cy";
lastChange = "2016-08-18 22:35:31 +0000";
layers = (
{
components = (
{
name = "o-cy";
transform = "{1, 0, 0, 1, 217, 0}";
}
);
layerId = "D0976A8A-D56C-4C8B-8CB2-75EC6352B123";
paths = (
{
closed = 1;
nodes = (
"101 0 LINE",
"148 222 LINE",
"279 222 LINE",
"296 299 LINE",
"164 299 LINE",
"211 522 LINE",
"123 522 LINE",
"13 0 LINE"
);
}
);
width = 826;
}
);
leftMetricsKey = "en-cy";
rightMetricsKey = o;
unicode = 044E;
},
{
color = 5;
glyphname = "ia-cy";
lastChange = "2016-08-18 22:35:31 +0000";
layers = (
{
layerId = "D0976A8A-D56C-4C8B-8CB2-75EC6352B123";
paths = (
{
closed = 1;
nodes = (
"98 0 LINE",
"268 196 LINE",
"369 196 LINE",
"327 0 LINE",
"412 0 LINE",
"515 483 LINE",
"490 495 OFFCURVE",
"424 525 OFFCURVE",
"323 525 CURVE SMOOTH",
"190 525 OFFCURVE",
"110 465 OFFCURVE",
"94 377 CURVE SMOOTH",
"76 291 OFFCURVE",
"117 236 OFFCURVE",
"191 218 CURVE",
"-1 0 LINE"
);
},
{
closed = 1;
nodes = (
"189 261 OFFCURVE",
"161 308 OFFCURVE",
"173 364 CURVE",
"184 419 OFFCURVE",
"233 457 OFFCURVE",
"314 457 CURVE SMOOTH",
"377 457 OFFCURVE",
"420 435 OFFCURVE",
"420 435 CURVE",
"383 261 LINE",
"268 261 LINE SMOOTH"
);
}
);
width = 536;
}
);
rightMetricsKey = "en-cy";
unicode = 044F;
},
{
color = 4;
glyphname = "dje-cy";
lastChange = "2016-08-18 22:35:31 +0000";
layers = (
{
layerId = "D0976A8A-D56C-4C8B-8CB2-75EC6352B123";
paths = (
{
closed = 1;
nodes = (
"109 0 LINE",
"239 557 LINE",
"463 557 LINE",
"475 613 LINE",
"251 613 LINE",
"278 730 LINE",
"190 730 LINE",
"163 613 LINE",
"82 613 LINE",
"70 557 LINE",
"151 557 LINE",
"21 0 LINE"
);
},
{
closed = 1;
nodes = (
"404 -171 OFFCURVE",
"493 -13 OFFCURVE",
"528 155 CURVE SMOOTH",
"569 354 OFFCURVE",
"532 465 OFFCURVE",
"390 465 CURVE SMOOTH",
"306 465 OFFCURVE",
"237 425 OFFCURVE",
"184 355 CURVE",
"165 256 LINE",
"206 336 OFFCURVE",
"269 386 OFFCURVE",
"349 386 CURVE SMOOTH",
"449 386 OFFCURVE",
"474 319 OFFCURVE",
"439 148 CURVE SMOOTH",
"409 3 OFFCURVE",
"342 -99 OFFCURVE",
"263 -99 CURVE SMOOTH",
"234 -99 OFFCURVE",
"213 -84 OFFCURVE",
"195 -71 CURVE",
"127 -116 LINE",
"149 -132 OFFCURVE",
"189 -175 OFFCURVE",
"258 -171 CURVE SMOOTH"
);
}
);
width = 627;
}
);
leftMetricsKey = hbar;
rightMetricsKey = "tshe-cy";
unicode = 0452;
},
{
color = 5;
glyphname = "yat-cy";
lastChange = "2016-08-18 22:35:31 +0000";
layers = (
{
layerId = "D0976A8A-D56C-4C8B-8CB2-75EC6352B123";
paths = (
{
closed = 1;
nodes = (
"587 -8 OFFCURVE",
"668 41 OFFCURVE",
"686 153 CURVE SMOOTH",
"705 274 OFFCURVE",
"628 331 OFFCURVE",
"507 324 CURVE SMOOTH",
"425 320 LINE",
"460 454 OFFCURVE",
"437 529 OFFCURVE",
"330 529 CURVE SMOOTH",
"265 529 OFFCURVE",
"219 496 OFFCURVE",
"181 445 CURVE",
"197 522 LINE",
"115 522 LINE",
"4 0 LINE",
"92 0 LINE",
"168 360 LINE",
"208 425 OFFCURVE",
"248 455 OFFCURVE",
"295 455 CURVE SMOOTH",
"354 455 OFFCURVE",
"370 411 OFFCURVE",
"341 298 CURVE SMOOTH",
"319 205 LINE SMOOTH",
"286 61 OFFCURVE",
"360 -8 OFFCURVE",
"475 -8 CURVE SMOOTH"
);
},
{
closed = 1;
nodes = (
"419 66 OFFCURVE",
"375 108 OFFCURVE",
"398 196 CURVE SMOOTH",
"412 259 LINE",
"496 264 LINE SMOOTH",
"584 269 OFFCURVE",
"617 224 OFFCURVE",
"608 165 CURVE SMOOTH",
"597 100 OFFCURVE",
"553 66 OFFCURVE",
"484 66 CURVE SMOOTH"
);
}
);
width = 756;
}
);
leftMetricsKey = n;
rightMetricsKey = "softsign-cy";
unicode = 0463;
},
{
color = 4;
glyphname = "yusbig-cy";
lastChange = "2016-08-18 22:35:31 +0000";
layers = (
{
layerId = "D0976A8A-D56C-4C8B-8CB2-75EC6352B123";
paths = (
{
closed = 1;
nodes = (
"72 0 LINE",
"287 228 LINE",
"340 228 LINE",
"292 0 LINE",
"382 0 LINE",
"430 228 LINE",
"485 228 LINE",
"610 0 LINE",
"715 0 LINE",
"552 269 LINE",
"789 522 LINE",
"82 522 LINE",
"226 269 LINE",
"-35 0 LINE"
);
},
{
closed = 1;
nodes = (
"203 473 LINE",
"648 473 LINE",
"489 297 LINE",
"290 297 LINE"
);
}
);
width = 778;
}
);
rightMetricsKey = "ka-cy";
unicode = 046B;
},
{
color = 9;
glyphname = "izhitsa-cy";
lastChange = "2016-08-18 22:35:31 +0000";
layers = (
{
layerId = "D0976A8A-D56C-4C8B-8CB2-75EC6352B123";
paths = (
{
closed = 1;
nodes = (
"210 0 LINE",
"314 114 OFFCURVE",
"393 254 OFFCURVE",
"440 363 CURVE SMOOTH",
"468 433 OFFCURVE",
"494 458 OFFCURVE",
"538 458 CURVE",
"551 528 LINE",
"450 528 OFFCURVE",
"408 493 OFFCURVE",
"361 368 CURVE SMOOTH",
"328 283 OFFCURVE",
"269 173 OFFCURVE",
"193 80 CURVE",
"147 522 LINE",
"56 522 LINE",
"127 0 LINE"
);
}
);
width = 492;
}
);
leftMetricsKey = v;
unicode = 0475;
},
{
color = 4;
glyphname = "ghestroke-cy";
lastChange = "2016-08-18 22:35:31 +0000";
layers = (
{
layerId = "D0976A8A-D56C-4C8B-8CB2-75EC6352B123";
paths = (
{
closed = 1;
nodes = (
"141 0 LINE",
"235 444 LINE",
"469 444 LINE",
"485 522 LINE",
"163 522 LINE",
"53 0 LINE"
);
},
{
closed = 1;
nodes = (
"378 196 LINE",
"390 253 LINE",
"4 253 LINE",
"-8 196 LINE"
);
}
);
width = 461;
}
);
rightMetricsKey = "ge-cy";
unicode = 0493;
},
{
color = 4;
glyphname = "ghemiddlehook-cy";
lastChange = "2016-08-18 22:35:31 +0000";
layers = (
{
layerId = "D0976A8A-D56C-4C8B-8CB2-75EC6352B123";
paths = (
{
closed = 1;
nodes = (
"100 0 LINE",
"195 444 LINE",
"428 444 LINE",
"445 522 LINE",
"123 522 LINE",
"12 0 LINE"
);
},
{
closed = 1;
nodes = (
"358 -187 OFFCURVE",
"422 -86 OFFCURVE",
"449 83 CURVE SMOOTH",
"476 248 OFFCURVE",
"424 332 OFFCURVE",
"294 332 CURVE SMOOTH",
"231 332 OFFCURVE",
"182 311 OFFCURVE",
"139 276 CURVE",
"126 207 LINE",
"161 240 OFFCURVE",
"201 259 OFFCURVE",
"254 259 CURVE SMOOTH",
"349 259 OFFCURVE",
"383 202 OFFCURVE",
"363 77 CURVE SMOOTH",
"343 -46 OFFCURVE",
"296 -114 OFFCURVE",
"206 -114 CURVE SMOOTH",
"180 -114 OFFCURVE",
"160 -103 OFFCURVE",
"149 -95 CURVE",
"82 -140 LINE",
"94 -151 OFFCURVE",
"131 -187 OFFCURVE",
"201 -187 CURVE SMOOTH"
);
}
);
width = 524;
}
);
leftMetricsKey = "en-cy";
rightMetricsKey = "tse-cy";
unicode = 0495;
},
{
color = 9;
glyphname = "zhedescender-cy";
lastChange = "2016-08-18 22:35:31 +0000";
layers = (
{
components = (
{
name = "zhe-cy";
}
);
layerId = "D0976A8A-D56C-4C8B-8CB2-75EC6352B123";
paths = (
{
closed = 1;
nodes = (
"710 -123 LINE",
"752 77 LINE",
"627 77 LINE",
"613 0 LINE",
"656 0 LINE",
"630 -123 LINE"
);
}
);
width = 814;
}
);
leftMetricsKey = "zhe-cy";
rightMetricsKey = "=tse-cy-10";
unicode = 0497;
},
{
color = 4;
glyphname = "zedescender-cy";
lastChange = "2016-08-18 22:35:31 +0000";
layers = (
{
components = (
{
name = "ze-cy";
}
);
layerId = "D0976A8A-D56C-4C8B-8CB2-75EC6352B123";
paths = (
{
closed = 1;
nodes = (
"184 -123 LINE",
"217 36 LINE",
"141 35 LINE",
"108 -123 LINE"
);
}
);
width = 458;
}
);
unicode = 0499;
},
{
color = 9;
glyphname = "kadescender-cy";
lastChange = "2016-08-18 22:35:31 +0000";
layers = (
{
components = (
{
name = "ka-cy";
}
);
layerId = "D0976A8A-D56C-4C8B-8CB2-75EC6352B123";
paths = (
{
closed = 1;
nodes = (
"445 -123 LINE",
"488 77 LINE",
"363 77 LINE",
"348 0 LINE",
"392 0 LINE",
"365 -123 LINE"
);
}
);
width = 555;
}
);
leftMetricsKey = "en-cy";
unicode = 049B;
},
{
color = 4;
glyphname = "kaverticalstroke-cy";
lastChange = "2016-08-18 22:35:31 +0000";
layers = (
{
components = (
{
name = "verticalbar-cy";
transform = "{1, 0, 0, 1, 159, 44}";
}
);
layerId = "D0976A8A-D56C-4C8B-8CB2-75EC6352B123";
paths = (
{
closed = 1;
nodes = (
"100 0 LINE",
"150 232 LINE",
"261 232 LINE",
"381 0 LINE",
"477 0 LINE",
"338 267 LINE",
"414 321 OFFCURVE",
"485 407 OFFCURVE",
"554 522 CURVE",
"462 522 LINE",
"404 426 OFFCURVE",
"344 346 OFFCURVE",
"270 301 CURVE",
"164 301 LINE",
"211 522 LINE",
"123 522 LINE",
"13 0 LINE"
);
}
);
width = 544;
}
);
leftMetricsKey = "en-cy";
rightMetricsKey = "ka-cy";
unicode = 049D;
},
{
color = 9;
glyphname = "kabashkir-cy";
lastChange = "2016-08-18 22:35:31 +0000";
layers = (
{
components = (
{
name = "ka-cy";
transform = "{1, 0, 0, 1, 86, 0}";
}
);
layerId = "D0976A8A-D56C-4C8B-8CB2-75EC6352B123";
paths = (
{
closed = 1;
nodes = (
"202 449 LINE",
"293 522 LINE",
"75 522 LINE",
"60 449 LINE"
);
}
);
width = 594;
}
);
leftMetricsKey = "hardsign-cy";
rightMetricsKey = "ka-cy";
unicode = 04A1;
},
{
color = 4;
glyphname = "esdescender-cy";
lastChange = "2016-08-18 22:35:31 +0000";
layers = (
{
components = (
{
name = "es-cy";
transform = "{1, 0, 0, 1, -1, 0}";
}
);
layerId = "D0976A8A-D56C-4C8B-8CB2-75EC6352B123";
paths = (
{
closed = 1;
nodes = (
"239 -123 LINE",
"273 36 LINE",
"197 35 LINE",
"163 -123 LINE"
);
}
);
width = 539;
}
);
leftMetricsKey = o;
rightMetricsKey = c;
unicode = 04AB;
},
{
color = 4;
glyphname = "ustrait-cy";
lastChange = "2016-08-18 22:35:31 +0000";
layers = (
{
layerId = "D0976A8A-D56C-4C8B-8CB2-75EC6352B123";
paths = (
{
closed = 1;
nodes = (
"171 -213 LINE",
"214 1 LINE",
"355 169 OFFCURVE",
"449 348 OFFCURVE",
"501 522 CURVE",
"421 522 LINE",
"372 374 OFFCURVE",
"305 224 OFFCURVE",
"194 76 CURVE",
"147 522 LINE",
"56 522 LINE",
"129 0 LINE",
"83 -213 LINE"
);
}
);
width = 490;
}
);
leftMetricsKey = v;
rightMetricsKey = v;
unicode = 04AF;
},
{
color = 4;
glyphname = "ustraitstroke-cy";
lastChange = "2016-08-18 22:35:31 +0000";
layers = (
{
layerId = "D0976A8A-D56C-4C8B-8CB2-75EC6352B123";
paths = (
{
closed = 1;
nodes = (
"174 -213 LINE",
"208 -32 LINE",
"320 -32 LINE",
"329 12 LINE",
"225 12 LINE",
"360 177 OFFCURVE",
"450 352 OFFCURVE",
"501 522 CURVE",
"421 522 LINE",
"372 374 OFFCURVE",
"305 224 OFFCURVE",
"194 76 CURVE",
"147 522 LINE",
"56 522 LINE",
"126 12 LINE",
"16 12 LINE",
"7 -32 LINE",
"120 -32 LINE",
"86 -213 LINE"
);
}
);
width = 490;
}
);
leftMetricsKey = v;
rightMetricsKey = v;
unicode = 04B1;
},
{
color = 4;
glyphname = "cheverticalstroke-cy";
lastChange = "2016-08-18 22:35:31 +0000";
layers = (
{
components = (
{
name = "verticalbar-cy";
transform = "{1, 0, 0, 1, 183, 2}";
}
);
layerId = "D0976A8A-D56C-4C8B-8CB2-75EC6352B123";
paths = (
{
closed = 1;
nodes = (
"417 0 LINE",
"528 522 LINE",
"439 522 LINE",
"386 275 LINE",
"353 259 OFFCURVE",
"299 248 OFFCURVE",
"252 248 CURVE SMOOTH",
"180 248 OFFCURVE",
"149 284 OFFCURVE",
"166 370 CURVE SMOOTH",
"201 522 LINE",
"112 522 LINE",
"75 358 LINE SMOOTH",
"50 239 OFFCURVE",
"104 180 OFFCURVE",
"216 180 CURVE SMOOTH",
"274 180 OFFCURVE",
"322 189 OFFCURVE",
"372 209 CURVE",
"328 0 LINE"
);
}
);
width = 540;
}
);
leftMetricsKey = "che-cy";
rightMetricsKey = "en-cy";
unicode = 04B9;
},
{
color = 9;
glyphname = "chekhakassian-cy";
lastChange = "2016-08-18 22:35:31 +0000";
layers = (
{
components = (
{
name = "che-cy";
transform = "{1, 0, 0, 1, 14, 0}";
}
);
layerId = "D0976A8A-D56C-4C8B-8CB2-75EC6352B123";
paths = (
{
closed = 1;
nodes = (
"311 -134 LINE",
"339 0 LINE",
"418 0 LINE",
"429 52 LINE",
"269 52 LINE",
"231 -134 LINE"
);
}
);
width = 565;
}
);
leftMetricsKey = "Che-cy";
rightMetricsKey = "En-cy";
unicode = 04CC;
},
{
color = 4;
glyphname = "obarred-cy";
lastChange = "2016-08-18 22:35:31 +0000";
layers = (
{
components = (
{
name = "o-cy";
transform = "{1, 0, 0, 1, -7, 0}";
}
);
layerId = "D0976A8A-D56C-4C8B-8CB2-75EC6352B123";
paths = (
{
closed = 1;
nodes = (
"518 244 LINE",
"521 286 LINE",
"86 286 LINE",
"84 244 LINE"
);
}
);
width = 594;
}
);
leftMetricsKey = o;
rightMetricsKey = o;
unicode = 04E9;
},
{
color = 9;
glyphname = "gedescender-cy";
lastChange = "2016-08-18 22:35:31 +0000";
layers = (
{
components = (
{
name = "ge-cy";
}
);
layerId = "D0976A8A-D56C-4C8B-8CB2-75EC6352B123";
paths = (
{
closed = 1;
nodes = (
"407 -94 LINE",
"443 76 LINE",
"355 30 LINE",
"327 -94 LINE"
);
}
);
width = 522;
}
);
leftMetricsKey = "ge-cy";
rightMetricsKey = "ge-cy";
unicode = 04F7;
},
{
color = 4;
glyphname = "qa-cy";
lastChange = "2016-08-18 22:38:25 +0000";
layers = (
{
layerId = "D0976A8A-D56C-4C8B-8CB2-75EC6352B123";
paths = (
{
closed = 1;
nodes = (
"194 -10 CURVE SMOOTH",
"269 -10 OFFCURVE",
"340 29 OFFCURVE",
"400 103 CURVE",
"348 -142 LINE SMOOTH",
"347 -147 OFFCURVE",
"346 -152 OFFCURVE",
"346 -157 CURVE SMOOTH",
"346 -190 OFFCURVE",
"371 -212 OFFCURVE",
"407 -212 CURVE SMOOTH",
"420 -212 OFFCURVE",
"436 -211 OFFCURVE",
"449 -209 CURVE",
"465 -133 LINE",
"450 -132 OFFCURVE",
"443 -127 OFFCURVE",
"443 -114 CURVE SMOOTH",
"443 -110 OFFCURVE",
"444 -106 OFFCURVE",
"445 -101 CURVE SMOOTH",
"577 522 LINE",
"499 522 LINE",
"478 423 LINE",
"455 486 OFFCURVE",
"398 531 OFFCURVE",
"321 531 CURVE SMOOTH",
"170 531 OFFCURVE",
"22 378 OFFCURVE",
"22 203 CURVE SMOOTH",
"22 87 OFFCURVE",
"84 -10 OFFCURVE"
);
},
{
closed = 1;
nodes = (
"240 66 CURVE SMOOTH",
"161 66 OFFCURVE",
"114 134 OFFCURVE",
"114 218 CURVE SMOOTH",
"114 335 OFFCURVE",
"215 455 OFFCURVE",
"325 455 CURVE SMOOTH",
"391 455 OFFCURVE",
"448 396 OFFCURVE",
"448 328 CURVE",
"416 178 LINE",
"371 116 OFFCURVE",
"309 66 OFFCURVE"
);
}
);
width = 596;
}
);
unicode = 051B;
},
{
color = 4;
glyphname = "ve-cy.loclBGR";
lastChange = "2016-08-18 22:35:31 +0000";
layers = (
{
layerId = "D0976A8A-D56C-4C8B-8CB2-75EC6352B123";
paths = (
{
closed = 1;
nodes = (
"383 -6 OFFCURVE",
"486 60 OFFCURVE",
"506 207 CURVE SMOOTH",
"525 347 OFFCURVE",
"451 411 OFFCURVE",
"333 415 CURVE",
"319 386 LINE",
"431 395 OFFCURVE",
"498 453 OFFCURVE",
"511 549 CURVE SMOOTH",
"525 650 OFFCURVE",
"458 714 OFFCURVE",
"349 714 CURVE SMOOTH",
"212 714 OFFCURVE",
"138 636 OFFCURVE",
"112 511 CURVE SMOOTH",
"53 231 LINE SMOOTH",
"17 58 OFFCURVE",
"115 -6 OFFCURVE",
"251 -6 CURVE SMOOTH"
);
},
{
closed = 1;
nodes = (
"173 68 OFFCURVE",
"112 103 OFFCURVE",
"137 219 CURVE SMOOTH",
"203 529 LINE SMOOTH",
"218 600 OFFCURVE",
"261 646 OFFCURVE",
"340 646 CURVE SMOOTH",
"406 646 OFFCURVE",
"450 607 OFFCURVE",
"439 538 CURVE SMOOTH",
"428 469 OFFCURVE",
"373 429 OFFCURVE",
"298 429 CURVE SMOOTH",
"160 429 LINE",
"144 365 LINE",
"305 365 LINE SMOOTH",
"401 365 OFFCURVE",
"448 314 OFFCURVE",
"433 217 CURVE SMOOTH",
"419 122 OFFCURVE",
"357 68 OFFCURVE",
"260 68 CURVE SMOOTH"
);
}
);
width = 561;
}
);
leftMetricsKey = n;
rightMetricsKey = o;
},
{
color = 9;
glyphname = "zhe-cy.loclBGR";
lastChange = "2016-08-18 22:35:31 +0000";
layers = (
{
layerId = "D0976A8A-D56C-4C8B-8CB2-75EC6352B123";
paths = (
{
closed = 1;
nodes = (
"122 106 OFFCURVE",
"181 187 OFFCURVE",
"267 230 CURVE",
"324 230 LINE",
"275 0 LINE",
"362 0 LINE",
"411 230 LINE",
"489 230 LINE",
"607 0 LINE",
"703 0 LINE",
"564 267 LINE",
"640 321 OFFCURVE",
"708 404 OFFCURVE",
"777 518 CURVE",
"690 525 LINE",
"628 423 OFFCURVE",
"571 348 OFFCURVE",
"499 303 CURVE",
"426 303 LINE",
"516 722 LINE",
"428 722 LINE",
"339 303 LINE",
"270 303 LINE",
"162 525 LINE",
"68 525 LINE",
"197 274 LINE",
"110 220 OFFCURVE",
"38 128 OFFCURVE",
"-32 7 CURVE",
"58 0 LINE"
);
}
);
width = 756;
}
);
},
{
color = 4;
glyphname = "ze-cy.loclBGR";
lastChange = "2016-08-18 22:35:31 +0000";
layers = (
{
layerId = "D0976A8A-D56C-4C8B-8CB2-75EC6352B123";
paths = (
{
closed = 1;
nodes = (
"301 -220 OFFCURVE",
"410 -136 OFFCURVE",
"429 0 CURVE SMOOTH",
"448 134 OFFCURVE",
"374 204 OFFCURVE",
"257 210 CURVE",
"253 190 LINE",
"348 199 OFFCURVE",
"425 256 OFFCURVE",
"438 355 CURVE SMOOTH",
"454 463 OFFCURVE",
"389 529 OFFCURVE",
"274 529 CURVE SMOOTH",
"180 529 OFFCURVE",
"104 481 OFFCURVE",
"58 409 CURVE",
"121 375 LINE",
"159 434 OFFCURVE",
"208 457 OFFCURVE",
"261 457 CURVE SMOOTH",
"330 457 OFFCURVE",
"371 416 OFFCURVE",
"361 347 CURVE SMOOTH",
"351 272 OFFCURVE",
"291 230 OFFCURVE",
"215 230 CURVE SMOOTH",
"159 230 LINE",
"145 162 LINE",
"221 162 LINE SMOOTH",
"320 162 OFFCURVE",
"366 103 OFFCURVE",
"353 12 CURVE SMOOTH",
"339 -83 OFFCURVE",
"279 -148 OFFCURVE",
"179 -148 CURVE SMOOTH",
"116 -148 OFFCURVE",
"66 -119 OFFCURVE",
"47 -61 CURVE",
"-28 -93 LINE",
"-3 -173 OFFCURVE",
"73 -220 OFFCURVE",
"171 -220 CURVE SMOOTH"
);
}
);
width = 531;
}
);
rightMetricsKey = "ze-cy";
},
{
color = 4;
glyphname = "che-cy.loclBGR";
lastChange = "2016-08-18 22:35:31 +0000";
layers = (
{
layerId = "D0976A8A-D56C-4C8B-8CB2-75EC6352B123";
paths = (
{
closed = 1;
nodes = (
"379 0 LINE",
"490 522 LINE",
"404 522 LINE",
"342 231 LINE",
"313 216 OFFCURVE",
"265 204 OFFCURVE",
"222 204 CURVE SMOOTH",
"148 204 OFFCURVE",
"112 240 OFFCURVE",
"132 326 CURVE SMOOTH",
"175 522 LINE",
"86 522 LINE",
"41 315 LINE SMOOTH",
"15 196 OFFCURVE",
"72 137 OFFCURVE",
"185 137 CURVE SMOOTH",
"238 137 OFFCURVE",
"282 145 OFFCURVE",
"327 164 CURVE",
"291 0 LINE"
);
}
);
width = 514;
}
);
},
{
color = 4;
glyphname = "iu-cy.loclBGR";
lastChange = "2016-08-18 22:35:31 +0000";
layers = (
{
components = (
{
name = "o-cy";
transform = "{1, 0, 0, 1, 204, 0}";
}
);
layerId = "D0976A8A-D56C-4C8B-8CB2-75EC6352B123";
paths = (
{
closed = 1;
nodes = (
"92 0 LINE",
"140 226 LINE",
"270 226 LINE",
"287 295 LINE",
"154 295 LINE",
"247 730 LINE",
"159 730 LINE",
"4 0 LINE"
);
}
);
width = 813;
}
);
leftMetricsKey = h;
rightMetricsKey = o;
},
{
color = 4;
glyphname = "ghestroke-cy.loclBSH";
lastChange = "2016-08-18 22:35:31 +0000";
layers = (
{
layerId = "D0976A8A-D56C-4C8B-8CB2-75EC6352B123";
paths = (
{
closed = 1;
nodes = (
"125 0 LINE",
"219 444 LINE",
"453 444 LINE",
"469 522 LINE",
"148 522 LINE",
"37 0 LINE"
);
},
{
closed = 1;
nodes = (
"344 196 LINE",
"356 253 LINE",
"91 253 LINE",
"79 196 LINE"
);
}
);
width = 477;
}
);
},
{
color = 9;
glyphname = "be-cy.loclSRB";
lastChange = "2016-08-18 22:35:31 +0000";
layers = (
{
layerId = "D0976A8A-D56C-4C8B-8CB2-75EC6352B123";
paths = (
{
closed = 1;
nodes = (
"410 -10 OFFCURVE",
"537 118 OFFCURVE",
"544 268 CURVE SMOOTH",
"550 382 OFFCURVE",
"497 489 OFFCURVE",
"339 489 CURVE SMOOTH",
"158 489 OFFCURVE",
"46 351 OFFCURVE",
"39 211 CURVE SMOOTH",
"31 87 OFFCURVE",
"106 -9 OFFCURVE",
"246 -9 CURVE SMOOTH"
);
},
{
closed = 1;
nodes = (
"168 66 OFFCURVE",
"126 127 OFFCURVE",
"129 212 CURVE SMOOTH",
"131 322 OFFCURVE",
"218 417 OFFCURVE",
"328 417 CURVE SMOOTH",
"418 417 OFFCURVE",
"458 351 OFFCURVE",
"455 266 CURVE SMOOTH",
"452 156 OFFCURVE",
"362 66 OFFCURVE",
"257 65 CURVE SMOOTH"
);
},
{
closed = 1;
nodes = (
"315 483 LINE",
"226 483 OFFCURVE",
"184 517 OFFCURVE",
"194 571 CURVE SMOOTH",
"203 619 OFFCURVE",
"244 641 OFFCURVE",
"319 641 CURVE SMOOTH",
"555 641 LINE",
"570 710 LINE",
"319 710 LINE SMOOTH",
"207 710 OFFCURVE",
"137 670 OFFCURVE",
"122 590 CURVE SMOOTH",
"104 499 OFFCURVE",
"180 442 OFFCURVE",
"308 442 CURVE"
);
}
);
width = 589;
}
);
leftMetricsKey = "=o+20";
rightMetricsKey = o;
},
{
color = 4;
glyphname = "Enghe-cy";
lastChange = "2016-08-18 22:35:31 +0000";
layers = (
{
components = (
{
name = H;
}
);
layerId = "D0976A8A-D56C-4C8B-8CB2-75EC6352B123";
paths = (
{
closed = 1;
nodes = (
"1020 630 LINE",
"1037 710 LINE",
"628 710 LINE",
"697 630 LINE"
);
}
);
width = 964;
}
);
leftMetricsKey = "En-cy";
rightMetricsKey = "Ge-cy";
unicode = 04A4;
},
{
color = 4;
glyphname = "enghe-cy";
lastChange = "2016-08-18 22:35:31 +0000";
layers = (
{
components = (
{
name = "en-cy";
}
);
layerId = "D0976A8A-D56C-4C8B-8CB2-75EC6352B123";
paths = (
{
closed = 1;
nodes = (
"788 444 LINE",
"805 522 LINE",
"487 522 LINE",
"555 444 LINE"
);
}
);
width = 781;
}
);
leftMetricsKey = "en-cy";
rightMetricsKey = "ge-cy";
unicode = 04A5;
},
{
glyphname = Delta;
lastChange = "2016-08-18 22:35:31 +0000";
layers = (
{
layerId = "D0976A8A-D56C-4C8B-8CB2-75EC6352B123";
paths = (
{
closed = 1;
nodes = (
"-20 0 LINE",
"592 0 LINE",
"592 72 LINE",
"324 710 LINE",
"250 710 LINE",
"-20 72 LINE"
);
},
{
closed = 1;
nodes = (
"69 80 LINE",
"287 607 LINE",
"506 80 LINE"
);
}
);
width = 630;
}
);
unicode = 0394;
},
{
glyphname = Omega;
lastChange = "2016-08-18 22:35:31 +0000";
layers = (
{
layerId = "D0976A8A-D56C-4C8B-8CB2-75EC6352B123";
paths = (
{
closed = 1;
nodes = (
"52 0 LINE",
"357 0 LINE",
"357 64 LINE",
"222 98 OFFCURVE",
"148 241 OFFCURVE",
"148 369 CURVE SMOOTH",
"148 500 OFFCURVE",
"244 633 OFFCURVE",
"400 633 CURVE SMOOTH",
"557 633 OFFCURVE",
"652 500 OFFCURVE",
"652 369 CURVE SMOOTH",
"652 241 OFFCURVE",
"578 98 OFFCURVE",
"443 64 CURVE",
"443 0 LINE",
"748 0 LINE",
"748 64 LINE",
"557 64 LINE",
"672 120 OFFCURVE",
"741 238 OFFCURVE",
"741 369 CURVE SMOOTH",
"741 551 OFFCURVE",
"596 715 OFFCURVE",
"400 715 CURVE SMOOTH",
"204 715 OFFCURVE",
"59 551 OFFCURVE",
"59 369 CURVE SMOOTH",
"59 238 OFFCURVE",
"128 120 OFFCURVE",
"243 64 CURVE",
"52 64 LINE"
);
}
);
width = 824;
}
);
unicode = 03A9;
},
{
glyphname = mu;
lastChange = "2016-08-18 22:35:31 +0000";
layers = (
{
layerId = "D0976A8A-D56C-4C8B-8CB2-75EC6352B123";
paths = (
{
closed = 1;
nodes = (
"-42 -212 LINE",
"46 -212 LINE",
"101 67 LINE",
"106 16 OFFCURVE",
"137 -10 OFFCURVE",
"190 -10 CURVE SMOOTH",
"264 -10 OFFCURVE",
"348 48 OFFCURVE",
"391 112 CURVE",
"379 49 LINE SMOOTH",
"379 28 OFFCURVE",
"392 16 OFFCURVE",
"417 14 CURVE SMOOTH",
"426 3 OFFCURVE",
"443 -3 OFFCURVE",
"470 0 CURVE",
"487 76 LINE",
"471 76 OFFCURVE",
"464 83 OFFCURVE",
"464 95 CURVE SMOOTH",
"464 99 OFFCURVE",
"465 104 OFFCURVE",
"466 108 CURVE SMOOTH",
"554 522 LINE",
"466 522 LINE",
"396 195 LINE",
"350 115 OFFCURVE",
"275 66 OFFCURVE",
"210 66 CURVE SMOOTH",
"157 66 OFFCURVE",
"131 96 OFFCURVE",
"131 157 CURVE SMOOTH",
"131 176 OFFCURVE",
"134 200 OFFCURVE",
"140 226 CURVE SMOOTH",
"203 522 LINE",
"114 522 LINE"
);
}
);
width = 587;
}
);
unicode = 03BC;
},
{
glyphname = one;
lastChange = "2016-08-18 22:35:31 +0000";
layers = (
{
layerId = "D0976A8A-D56C-4C8B-8CB2-75EC6352B123";
paths = (
{
closed = 1;
nodes = (
"0 0 LINE",
"345 0 LINE",
"362 80 LINE",
"241 80 LINE",
"345 571 LINE",
"256 571 LINE",
"245 556 OFFCURVE",
"136 476 OFFCURVE",
"80 476 CURVE",
"62 392 LINE",
"113 392 OFFCURVE",
"206 439 OFFCURVE",
"234 470 CURVE",
"151 80 LINE",
"16 80 LINE"
);
}
);
width = 425;
}
);
unicode = 0031;
},
{
glyphname = four;
lastChange = "2016-08-18 22:35:31 +0000";
layers = (
{
layerId = "D0976A8A-D56C-4C8B-8CB2-75EC6352B123";
paths = (
{
closed = 1;
nodes = (
"234 -127 LINE",
"322 -127 LINE",
"357 42 LINE",
"441 42 LINE",
"458 122 LINE",
"374 122 LINE",
"470 571 LINE",
"409 571 LINE",
"-17 120 LINE",
"-33 42 LINE",
"269 42 LINE"
);
},
{
closed = 1;
nodes = (
"75 122 LINE",
"362 435 LINE",
"295 122 LINE"
);
}
);
width = 527;
}
);
unicode = 0034;
},
{
glyphname = seven;
lastChange = "2016-08-18 22:35:31 +0000";
layers = (
{
layerId = "D0976A8A-D56C-4C8B-8CB2-75EC6352B123";
paths = (
{
closed = 1;
nodes = (
"-9 -127 LINE",
"90 -127 LINE",
"581 583 LINE",
"99 583 LINE",
"81 502 LINE",
"423 502 LINE"
);
}
);
width = 539;
}
);
unicode = 0037;
},
{
glyphname = one.denominator;
lastChange = "2016-08-18 22:35:31 +0000";
layers = (
{
layerId = "D0976A8A-D56C-4C8B-8CB2-75EC6352B123";
paths = (
{
closed = 1;
nodes = (
"-17 0 LINE",
"207 0 LINE",
"218 54 LINE",
"137 54 LINE",
"213 411 LINE",
"158 411 LINE",
"155 408 OFFCURVE",
"89 355 OFFCURVE",
"44 355 CURVE",
"32 300 LINE",
"66 300 OFFCURVE",
"126 331 OFFCURVE",
"144 349 CURVE",
"82 54 LINE",
"-5 54 LINE"
);
}
);
width = 288;
}
);
},
{
glyphname = four.denominator;
lastChange = "2016-08-18 22:35:31 +0000";
layers = (
{
layerId = "D0976A8A-D56C-4C8B-8CB2-75EC6352B123";
paths = (
{
closed = 1;
nodes = (
"174 0 LINE",
"229 0 LINE",
"250 100 LINE",
"306 100 LINE",
"317 154 LINE",
"262 154 LINE",
"315 406 LINE",
"277 406 LINE",
"-7 153 LINE",
"-19 100 LINE",
"195 100 LINE"
);
},
{
closed = 1;
nodes = (
"49 154 LINE",
"247 334 LINE",
"208 154 LINE"
);
}
);
width = 378;
}
);
},
{
glyphname = seven.denominator;
lastChange = "2016-08-18 22:35:31 +0000";
layers = (
{
layerId = "D0976A8A-D56C-4C8B-8CB2-75EC6352B123";
paths = (
{
closed = 1;
nodes = (
"-11 0 LINE",
"51 0 LINE",
"365 406 LINE",
"45 406 LINE",
"34 351 LINE",
"267 351 LINE"
);
}
);
width = 350;
}
);
},
{
glyphname = one.lnum;
lastChange = "2016-08-18 22:35:31 +0000";
layers = (
{
layerId = "D0976A8A-D56C-4C8B-8CB2-75EC6352B123";
paths = (
{
closed = 1;
nodes = (
"-2 0 LINE",
"337 0 LINE",
"354 80 LINE",
"234 80 LINE",
"370 718 LINE",
"279 718 LINE",
"277 714 OFFCURVE",
"175 621 OFFCURVE",
"108 621 CURVE",
"91 539 LINE",
"142 539 OFFCURVE",
"233 594 OFFCURVE",
"260 625 CURVE",
"145 80 LINE",
"15 80 LINE"
);
}
);
width = 415;
}
);
},
{
glyphname = four.lnum;
lastChange = "2016-08-18 22:35:31 +0000";
layers = (
{
layerId = "D0976A8A-D56C-4C8B-8CB2-75EC6352B123";
paths = (
{
closed = 1;
nodes = (
"364 0 LINE",
"403 181 LINE",
"487 181 LINE",
"504 261 LINE",
"420 261 LINE",
"515 710 LINE",
"455 710 LINE",
"18 260 LINE",
"1 181 LINE",
"315 181 LINE",
"276 0 LINE"
);
},
{
closed = 1;
nodes = (
"109 261 LINE",
"407 575 LINE",
"340 261 LINE"
);
}
);
width = 546;
}
);
},
{
glyphname = seven.lnum;
lastChange = "2016-08-18 22:35:31 +0000";
layers = (
{
layerId = "D0976A8A-D56C-4C8B-8CB2-75EC6352B123";
paths = (
{
closed = 1;
nodes = (
"5 0 LINE",
"105 0 LINE",
"595 710 LINE",
"113 710 LINE",
"96 629 LINE",
"438 629 LINE"
);
}
);
width = 512;
}
);
},
{
glyphname = one.numerator;
lastChange = "2016-08-18 22:35:31 +0000";
layers = (
{
layerId = "D0976A8A-D56C-4C8B-8CB2-75EC6352B123";
paths = (
{
closed = 1;
nodes = (
"195 375 LINE",
"271 731 LINE",
"215 731 LINE",
"213 728 OFFCURVE",
"153 675 OFFCURVE",
"113 675 CURVE",
"101 620 LINE",
"131 620 OFFCURVE",
"185 652 OFFCURVE",
"202 669 CURVE",
"140 375 LINE",
"63 375 LINE",
"52 320 LINE",
"253 320 LINE",
"264 375 LINE"
);
}
);
width = 269;
}
);
},
{
glyphname = two.numerator;
lastChange = "2016-08-18 22:35:31 +0000";
layers = (
{
layerId = "D0976A8A-D56C-4C8B-8CB2-75EC6352B123";
paths = (
{
closed = 1;
nodes = (
"343 320 LINE",
"355 374 LINE",
"138 374 LINE",
"145 409 OFFCURVE",
"172 453 OFFCURVE",
"254 480 CURVE SMOOTH",
"316 499 OFFCURVE",
"414 529 OFFCURVE",
"414 632 CURVE SMOOTH",
"414 691 OFFCURVE",
"375 731 OFFCURVE",
"293 731 CURVE SMOOTH",
"199 731 OFFCURVE",
"133 681 OFFCURVE",
"115 663 CURVE",
"143 624 LINE",
"168 646 OFFCURVE",
"214 677 OFFCURVE",
"274 677 CURVE SMOOTH",
"326 677 OFFCURVE",
"351 653 OFFCURVE",
"351 620 CURVE SMOOTH",
"351 552 OFFCURVE",
"270 534 OFFCURVE",
"201 508 CURVE SMOOTH",
"109 473 OFFCURVE",
"61 425 OFFCURVE",
"39 320 CURVE"
);
}
);
width = 384;
}
);
},
{
glyphname = four.numerator;
lastChange = "2016-08-18 22:35:31 +0000";
layers = (
{
layerId = "D0976A8A-D56C-4C8B-8CB2-75EC6352B123";
paths = (
{
closed = 1;
nodes = (
"297 325 LINE",
"319 424 LINE",
"375 424 LINE",
"386 478 LINE",
"331 478 LINE",
"384 730 LINE",
"346 730 LINE",
"62 477 LINE",
"50 424 LINE",
"264 424 LINE",
"243 325 LINE"
);
},
{
closed = 1;
nodes = (
"316 658 LINE",
"277 478 LINE",
"118 478 LINE"
);
}
);
width = 379;
}
);
},
{
glyphname = seven.numerator;
lastChange = "2016-08-18 22:35:31 +0000";
layers = (
{
layerId = "D0976A8A-D56C-4C8B-8CB2-75EC6352B123";
paths = (
{
closed = 1;
nodes = (
"58 325 LINE",
"120 325 LINE",
"434 730 LINE",
"114 730 LINE",
"103 675 LINE",
"336 675 LINE"
);
}
);
width = 348;
}
);
},
{
glyphname = oneinferior;
lastChange = "2016-08-18 22:35:31 +0000";
layers = (
{
layerId = "D0976A8A-D56C-4C8B-8CB2-75EC6352B123";
paths = (
{
closed = 1;
nodes = (
"119 -30 LINE",
"195 327 LINE",
"139 327 LINE",
"137 324 OFFCURVE",
"70 271 OFFCURVE",
"26 271 CURVE",
"14 216 LINE",
"48 216 OFFCURVE",
"108 247 OFFCURVE",
"126 265 CURVE",
"64 -30 LINE",
"-23 -30 LINE",
"-35 -84 LINE",
"188 -84 LINE",
"200 -30 LINE"
);
}
);
width = 288;
}
);
unicode = 2081;
},
{
glyphname = twoinferior;
lastChange = "2016-08-18 22:35:31 +0000";
layers = (
{
layerId = "D0976A8A-D56C-4C8B-8CB2-75EC6352B123";
paths = (
{
closed = 1;
nodes = (
"265 -84 LINE",
"277 -30 LINE",
"52 -30 LINE",
"59 5 OFFCURVE",
"86 49 OFFCURVE",
"168 76 CURVE SMOOTH",
"230 95 OFFCURVE",
"328 125 OFFCURVE",
"328 228 CURVE SMOOTH",
"328 287 OFFCURVE",
"289 327 OFFCURVE",
"207 327 CURVE SMOOTH",
"113 327 OFFCURVE",
"47 277 OFFCURVE",
"29 259 CURVE",
"57 219 LINE",
"82 242 OFFCURVE",
"128 273 OFFCURVE",
"188 273 CURVE SMOOTH",
"240 273 OFFCURVE",
"265 249 OFFCURVE",
"265 216 CURVE SMOOTH",
"265 148 OFFCURVE",
"184 130 OFFCURVE",
"115 104 CURVE SMOOTH",
"22 69 OFFCURVE",
"-25 21 OFFCURVE",
"-47 -84 CURVE"
);
}
);
width = 386;
}
);
unicode = 2082;
},
{
glyphname = fourinferior;
lastChange = "2016-08-18 22:35:31 +0000";
layers = (
{
layerId = "D0976A8A-D56C-4C8B-8CB2-75EC6352B123";
paths = (
{
closed = 1;
nodes = (
"210 -84 LINE",
"232 16 LINE",
"288 16 LINE",
"299 70 LINE",
"244 70 LINE",
"297 322 LINE",
"259 322 LINE",
"-25 69 LINE",
"-37 16 LINE",
"177 16 LINE",
"156 -84 LINE"
);
},
{
closed = 1;
nodes = (
"229 250 LINE",
"190 70 LINE",
"31 70 LINE"
);
}
);
width = 378;
}
);
unicode = 2084;
},
{
glyphname = seveninferior;
lastChange = "2016-08-18 22:35:31 +0000";
layers = (
{
layerId = "D0976A8A-D56C-4C8B-8CB2-75EC6352B123";
paths = (
{
closed = 1;
nodes = (
"-29 -84 LINE",
"33 -84 LINE",
"348 322 LINE",
"28 322 LINE",
"16 267 LINE",
"249 267 LINE"
);
}
);
width = 350;
}
);
unicode = 2087;
},
{
glyphname = onesuperior;
lastChange = "2016-08-18 22:35:31 +0000";
layers = (
{
layerId = "D0976A8A-D56C-4C8B-8CB2-75EC6352B123";
paths = (
{
closed = 1;
nodes = (
"212 459 LINE",
"288 815 LINE",
"232 815 LINE",
"231 812 OFFCURVE",
"170 759 OFFCURVE",
"130 759 CURVE",
"118 704 LINE",
"149 704 OFFCURVE",
"202 736 OFFCURVE",
"220 753 CURVE",
"157 459 LINE",
"81 459 LINE",
"69 404 LINE",
"270 404 LINE",
"282 459 LINE"
);
}
);
width = 269;
}
);
unicode = 00B9;
},
{
glyphname = twosuperior;
lastChange = "2016-08-18 22:35:31 +0000";
layers = (
{
layerId = "D0976A8A-D56C-4C8B-8CB2-75EC6352B123";
paths = (
{
closed = 1;
nodes = (
"361 404 LINE",
"373 458 LINE",
"156 458 LINE",
"163 493 OFFCURVE",
"190 537 OFFCURVE",
"272 564 CURVE SMOOTH",
"334 583 OFFCURVE",
"432 613 OFFCURVE",
"432 716 CURVE SMOOTH",
"432 775 OFFCURVE",
"392 815 OFFCURVE",
"310 815 CURVE SMOOTH",
"217 815 OFFCURVE",
"151 765 OFFCURVE",
"133 747 CURVE",
"161 708 LINE",
"185 730 OFFCURVE",
"231 761 OFFCURVE",
"292 761 CURVE SMOOTH",
"343 761 OFFCURVE",
"369 737 OFFCURVE",
"369 704 CURVE SMOOTH",
"369 636 OFFCURVE",
"288 618 OFFCURVE",
"219 592 CURVE SMOOTH",
"127 557 OFFCURVE",
"79 509 OFFCURVE",
"57 404 CURVE"
);
}
);
width = 383;
}
);
unicode = 00B2;
},
{
glyphname = foursuperior;
lastChange = "2016-08-18 22:35:31 +0000";
layers = (
{
layerId = "D0976A8A-D56C-4C8B-8CB2-75EC6352B123";
paths = (
{
closed = 1;
nodes = (
"315 409 LINE",
"337 508 LINE",
"392 508 LINE",
"404 562 LINE",
"348 562 LINE",
"402 814 LINE",
"364 814 LINE",
"79 561 LINE",
"68 508 LINE",
"282 508 LINE",
"261 409 LINE"
);
},
{
closed = 1;
nodes = (
"333 742 LINE",
"295 562 LINE",
"136 562 LINE"
);
}
);
width = 379;
}
);
unicode = 2074;
},
{
glyphname = sevensuperior;
lastChange = "2016-08-18 22:35:31 +0000";
layers = (
{
layerId = "D0976A8A-D56C-4C8B-8CB2-75EC6352B123";
paths = (
{
closed = 1;
nodes = (
"76 409 LINE",
"138 409 LINE",
"452 814 LINE",
"132 814 LINE",
"121 759 LINE",
"355 759 LINE"
);
}
);
width = 350;
}
);
unicode = 2077;
},
{
glyphname = asterisk;
lastChange = "2016-08-18 22:35:31 +0000";
layers = (
{
layerId = "D0976A8A-D56C-4C8B-8CB2-75EC6352B123";
paths = (
{
closed = 1;
nodes = (
"161 513 LINE",
"216 580 LINE",
"244 513 LINE",
"287 538 LINE",
"258 603 LINE",
"328 625 LINE",
"325 667 LINE",
"251 640 LINE",
"270 714 LINE",
"220 714 LINE",
"207 640 LINE",
"146 667 LINE",
"124 625 LINE",
"185 603 LINE",
"129 538 LINE"
);
}
);
width = 318;
}
);
unicode = 002A;
},
{
glyphname = backslash;
lastChange = "2016-08-18 22:35:31 +0000";
layers = (
{
layerId = "D0976A8A-D56C-4C8B-8CB2-75EC6352B123";
paths = (
{
closed = 1;
nodes = (
"105 710 LINE",
"368 0 LINE",
"466 0 LINE",
"204 710 LINE"
);
}
);
width = 553;
}
);
unicode = 005C;
},
{
glyphname = periodcentered;
lastChange = "2016-08-18 22:35:31 +0000";
layers = (
{
layerId = "D0976A8A-D56C-4C8B-8CB2-75EC6352B123";
paths = (
{
closed = 1;
nodes = (
"122 245 LINE",
"147 369 LINE",
"74 369 LINE",
"48 245 LINE"
);
}
);
width = 195;
}
);
unicode = 00B7;
},
{
glyphname = colon;
lastChange = "2016-08-18 22:35:31 +0000";
layers = (
{
layerId = "D0976A8A-D56C-4C8B-8CB2-75EC6352B123";
paths = (
{
closed = 1;
nodes = (
"165 406 LINE",
"189 518 LINE",
"115 518 LINE",
"91 406 LINE"
);
},
{
closed = 1;
nodes = (
"79 0 LINE",
"102 112 LINE",
"29 112 LINE",
"5 0 LINE"
);
}
);
width = 213;
}
);
leftKerningGroup = colon;
rightKerningGroup = colon;
unicode = 003A;
},
{
glyphname = comma;
lastChange = "2016-08-18 22:35:31 +0000";
layers = (
{
layerId = "D0976A8A-D56C-4C8B-8CB2-75EC6352B123";
paths = (
{
closed = 1;
nodes = (
"50 -111 LINE",
"101 -6 LINE",
"126 112 LINE",
"49 112 LINE",
"23 -6 LINE",
"51 -6 LINE",
"9 -111 LINE"
);
}
);
width = 257;
}
);
leftKerningGroup = period;
rightKerningGroup = period;
unicode = 002C;
},
{
glyphname = ellipsis;
lastChange = "2016-08-18 22:35:31 +0000";
layers = (
{
layerId = "D0976A8A-D56C-4C8B-8CB2-75EC6352B123";
paths = (
{
closed = 1;
nodes = (
"73 0 LINE",
"97 112 LINE",
"24 112 LINE",
"0 0 LINE"
);
},
{
closed = 1;
nodes = (
"220 0 LINE",
"243 112 LINE",
"170 112 LINE",
"146 0 LINE"
);
},
{
closed = 1;
nodes = (
"366 0 LINE",
"390 112 LINE",
"317 112 LINE",
"293 0 LINE"
);
}
);
width = 491;
}
);
leftKerningGroup = period;
unicode = 2026;
},
{
glyphname = exclam;
lastChange = "2016-08-18 22:35:31 +0000";
layers = (
{
layerId = "D0976A8A-D56C-4C8B-8CB2-75EC6352B123";
paths = (
{
closed = 1;
nodes = (
"165 240 LINE",
"265 717 LINE",
"177 717 LINE",
"77 240 LINE"
);
},
{
closed = 1;
nodes = (
"113 0 LINE",
"143 124 LINE",
"52 124 LINE",
"25 0 LINE"
);
}
);
width = 266;
}
);
unicode = 0021;
},
{
glyphname = exclamdown;
lastChange = "2016-08-18 22:35:31 +0000";
layers = (
{
layerId = "D0976A8A-D56C-4C8B-8CB2-75EC6352B123";
paths = (
{
closed = 1;
nodes = (
"126 474 LINE",
"25 -3 LINE",
"113 -3 LINE",
"214 474 LINE"
);
},
{
closed = 1;
nodes = (
"177 714 LINE",
"148 590 LINE",
"239 590 LINE",
"265 714 LINE"
);
}
);
width = 267;
}
);
unicode = 00A1;
},
{
glyphname = numbersign;
lastChange = "2016-08-18 22:35:31 +0000";
layers = (
{
layerId = "D0976A8A-D56C-4C8B-8CB2-75EC6352B123";
paths = (
{
closed = 1;
nodes = (
"672 511 LINE",
"559 511 LINE",
"649 710 LINE",
"576 710 LINE",
"488 511 LINE",
"333 511 LINE",
"422 710 LINE",
"349 710 LINE",
"261 511 LINE",
"125 511 LINE",
"111 447 LINE",
"231 447 LINE",
"154 269 LINE",
"30 269 LINE",
"16 201 LINE",
"123 201 LINE",
"34 0 LINE",
"107 0 LINE",
"195 201 LINE",
"350 201 LINE",
"261 0 LINE",
"333 0 LINE",
"422 201 LINE",
"564 201 LINE",
"578 269 LINE",
"453 269 LINE",
"530 447 LINE",
"659 447 LINE"
);
},
{
closed = 1;
nodes = (
"226 269 LINE",
"303 447 LINE",
"458 447 LINE",
"381 269 LINE"
);
}
);
width = 665;
}
);
unicode = 0023;
},
{
glyphname = period;
lastChange = "2016-08-18 22:35:31 +0000";
layers = (
{
layerId = "D0976A8A-D56C-4C8B-8CB2-75EC6352B123";
paths = (
{
closed = 1;
nodes = (
"73 0 LINE",
"97 112 LINE",
"24 112 LINE",
"0 0 LINE"
);
}
);
width = 197;
}
);
leftKerningGroup = period;
rightKerningGroup = period;
unicode = 002E;
},
{
glyphname = question;
lastChange = "2016-08-18 22:35:31 +0000";
layers = (
{
layerId = "D0976A8A-D56C-4C8B-8CB2-75EC6352B123";
paths = (
{
closed = 1;
nodes = (
"192 211 LINE",
"210 299 OFFCURVE",
"262 322 OFFCURVE",
"315 351 CURVE SMOOTH",
"394 395 OFFCURVE",
"477 431 OFFCURVE",
"477 567 CURVE SMOOTH",
"477 671 OFFCURVE",
"403 719 OFFCURVE",
"321 719 CURVE SMOOTH",
"237 719 OFFCURVE",
"147 672 OFFCURVE",
"96 590 CURVE",
"146 551 LINE",
"182 602 OFFCURVE",
"241 646 OFFCURVE",
"304 646 CURVE SMOOTH",
"354 646 OFFCURVE",
"397 615 OFFCURVE",
"397 553 CURVE SMOOTH",
"397 450 OFFCURVE",
"321 425 OFFCURVE",
"233 382 CURVE SMOOTH",
"170 351 OFFCURVE",
"139 311 OFFCURVE",
"118 211 CURVE"
);
},
{
closed = 1;
nodes = (
"148 0 LINE",
"173 116 LINE",
"99 116 LINE",
"74 0 LINE"
);
}
);
width = 462;
}
);
unicode = 003F;
},
{
glyphname = quotedbl;
lastChange = "2016-08-18 22:35:31 +0000";
layers = (
{
layerId = "D0976A8A-D56C-4C8B-8CB2-75EC6352B123";
paths = (
{
closed = 1;
nodes = (
"189 540 LINE",
"227 718 LINE",
"151 718 LINE",
"113 540 LINE"
);
},
{
closed = 1;
nodes = (
"301 540 LINE",
"339 718 LINE",
"263 718 LINE",
"225 540 LINE"
);
}
);
width = 316;
}
);
leftKerningGroup = quotesingle;
rightKerningGroup = quotesingle;
unicode = 0022;
},
{
glyphname = quotesingle;
lastChange = "2016-08-18 22:35:31 +0000";
layers = (
{
layerId = "D0976A8A-D56C-4C8B-8CB2-75EC6352B123";
paths = (
{
closed = 1;
nodes = (
"189 540 LINE",
"227 718 LINE",
"151 718 LINE",
"113 540 LINE"
);
}
);
width = 203;
}
);
leftKerningGroup = quotesingle;
rightKerningGroup = quotesingle;
unicode = 0027;
},
{
glyphname = semicolon;
lastChange = "2016-08-18 22:35:31 +0000";
layers = (
{
layerId = "D0976A8A-D56C-4C8B-8CB2-75EC6352B123";
paths = (
{
closed = 1;
nodes = (
"167 406 LINE",
"191 518 LINE",
"118 518 LINE",
"94 406 LINE"
);
},
{
closed = 1;
nodes = (
"31 -111 LINE",
"81 -6 LINE",
"107 112 LINE",
"30 112 LINE",
"4 -6 LINE",
"32 -6 LINE",
"-10 -111 LINE"
);
}
);
width = 217;
}
);
leftKerningGroup = colon;
rightKerningGroup = colon;
unicode = 003B;
},
{
glyphname = slash;
lastChange = "2016-08-18 22:35:31 +0000";
layers = (
{
layerId = "D0976A8A-D56C-4C8B-8CB2-75EC6352B123";
paths = (
{
closed = 1;
nodes = (
"581 710 LINE",
"-27 0 LINE",
"72 0 LINE",
"680 710 LINE"
);
}
);
width = 627;
}
);
unicode = 002F;
},
{
glyphname = underscore;
lastChange = "2016-08-18 22:35:31 +0000";
layers = (
{
layerId = "D0976A8A-D56C-4C8B-8CB2-75EC6352B123";
paths = (
{
closed = 1;
nodes = (
"334 -80 LINE",
"351 0 LINE",
"-6 0 LINE",
"-23 -80 LINE"
);
}
);
width = 477;
}
);
unicode = 005F;
},
{
glyphname = braceleft;
lastChange = "2016-08-18 22:35:31 +0000";
layers = (
{
layerId = "D0976A8A-D56C-4C8B-8CB2-75EC6352B123";
paths = (
{
closed = 1;
nodes = (
"304 668 LINE",
"320 740 LINE",
"210 740 LINE SMOOTH",
"203 740 OFFCURVE",
"186 735 OFFCURVE",
"181 710 CURVE SMOOTH",
"126 450 LINE SMOOTH",
"121 430 OFFCURVE",
"100 393 OFFCURVE",
"73 393 CURVE",
"60 329 LINE",
"78 326 OFFCURVE",
"90 309 OFFCURVE",
"90 287 CURVE SMOOTH",
"90 281 OFFCURVE",
"89 275 OFFCURVE",
"88 270 CURVE SMOOTH",
"30 -1 LINE SMOOTH",
"29 -5 OFFCURVE",
"29 -9 OFFCURVE",
"29 -12 CURVE SMOOTH",
"29 -27 OFFCURVE",
"38 -31 OFFCURVE",
"46 -31 CURVE SMOOTH",
"156 -31 LINE",
"171 41 LINE",
"119 41 LINE",
"173 296 LINE",
"173 300 OFFCURVE",
"175 308 OFFCURVE",
"175 316 CURVE SMOOTH",
"175 334 OFFCURVE",
"168 349 OFFCURVE",
"159 360 CURVE",
"183 379 OFFCURVE",
"196 405 OFFCURVE",
"200 424 CURVE SMOOTH",
"252 668 LINE"
);
}
);
width = 274;
}
);
unicode = 007B;
},
{
glyphname = braceright;
lastChange = "2016-08-18 22:35:31 +0000";
layers = (
{
layerId = "D0976A8A-D56C-4C8B-8CB2-75EC6352B123";
paths = (
{
closed = 1;
nodes = (
"181 668 LINE",
"129 424 LINE SMOOTH",
"127 419 OFFCURVE",
"127 412 OFFCURVE",
"127 403 CURVE SMOOTH",
"127 387 OFFCURVE",
"133 372 OFFCURVE",
"143 360 CURVE",
"120 342 OFFCURVE",
"105 314 OFFCURVE",
"101 296 CURVE SMOOTH",
"47 41 LINE",
"-5 41 LINE",
"-20 -31 LINE",
"90 -31 LINE SMOOTH",
"99 -31 OFFCURVE",
"114 -24 OFFCURVE",
"119 -1 CURVE SMOOTH",
"175 270 LINE SMOOTH",
"181 299 OFFCURVE",
"204 325 OFFCURVE",
"229 329 CURVE",
"242 393 LINE",
"223 393 OFFCURVE",
"212 413 OFFCURVE",
"212 434 CURVE SMOOTH",
"212 440 OFFCURVE",
"213 446 OFFCURVE",
"214 450 CURVE SMOOTH",
"270 710 LINE SMOOTH",
"271 713 OFFCURVE",
"271 716 OFFCURVE",
"271 719 CURVE SMOOTH",
"271 736 OFFCURVE",
"259 740 OFFCURVE",
"254 740 CURVE SMOOTH",
"144 740 LINE",
"128 668 LINE"
);
}
);
width = 276;
}
);
unicode = 007D;
},
{
glyphname = bracketleft;
lastChange = "2016-08-18 22:35:31 +0000";
layers = (
{
layerId = "D0976A8A-D56C-4C8B-8CB2-75EC6352B123";
paths = (
{
closed = 1;
nodes = (
"148 -40 LINE",
"163 32 LINE",
"107 32 LINE",
"242 668 LINE",
"298 668 LINE",
"313 740 LINE",
"176 740 LINE",
"10 -40 LINE"
);
}
);
width = 268;
}
);
unicode = 005B;
},
{
glyphname = bracketright;
lastChange = "2016-08-18 22:35:31 +0000";
layers = (
{
layerId = "D0976A8A-D56C-4C8B-8CB2-75EC6352B123";
paths = (
{
closed = 1;
nodes = (
"114 -40 LINE",
"279 740 LINE",
"142 740 LINE",
"126 668 LINE",
"182 668 LINE",
"47 32 LINE",
"-9 32 LINE",
"-24 -40 LINE"
);
}
);
width = 268;
}
);
unicode = 005D;
},
{
glyphname = emdash;
lastChange = "2016-08-18 22:35:31 +0000";
layers = (
{
layerId = "D0976A8A-D56C-4C8B-8CB2-75EC6352B123";
paths = (
{
closed = 1;
nodes = (
"792 233 LINE",
"809 313 LINE",
"63 313 LINE",
"46 233 LINE"
);
}
);
width = 867;
}
);
leftKerningGroup = hyphen;
rightKerningGroup = hyphen;
unicode = 2014;
},
{
glyphname = endash;
lastChange = "2016-08-18 22:35:31 +0000";
layers = (
{
layerId = "D0976A8A-D56C-4C8B-8CB2-75EC6352B123";
paths = (
{
closed = 1;
nodes = (
"480 233 LINE",
"497 313 LINE",
"63 313 LINE",
"46 233 LINE"
);
}
);
width = 555;
}
);
leftKerningGroup = hyphen;
rightKerningGroup = hyphen;
unicode = 2013;
},
{
glyphname = hyphen;
lastChange = "2016-08-18 22:35:31 +0000";
layers = (
{
layerId = "D0976A8A-D56C-4C8B-8CB2-75EC6352B123";
paths = (
{
closed = 1;
nodes = (
"327 233 LINE",
"344 313 LINE",
"63 313 LINE",
"46 233 LINE"
);
}
);
width = 402;
}
);
leftKerningGroup = hyphen;
rightKerningGroup = hyphen;
unicode = 002D;
},
{
glyphname = softhyphen;
lastChange = "2016-08-18 22:35:31 +0000";
layers = (
{
layerId = "D0976A8A-D56C-4C8B-8CB2-75EC6352B123";
paths = (
{
closed = 1;
nodes = (
"480 233 LINE",
"497 313 LINE",
"63 313 LINE",
"46 233 LINE"
);
}
);
width = 555;
}
);
leftKerningGroup = hyphen;
rightKerningGroup = hyphen;
unicode = 00AD;
},
{
glyphname = guillemetleft;
lastChange = "2016-08-18 22:35:31 +0000";
layers = (
{
layerId = "D0976A8A-D56C-4C8B-8CB2-75EC6352B123";
paths = (
{
closed = 1;
nodes = (
"24 234 LINE",
"228 60 LINE",
"244 134 LINE",
"100 259 LINE",
"297 387 LINE",
"313 461 LINE",
"34 280 LINE"
);
},
{
closed = 1;
nodes = (
"259 234 LINE",
"463 60 LINE",
"478 134 LINE",
"335 259 LINE",
"532 387 LINE",
"548 461 LINE",
"268 280 LINE"
);
}
);
width = 575;
}
);
leftKerningGroup = guilsinglleft;
rightKerningGroup = guilsinglleft;
unicode = 00AB;
},
{
glyphname = guillemetright;
lastChange = "2016-08-18 22:35:31 +0000";
layers = (
{
layerId = "D0976A8A-D56C-4C8B-8CB2-75EC6352B123";
paths = (
{
closed = 1;
nodes = (
"533 280 LINE",
"330 461 LINE",
"314 387 LINE",
"458 259 LINE",
"260 134 LINE",
"245 60 LINE",
"523 234 LINE"
);
},
{
closed = 1;
nodes = (
"298 280 LINE",
"95 461 LINE",
"79 387 LINE",
"223 259 LINE",
"26 134 LINE",
"10 60 LINE",
"289 234 LINE"
);
}
);
width = 575;
}
);
leftKerningGroup = guilsinglright;
rightKerningGroup = guilsinglright;
unicode = 00BB;
},
{
glyphname = guilsinglleft;
lastChange = "2016-08-18 22:35:31 +0000";
layers = (
{
layerId = "D0976A8A-D56C-4C8B-8CB2-75EC6352B123";
paths = (
{
closed = 1;
nodes = (
"24 234 LINE",
"228 60 LINE",
"244 134 LINE",
"100 259 LINE",
"297 387 LINE",
"313 461 LINE",
"34 280 LINE"
);
}
);
width = 340;
}
);
leftKerningGroup = guilsinglleft;
rightKerningGroup = guilsinglleft;
unicode = 2039;
},
{
glyphname = guilsinglright;
lastChange = "2016-08-18 22:35:31 +0000";
layers = (
{
layerId = "D0976A8A-D56C-4C8B-8CB2-75EC6352B123";
paths = (
{
closed = 1;
nodes = (
"298 280 LINE",
"95 461 LINE",
"79 387 LINE",
"223 259 LINE",
"26 134 LINE",
"10 60 LINE",
"289 234 LINE"
);
}
);
width = 340;
}
);
leftKerningGroup = guilsinglright;
rightKerningGroup = guilsinglright;
unicode = 203A;
},
{
glyphname = quotedblbase;
lastChange = "2016-08-18 22:35:31 +0000";
layers = (
{
layerId = "D0976A8A-D56C-4C8B-8CB2-75EC6352B123";
paths = (
{
closed = 1;
nodes = (
"73 -106 LINE",
"119 -2 LINE",
"144 118 LINE",
"50 118 LINE",
"25 0 LINE",
"51 0 LINE",
"12 -106 LINE"
);
},
{
closed = 1;
nodes = (
"207 -106 LINE",
"253 -2 LINE",
"279 118 LINE",
"184 118 LINE",
"159 0 LINE",
"185 0 LINE",
"147 -106 LINE"
);
}
);
width = 408;
}
);
leftKerningGroup = period;
rightKerningGroup = period;
unicode = 201E;
},
{
glyphname = quotedblleft;
lastChange = "2016-08-18 22:35:31 +0000";
layers = (
{
layerId = "D0976A8A-D56C-4C8B-8CB2-75EC6352B123";
paths = (
{
closed = 1;
nodes = (
"174 730 LINE",
"128 628 LINE",
"105 518 LINE",
"199 518 LINE",
"222 626 LINE",
"196 626 LINE",
"234 730 LINE"
);
},
{
closed = 1;
nodes = (
"312 730 LINE",
"266 628 LINE",
"242 518 LINE",
"337 518 LINE",
"360 626 LINE",
"333 626 LINE",
"371 730 LINE"
);
}
);
width = 352;
}
);
leftKerningGroup = quoteleft;
rightKerningGroup = quoteleft;
unicode = 201C;
},
{
glyphname = quotedblright;
lastChange = "2016-08-18 22:35:31 +0000";
layers = (
{
layerId = "D0976A8A-D56C-4C8B-8CB2-75EC6352B123";
paths = (
{
closed = 1;
nodes = (
"269 542 LINE",
"315 644 LINE",
"339 755 LINE",
"244 755 LINE",
"221 646 LINE",
"248 646 LINE",
"210 542 LINE"
);
},
{
closed = 1;
nodes = (
"223 542 LINE",
"269 644 LINE",
"292 755 LINE",
"198 755 LINE",
"175 646 LINE",
"201 646 LINE",
"163 542 LINE"
);
}
);
width = 345;
}
);
leftKerningGroup = quoteright;
rightKerningGroup = quoteright;
unicode = 201D;
},
{
glyphname = quoteleft;
lastChange = "2016-08-18 22:35:31 +0000";
layers = (
{
layerId = "D0976A8A-D56C-4C8B-8CB2-75EC6352B123";
paths = (
{
closed = 1;
nodes = (
"174 730 LINE",
"128 628 LINE",
"105 518 LINE",
"199 518 LINE",
"222 626 LINE",
"196 626 LINE",
"234 730 LINE"
);
}
);
width = 214;
}
);
leftKerningGroup = quoteleft;
rightKerningGroup = quoteleft;
unicode = 2018;
},
{
glyphname = quotesinglbase;
lastChange = "2016-08-18 22:35:31 +0000";
layers = (
{
layerId = "D0976A8A-D56C-4C8B-8CB2-75EC6352B123";
paths = (
{
closed = 1;
nodes = (
"73 -106 LINE",
"119 -2 LINE",
"144 118 LINE",
"50 118 LINE",
"25 0 LINE",
"51 0 LINE",
"12 -106 LINE"
);
}
);
width = 273;
}
);
leftKerningGroup = period;
rightKerningGroup = period;
unicode = 201A;
},
{
glyphname = dollar;
lastChange = "2016-08-18 22:35:31 +0000";
layers = (
{
layerId = "D0976A8A-D56C-4C8B-8CB2-75EC6352B123";
paths = (
{
closed = 1;
nodes = (
"198 -107 LINE",
"242 -107 LINE",
"272 38 LINE",
"229 38 LINE"
);
},
{
closed = 1;
nodes = (
"269 48 LINE",
"400 666 LINE",
"367 659 LINE",
"237 50 LINE"
);
},
{
closed = 1;
nodes = (
"362 665 LINE",
"407 672 LINE",
"438 815 LINE",
"394 815 LINE"
);
},
{
closed = 1;
nodes = (
"603 634 LINE",
"557 683 OFFCURVE",
"489 715 OFFCURVE",
"398 715 CURVE SMOOTH",
"238 715 OFFCURVE",
"105 623 OFFCURVE",
"105 468 CURVE SMOOTH",
"105 383 OFFCURVE",
"167 348 OFFCURVE",
"277 318 CURVE SMOOTH",
"381 291 OFFCURVE",
"444 266 OFFCURVE",
"444 203 CURVE SMOOTH",
"444 121 OFFCURVE",
"381 74 OFFCURVE",
"271 74 CURVE SMOOTH",
"167 74 OFFCURVE",
"86 124 OFFCURVE",
"55 169 CURVE",
"-3 93 LINE",
"59 28 OFFCURVE",
"148 -7 OFFCURVE",
"252 -7 CURVE SMOOTH",
"410 -7 OFFCURVE",
"545 69 OFFCURVE",
"545 230 CURVE SMOOTH",
"545 327 OFFCURVE",
"469 363 OFFCURVE",
"355 394 CURVE SMOOTH",
"256 420 OFFCURVE",
"203 439 OFFCURVE",
"203 497 CURVE SMOOTH",
"203 576 OFFCURVE",
"257 635 OFFCURVE",
"379 635 CURVE SMOOTH",
"460 635 OFFCURVE",
"524 598 OFFCURVE",
"546 561 CURVE"
);
}
);
width = 605;
}
);
unicode = 0024;
},
{
glyphname = franc;
lastChange = "2016-08-18 22:35:31 +0000";
layers = (
{
layerId = "D0976A8A-D56C-4C8B-8CB2-75EC6352B123";
paths = (
{
closed = 1;
nodes = (
"135 0 LINE",
"203 318 LINE",
"503 318 LINE",
"519 393 LINE",
"219 393 LINE",
"269 630 LINE",
"625 630 LINE",
"643 710 LINE",
"196 710 LINE",
"45 0 LINE"
);
},
{
closed = 1;
nodes = (
"296 121 LINE",
"309 181 LINE",
"6 181 LINE",
"-7 121 LINE"
);
}
);
width = 589;
}
);
unicode = 20A3;
},
{
glyphname = naira;
lastChange = "2016-08-18 22:35:31 +0000";
layers = (
{
layerId = "D0976A8A-D56C-4C8B-8CB2-75EC6352B123";
paths = (
{
closed = 1;
nodes = (
"759 289 LINE",
"36 289 LINE",
"23 229 LINE",
"747 229 LINE"
);
},
{
closed = 1;
nodes = (
"796 459 LINE",
"72 459 LINE",
"59 399 LINE",
"783 399 LINE"
);
},
{
closed = 1;
nodes = (
"546 0 LINE",
"622 0 LINE",
"772 709 LINE",
"682 709 LINE",
"565 157 LINE",
"271 710 LINE",
"201 710 LINE",
"51 0 LINE",
"141 0 LINE",
"256 542 LINE"
);
}
);
width = 800;
}
);
unicode = 20A6;
},
{
glyphname = rupeeIndian;
lastChange = "2016-08-18 22:35:31 +0000";
layers = (
{
layerId = "D0976A8A-D56C-4C8B-8CB2-75EC6352B123";
paths = (
{
closed = 1;
nodes = (
"113 638 LINE",
"208 638 LINE SMOOTH",
"262 638 OFFCURVE",
"299 583 OFFCURVE",
"299 516 CURVE SMOOTH",
"299 423 OFFCURVE",
"227 327 OFFCURVE",
"147 327 CURVE SMOOTH",
"71 327 LINE",
"203 0 LINE",
"306 0 LINE",
"192 272 LINE",
"303 299 OFFCURVE",
"391 409 OFFCURVE",
"391 522 CURVE SMOOTH",
"391 617 OFFCURVE",
"331 710 OFFCURVE",
"228 710 CURVE SMOOTH",
"127 710 LINE"
);
},
{
closed = 1;
nodes = (
"480 581 LINE",
"100 581 LINE",
"88 521 LINE",
"467 521 LINE"
);
},
{
closed = 1;
nodes = (
"507 710 LINE",
"127 710 LINE",
"115 650 LINE",
"494 650 LINE"
);
}
);
width = 462;
}
);
unicode = 20B9;
},
{
glyphname = sterling;
lastChange = "2016-08-18 22:35:31 +0000";
layers = (
{
layerId = "D0976A8A-D56C-4C8B-8CB2-75EC6352B123";
paths = (
{
closed = 1;
nodes = (
"56 307 LINE",
"389 307 LINE",
"404 375 LINE",
"70 375 LINE"
);
},
{
closed = 1;
nodes = (
"9 -8 LINE",
"46 3 OFFCURVE",
"91 10 OFFCURVE",
"122 10 CURVE SMOOTH",
"182 10 OFFCURVE",
"225 -15 OFFCURVE",
"282 -15 CURVE SMOOTH",
"317 -15 OFFCURVE",
"358 -5 OFFCURVE",
"393 12 CURVE",
"386 79 LINE",
"351 67 OFFCURVE",
"327 61 OFFCURVE",
"303 61 CURVE SMOOTH",
"257 61 OFFCURVE",
"224 79 OFFCURVE",
"173 79 CURVE SMOOTH",
"151 79 OFFCURVE",
"127 76 OFFCURVE",
"101 69 CURVE",
"218 177 OFFCURVE",
"240 229 OFFCURVE",
"240 308 CURVE SMOOTH",
"240 388 OFFCURVE",
"203 450 OFFCURVE",
"203 512 CURVE SMOOTH",
"203 584 OFFCURVE",
"264 642 OFFCURVE",
"328 642 CURVE SMOOTH",
"378 642 OFFCURVE",
"424 608 OFFCURVE",
"445 556 CURVE",
"504 610 LINE",
"476 675 OFFCURVE",
"417 715 OFFCURVE",
"345 715 CURVE SMOOTH",
"233 715 OFFCURVE",
"124 622 OFFCURVE",
"124 510 CURVE SMOOTH",
"124 441 OFFCURVE",
"162 377 OFFCURVE",
"162 299 CURVE SMOOTH",
"162 216 OFFCURVE",
"127 162 OFFCURVE",
"2 56 CURVE"
);
}
);
width = 494;
}
);
unicode = 00A3;
},
{
glyphname = won;
lastChange = "2016-08-18 22:35:31 +0000";
layers = (
{
layerId = "D0976A8A-D56C-4C8B-8CB2-75EC6352B123";
paths = (
{
closed = 1;
nodes = (
"486 310 LINE",
"43 310 LINE",
"30 250 LINE",
"468 250 LINE"
);
},
{
closed = 1;
nodes = (
"563 250 LINE",
"1001 250 LINE",
"1014 310 LINE",
"572 310 LINE"
);
},
{
closed = 1;
nodes = (
"516 456 LINE",
"74 456 LINE",
"61 396 LINE",
"506 396 LINE"
);
},
{
closed = 1;
nodes = (
"586 396 LINE",
"1032 396 LINE",
"1045 456 LINE",
"603 456 LINE"
);
},
{
closed = 1;
nodes = (
"489 397 LINE",
"315 104 LINE",
"219 710 LINE",
"121 710 LINE",
"251 0 LINE",
"329 0 LINE",
"533 335 LINE",
"594 0 LINE",
"672 0 LINE",
"1104 710 LINE",
"1006 710 LINE",
"653 104 LINE",
"602 397 LINE",
"784 706 LINE",
"699 706 LINE",
"559 459 LINE",
"523 706 LINE",
"439 706 LINE"
);
}
);
width = 1057;
}
);
unicode = 20A9;
},
{
glyphname = yen;
lastChange = "2016-08-18 22:35:31 +0000";
layers = (
{
layerId = "D0976A8A-D56C-4C8B-8CB2-75EC6352B123";
paths = (
{
closed = 1;
nodes = (
"714 710 LINE",
"615 710 LINE",
"334 340 LINE",
"212 710 LINE",
"114 710 LINE",
"234 377 LINE",
"157 377 LINE",
"144 317 LINE",
"253 317 LINE",
"272 261 LINE",
"266 231 LINE",
"125 231 LINE",
"112 171 LINE",
"253 171 LINE",
"217 0 LINE",
"306 0 LINE",
"343 171 LINE",
"485 171 LINE",
"497 231 LINE",
"356 231 LINE",
"362 259 LINE",
"407 317 LINE",
"516 317 LINE",
"528 377 LINE",
"452 377 LINE"
);
}
);
width = 663;
}
);
unicode = 00A5;
},
{
glyphname = bulletoperator;
lastChange = "2016-08-18 22:35:31 +0000";
layers = (
{
layerId = "D0976A8A-D56C-4C8B-8CB2-75EC6352B123";
paths = (
{
closed = 1;
nodes = (
"122 245 LINE",
"147 369 LINE",
"74 369 LINE",
"48 245 LINE"
);
}
);
width = 195;
}
);
unicode = 2219;
},
{
glyphname = divisionslash;
lastChange = "2016-08-18 22:35:31 +0000";
layers = (
{
layerId = "D0976A8A-D56C-4C8B-8CB2-75EC6352B123";
paths = (
{
closed = 1;
nodes = (
"-20 -5 LINE",
"662 672 LINE",
"619 715 LINE",
"-63 38 LINE"
);
}
);
width = 575;
}
);
unicode = 2215;
},
{
glyphname = plus;
layers = (
{
layerId = "D0976A8A-D56C-4C8B-8CB2-75EC6352B123";
paths = (
{
closed = 1;
nodes = (
"261 391 LINE",
"261 519 LINE",
"181 519 LINE",
"181 391 LINE",
"63 391 LINE",
"63 319 LINE",
"181 319 LINE",
"181 191 LINE",
"261 191 LINE",
"261 319 LINE",
"379 319 LINE",
"379 391 LINE"
);
}
);
width = 422;
}
);
unicode = 002B;
},
{
glyphname = minus;
lastChange = "2016-08-18 22:35:31 +0000";
layers = (
{
layerId = "D0976A8A-D56C-4C8B-8CB2-75EC6352B123";
paths = (
{
closed = 1;
nodes = (
"475 269 LINE",
"475 341 LINE",
"72 341 LINE",
"72 269 LINE"
);
}
);
width = 548;
}
);
unicode = 2212;
},
{
glyphname = multiply;
lastChange = "2016-08-18 22:35:31 +0000";
layers = (
{
layerId = "D0976A8A-D56C-4C8B-8CB2-75EC6352B123";
paths = (
{
closed = 1;
nodes = (
"286 273 LINE",
"400 387 LINE",
"345 443 LINE",
"231 329 LINE",
"118 442 LINE",
"62 387 LINE",
"175 273 LINE",
"60 158 LINE",
"115 102 LINE",
"231 218 LINE",
"347 102 LINE",
"403 157 LINE"
);
}
);
width = 478;
}
);
unicode = 00D7;
},
{
glyphname = divide;
lastChange = "2016-08-18 22:35:31 +0000";
layers = (
{
layerId = "D0976A8A-D56C-4C8B-8CB2-75EC6352B123";
paths = (
{
closed = 1;
nodes = (
"300 405 LINE",
"300 507 LINE",
"225 507 LINE",
"225 405 LINE"
);
},
{
closed = 1;
nodes = (
"300 66 LINE",
"300 168 LINE",
"225 168 LINE",
"225 66 LINE"
);
},
{
closed = 1;
nodes = (
"464 251 LINE",
"464 323 LINE",
"61 323 LINE",
"61 251 LINE"
);
}
);
width = 531;
}
);
unicode = 00F7;
},
{
glyphname = equal;
lastChange = "2016-08-18 22:35:31 +0000";
layers = (
{
layerId = "D0976A8A-D56C-4C8B-8CB2-75EC6352B123";
paths = (
{
closed = 1;
nodes = (
"381 179 LINE",
"381 239 LINE",
"76 239 LINE",
"76 179 LINE"
);
},
{
closed = 1;
nodes = (
"381 313 LINE",
"381 373 LINE",
"76 373 LINE",
"76 313 LINE"
);
}
);
width = 469;
}
);
unicode = 003D;
},
{
glyphname = notequal;
lastChange = "2016-08-18 22:35:31 +0000";
layers = (
{
layerId = "D0976A8A-D56C-4C8B-8CB2-75EC6352B123";
paths = (
{
closed = 1;
nodes = (
"132 72 LINE",
"349 469 LINE",
"307 482 LINE",
"91 85 LINE"
);
},
{
closed = 1;
nodes = (
"70 183 LINE",
"375 183 LINE",
"375 243 LINE",
"70 243 LINE"
);
},
{
closed = 1;
nodes = (
"70 309 LINE",
"375 309 LINE",
"375 369 LINE",
"70 369 LINE"
);
}
);
width = 457;
}
);
unicode = 2260;
},
{
glyphname = greater;
lastChange = "2016-08-18 22:35:31 +0000";
layers = (
{
layerId = "D0976A8A-D56C-4C8B-8CB2-75EC6352B123";
paths = (
{
closed = 1;
nodes = (
"498 280 LINE",
"78 533 LINE",
"78 439 LINE",
"370 259 LINE",
"78 82 LINE",
"78 -16 LINE",
"498 234 LINE"
);
}
);
width = 547;
}
);
unicode = 003E;
},
{
glyphname = less;
lastChange = "2016-08-18 22:35:31 +0000";
layers = (
{
layerId = "D0976A8A-D56C-4C8B-8CB2-75EC6352B123";
paths = (
{
closed = 1;
nodes = (
"30 234 LINE",
"450 -16 LINE",
"450 82 LINE",
"158 259 LINE",
"450 439 LINE",
"450 533 LINE",
"30 280 LINE"
);
}
);
width = 546;
}
);
unicode = 003C;
},
{
glyphname = greaterequal;
lastChange = "2016-08-18 22:35:31 +0000";
layers = (
{
layerId = "D0976A8A-D56C-4C8B-8CB2-75EC6352B123";
paths = (
{
closed = 1;
nodes = (
"79 51 LINE",
"411 51 LINE",
"411 123 LINE",
"79 123 LINE"
);
},
{
closed = 1;
nodes = (
"86 196 LINE",
"410 346 LINE",
"410 416 LINE",
"80 572 LINE",
"86 486 LINE",
"322 383 LINE",
"86 282 LINE"
);
}
);
width = 494;
}
);
unicode = 2265;
},
{
glyphname = lessequal;
lastChange = "2016-08-18 22:35:31 +0000";
layers = (
{
layerId = "D0976A8A-D56C-4C8B-8CB2-75EC6352B123";
paths = (
{
closed = 1;
nodes = (
"390 51 LINE",
"390 123 LINE",
"58 123 LINE",
"58 51 LINE"
);
},
{
closed = 1;
nodes = (
"59 346 LINE",
"383 196 LINE",
"383 282 LINE",
"147 383 LINE",
"383 486 LINE",
"383 572 LINE",
"59 416 LINE"
);
}
);
width = 473;
}
);
unicode = 2264;
},
{
glyphname = plusminus;
lastChange = "2016-08-18 22:35:31 +0000";
layers = (
{
layerId = "D0976A8A-D56C-4C8B-8CB2-75EC6352B123";
paths = (
{
closed = 1;
nodes = (
"406 51 LINE",
"406 123 LINE",
"74 123 LINE",
"74 51 LINE"
);
},
{
closed = 1;
nodes = (
"281 404 LINE",
"281 540 LINE",
"201 540 LINE",
"201 404 LINE",
"75 404 LINE",
"75 332 LINE",
"201 332 LINE",
"201 196 LINE",
"281 196 LINE",
"281 332 LINE",
"407 332 LINE",
"407 404 LINE"
);
}
);
width = 507;
}
);
unicode = 00B1;
},
{
glyphname = approxequal;
lastChange = "2016-08-18 22:35:31 +0000";
layers = (
{
layerId = "D0976A8A-D56C-4C8B-8CB2-75EC6352B123";
paths = (
{
closed = 1;
nodes = (
"384 332 LINE",
"366 308 OFFCURVE",
"339 285 OFFCURVE",
"299 285 CURVE SMOOTH",
"232 285 OFFCURVE",
"191 329 OFFCURVE",
"144 329 CURVE SMOOTH",
"124 329 OFFCURVE",
"111 321 OFFCURVE",
"101 310 CURVE",
"58 338 LINE",
"74 362 OFFCURVE",
"102 385 OFFCURVE",
"141 385 CURVE SMOOTH",
"204 385 OFFCURVE",
"241 340 OFFCURVE",
"296 340 CURVE SMOOTH",
"317 340 OFFCURVE",
"332 345 OFFCURVE",
"342 357 CURVE"
);
},
{
closed = 1;
nodes = (
"384 217 LINE",
"366 193 OFFCURVE",
"339 170 OFFCURVE",
"299 170 CURVE SMOOTH",
"232 170 OFFCURVE",
"191 214 OFFCURVE",
"144 214 CURVE SMOOTH",
"124 214 OFFCURVE",
"111 206 OFFCURVE",
"101 195 CURVE",
"58 223 LINE",
"74 247 OFFCURVE",
"102 270 OFFCURVE",
"141 270 CURVE SMOOTH",
"204 270 OFFCURVE",
"241 225 OFFCURVE",
"296 225 CURVE SMOOTH",
"317 225 OFFCURVE",
"332 230 OFFCURVE",
"342 242 CURVE"
);
}
);
width = 454;
}
);
unicode = 2248;
},
{
glyphname = logicalnot;
lastChange = "2016-08-18 22:35:31 +0000";
layers = (
{
layerId = "D0976A8A-D56C-4C8B-8CB2-75EC6352B123";
paths = (
{
closed = 1;
nodes = (
"86 375 LINE",
"69 295 LINE",
"428 295 LINE",
"390 120 LINE",
"466 120 LINE",
"520 375 LINE"
);
}
);
width = 570;
}
);
unicode = 00AC;
},
{
glyphname = integral;
lastChange = "2016-08-18 22:35:31 +0000";
layers = (
{
layerId = "D0976A8A-D56C-4C8B-8CB2-75EC6352B123";
paths = (
{
closed = 1;
nodes = (
"139 45 LINE SMOOTH",
"140 25 OFFCURVE",
"142 -17 OFFCURVE",
"142 -21 CURVE SMOOTH",
"142 -68 OFFCURVE",
"122 -93 OFFCURVE",
"89 -93 CURVE SMOOTH",
"73 -93 OFFCURVE",
"49 -84 OFFCURVE",
"31 -75 CURVE",
"17 -141 LINE",
"49 -156 OFFCURVE",
"92 -167 OFFCURVE",
"125 -167 CURVE SMOOTH",
"192 -167 OFFCURVE",
"230 -126 OFFCURVE",
"230 -52 CURVE SMOOTH",
"230 -48 OFFCURVE",
"228 5 OFFCURVE",
"227 27 CURVE SMOOTH",
"195 616 LINE SMOOTH",
"194 634 OFFCURVE",
"192 670 OFFCURVE",
"192 673 CURVE SMOOTH",
"192 719 OFFCURVE",
"212 746 OFFCURVE",
"245 746 CURVE SMOOTH",
"259 746 OFFCURVE",
"287 737 OFFCURVE",
"303 728 CURVE",
"318 794 LINE",
"286 809 OFFCURVE",
"242 820 OFFCURVE",
"209 820 CURVE SMOOTH",
"143 820 OFFCURVE",
"103 774 OFFCURVE",
"103 705 CURVE SMOOTH",
"103 701 OFFCURVE",
"106 650 OFFCURVE",
"107 630 CURVE SMOOTH"
);
}
);
width = 323;
}
);
unicode = 222B;
},
{
glyphname = Ohm;
lastChange = "2016-08-18 22:35:31 +0000";
layers = (
{
layerId = "D0976A8A-D56C-4C8B-8CB2-75EC6352B123";
paths = (
{
closed = 1;
nodes = (
"52 0 LINE",
"357 0 LINE",
"357 65 LINE",
"222 99 OFFCURVE",
"148 241 OFFCURVE",
"148 369 CURVE SMOOTH",
"148 500 OFFCURVE",
"244 633 OFFCURVE",
"400 633 CURVE SMOOTH",
"557 633 OFFCURVE",
"652 500 OFFCURVE",
"652 369 CURVE SMOOTH",
"652 241 OFFCURVE",
"578 99 OFFCURVE",
"443 65 CURVE",
"443 0 LINE",
"748 0 LINE",
"748 65 LINE",
"557 65 LINE",
"672 121 OFFCURVE",
"741 238 OFFCURVE",
"741 369 CURVE SMOOTH",
"741 551 OFFCURVE",
"596 715 OFFCURVE",
"400 715 CURVE SMOOTH",
"204 715 OFFCURVE",
"59 551 OFFCURVE",
"59 369 CURVE SMOOTH",
"59 238 OFFCURVE",
"128 121 OFFCURVE",
"243 65 CURVE",
"52 65 LINE"
);
}
);
width = 824;
}
);
unicode = 2126;
},
{
glyphname = increment;
lastChange = "2016-08-18 22:35:31 +0000";
layers = (
{
layerId = "D0976A8A-D56C-4C8B-8CB2-75EC6352B123";
paths = (
{
closed = 1;
nodes = (
"338 710 LINE",
"264 710 LINE",
"-6 72 LINE",
"-6 0 LINE",
"606 0 LINE",
"606 72 LINE"
);
},
{
closed = 1;
nodes = (
"83 80 LINE",
"301 607 LINE",
"520 80 LINE"
);
}
);
width = 656;
}
);
unicode = 2206;
},
{
glyphname = product;
lastChange = "2016-08-18 22:35:31 +0000";
layers = (
{
layerId = "D0976A8A-D56C-4C8B-8CB2-75EC6352B123";
paths = (
{
closed = 1;
nodes = (
"500 -90 LINE",
"586 -90 LINE",
"586 634 LINE",
"666 634 LINE",
"666 710 LINE",
"71 710 LINE",
"71 634 LINE",
"157 634 LINE",
"157 -90 LINE",
"243 -90 LINE",
"243 634 LINE",
"500 634 LINE"
);
}
);
width = 702;
}
);
unicode = 220F;
},
{
glyphname = summation;
lastChange = "2016-08-18 22:35:31 +0000";
layers = (
{
layerId = "D0976A8A-D56C-4C8B-8CB2-75EC6352B123";
paths = (
{
closed = 1;
nodes = (
"521 642 LINE",
"177 642 LINE",
"177 638 LINE",
"383 369 LINE",
"173 83 LINE",
"173 79 LINE",
"530 79 LINE",
"530 0 LINE",
"73 0 LINE",
"73 64 LINE",
"294 365 LINE",
"78 647 LINE",
"78 710 LINE",
"521 710 LINE"
);
}
);
width = 591;
}
);
unicode = 2211;
},
{
glyphname = radical;
lastChange = "2016-08-18 22:35:31 +0000";
layers = (
{
layerId = "D0976A8A-D56C-4C8B-8CB2-75EC6352B123";
paths = (
{
closed = 1;
nodes = (
"321 0 LINE",
"464 790 LINE",
"386 790 LINE",
"262 67 LINE",
"177 377 LINE",
"98 377 LINE",
"205 0 LINE"
);
},
{
closed = 1;
nodes = (
"20 313 LINE",
"150 313 LINE",
"150 377 LINE",
"20 377 LINE"
);
}
);
width = 456;
}
);
unicode = 221A;
},
{
glyphname = micro;
lastChange = "2016-08-18 22:35:31 +0000";
layers = (
{
layerId = "D0976A8A-D56C-4C8B-8CB2-75EC6352B123";
paths = (
{
closed = 1;
nodes = (
"-31 -212 LINE",
"57 -212 LINE",
"112 67 LINE",
"117 16 OFFCURVE",
"147 -10 OFFCURVE",
"200 -10 CURVE SMOOTH",
"274 -10 OFFCURVE",
"359 48 OFFCURVE",
"402 112 CURVE",
"390 49 LINE SMOOTH",
"389 28 OFFCURVE",
"402 16 OFFCURVE",
"428 14 CURVE SMOOTH",
"437 3 OFFCURVE",
"453 -3 OFFCURVE",
"481 0 CURVE",
"497 76 LINE",
"482 76 OFFCURVE",
"475 83 OFFCURVE",
"475 95 CURVE SMOOTH",
"475 99 OFFCURVE",
"475 104 OFFCURVE",
"477 108 CURVE SMOOTH",
"565 522 LINE",
"476 522 LINE",
"407 195 LINE",
"361 115 OFFCURVE",
"286 66 OFFCURVE",
"221 66 CURVE SMOOTH",
"168 66 OFFCURVE",
"142 96 OFFCURVE",
"142 157 CURVE SMOOTH",
"142 176 OFFCURVE",
"145 200 OFFCURVE",
"151 226 CURVE SMOOTH",
"213 522 LINE",
"125 522 LINE"
);
}
);
width = 615;
}
);
unicode = 00B5;
},
{
glyphname = lozenge;
lastChange = "2016-08-18 22:35:31 +0000";
layers = (
{
layerId = "D0976A8A-D56C-4C8B-8CB2-75EC6352B123";
paths = (
{
closed = 1;
nodes = (
"226 730 LINE",
"40 366 LINE",
"226 0 LINE",
"326 0 LINE",
"512 366 LINE",
"326 730 LINE"
);
},
{
closed = 1;
nodes = (
"282 65 LINE",
"128 375 LINE",
"273 666 LINE",
"428 354 LINE"
);
}
);
width = 525;
}
);
unicode = 25CA;
},
{
glyphname = trademark;
lastChange = "2016-08-18 22:35:31 +0000";
layers = (
{
layerId = "D0976A8A-D56C-4C8B-8CB2-75EC6352B123";
paths = (
{
closed = 1;
nodes = (
"384 712 LINE",
"144 712 LINE",
"131 652 LINE",
"221 652 LINE",
"172 420 LINE",
"231 420 LINE",
"281 652 LINE",
"371 652 LINE"
);
},
{
closed = 1;
nodes = (
"365 420 LINE",
"425 420 LINE",
"469 628 LINE",
"507 462 LINE",
"555 462 LINE",
"663 628 LINE",
"619 420 LINE",
"679 420 LINE",
"740 710 LINE",
"654 710 LINE",
"545 532 LINE",
"513 710 LINE",
"427 710 LINE"
);
}
);
width = 727;
}
);
unicode = 2122;
},
{
glyphname = bar;
lastChange = "2016-08-18 22:35:31 +0000";
layers = (
{
layerId = "D0976A8A-D56C-4C8B-8CB2-75EC6352B123";
paths = (
{
closed = 1;
nodes = (
"191 -130 LINE",
"191 775 LINE",
"115 775 LINE",
"115 -130 LINE"
);
}
);
width = 296;
}
);
unicode = 007C;
},
{
glyphname = brokenbar;
lastChange = "2016-08-18 22:35:31 +0000";
layers = (
{
layerId = "D0976A8A-D56C-4C8B-8CB2-75EC6352B123";
paths = (
{
closed = 1;
nodes = (
"111 273 LINE",
"111 -130 LINE",
"187 -130 LINE",
"187 273 LINE"
);
},
{
closed = 1;
nodes = (
"111 775 LINE",
"111 372 LINE",
"187 372 LINE",
"187 775 LINE"
);
}
);
width = 289;
}
);
unicode = 00A6;
},
{
glyphname = dagger;
lastChange = "2016-08-18 22:35:31 +0000";
layers = (
{
layerId = "D0976A8A-D56C-4C8B-8CB2-75EC6352B123";
paths = (
{
closed = 1;
nodes = (
"158 -130 LINE",
"234 231 LINE",
"359 231 LINE",
"376 311 LINE",
"252 311 LINE",
"351 775 LINE",
"267 775 LINE",
"168 311 LINE",
"42 311 LINE",
"25 231 LINE",
"150 231 LINE",
"74 -130 LINE"
);
}
);
width = 413;
}
);
unicode = 2020;
},
{
glyphname = daggerdbl;
lastChange = "2016-08-18 22:35:31 +0000";
layers = (
{
layerId = "D0976A8A-D56C-4C8B-8CB2-75EC6352B123";
paths = (
{
closed = 1;
nodes = (
"166 -130 LINE",
"223 142 LINE",
"348 142 LINE",
"365 222 LINE",
"241 222 LINE",
"264 333 LINE",
"388 333 LINE",
"406 413 LINE",
"281 413 LINE",
"358 775 LINE",
"274 775 LINE",
"197 413 LINE",
"72 413 LINE",
"55 333 LINE",
"180 333 LINE",
"157 222 LINE",
"31 222 LINE",
"14 142 LINE",
"139 142 LINE",
"82 -130 LINE"
);
}
);
width = 429;
}
);
unicode = 2021;
},
{
glyphname = asciicircum;
lastChange = "2016-08-18 22:35:31 +0000";
layers = (
{
layerId = "D0976A8A-D56C-4C8B-8CB2-75EC6352B123";
paths = (
{
closed = 1;
nodes = (
"124 303 LINE",
"286 631 LINE",
"445 303 LINE",
"520 303 LINE",
"323 710 LINE",
"249 710 LINE",
"51 303 LINE"
);
}
);
width = 555;
}
);
unicode = 005E;
},
{
glyphname = servicemark;
lastChange = "2016-08-18 22:35:31 +0000";
layers = (
{
layerId = "D0976A8A-D56C-4C8B-8CB2-75EC6352B123";
paths = (
{
closed = 1;
nodes = (
"534 532 LINE",
"501 710 LINE",
"416 710 LINE",
"354 420 LINE",
"414 420 LINE",
"458 628 LINE",
"495 462 LINE",
"544 462 LINE",
"652 628 LINE",
"608 420 LINE",
"667 420 LINE",
"729 710 LINE",
"643 710 LINE"
);
},
{
closed = 1;
nodes = (
"348 681 LINE",
"321 705 OFFCURVE",
"289 715 OFFCURVE",
"254 715 CURVE SMOOTH",
"181 715 OFFCURVE",
"126 673 OFFCURVE",
"126 612 CURVE SMOOTH",
"126 574 OFFCURVE",
"162 558 OFFCURVE",
"213 543 CURVE SMOOTH",
"246 533 OFFCURVE",
"269 525 OFFCURVE",
"269 505 CURVE SMOOTH",
"269 476 OFFCURVE",
"245 463 OFFCURVE",
"206 463 CURVE SMOOTH",
"170 463 OFFCURVE",
"140 475 OFFCURVE",
"113 502 CURVE",
"80 457 LINE",
"107 431 OFFCURVE",
"151 416 OFFCURVE",
"196 416 CURVE SMOOTH",
"273 416 OFFCURVE",
"325 454 OFFCURVE",
"325 516 CURVE SMOOTH",
"325 554 OFFCURVE",
"294 572 OFFCURVE",
"243 586 CURVE SMOOTH",
"207 597 OFFCURVE",
"180 603 OFFCURVE",
"180 624 CURVE SMOOTH",
"180 651 OFFCURVE",
"201 669 OFFCURVE",
"244 669 CURVE SMOOTH",
"271 669 OFFCURVE",
"290 661 OFFCURVE",
"313 639 CURVE"
);
}
);
width = 708;
}
);
unicode = 2120;
},
{
glyphname = dblgravecomb;
lastChange = "2016-08-18 22:35:31 +0000";
layers = (
{
anchors = (
{
name = _top;
position = "{195, 520}";
}
);
layerId = "D0976A8A-D56C-4C8B-8CB2-75EC6352B123";
paths = (
{
closed = 1;
nodes = (
"286 617 LINE",
"337 629 LINE",
"307 730 LINE",
"233 730 LINE"
);
},
{
closed = 1;
nodes = (
"154 617 LINE",
"205 629 LINE",
"176 730 LINE",
"101 730 LINE"
);
}
);
width = 328;
}
);
unicode = 030F;
},
{
color = 1;
glyphname = commaaccentcomb;
lastChange = "2016-08-18 22:35:31 +0000";
layers = (
{
anchors = (
{
name = _bottom;
position = "{32, 0}";
},
{
name = bottom;
position = "{2, -185}";
}
);
layerId = "D0976A8A-D56C-4C8B-8CB2-75EC6352B123";
paths = (
{
closed = 1;
nodes = (
"21 -185 LINE",
"56 -126 LINE",
"62 -48 LINE",
"-16 -48 LINE",
"-22 -126 LINE",
"6 -126 LINE",
"-20 -185 LINE"
);
}
);
width = 188;
}
);
unicode = 0326;
},
{
glyphname = firsttonechinese;
lastChange = "2016-08-18 22:35:31 +0000";
layers = (
{
anchors = (
{
name = _top;
position = "{194, 520}";
}
);
layerId = "D0976A8A-D56C-4C8B-8CB2-75EC6352B123";
paths = (
{
closed = 1;
nodes = (
"48 654 LINE",
"326 654 LINE",
"338 712 LINE",
"60 712 LINE"
);
}
);
width = 385;
}
);
unicode = 02C9;
},
{
glyphname = acute;
lastChange = "2016-08-18 22:35:31 +0000";
layers = (
{
anchors = (
{
name = _top;
position = "{84, 520}";
}
);
layerId = "D0976A8A-D56C-4C8B-8CB2-75EC6352B123";
paths = (
{
closed = 1;
nodes = (
"193 730 LINE",
"106 730 LINE",
"30 629 LINE",
"89 617 LINE"
);
}
);
width = 222;
}
);
unicode = 00B4;
},
{
glyphname = caron;
lastChange = "2016-08-18 22:35:31 +0000";
layers = (
{
anchors = (
{
name = _top;
position = "{159, 520}";
}
);
layerId = "D0976A8A-D56C-4C8B-8CB2-75EC6352B123";
paths = (
{
closed = 1;
nodes = (
"113 616 LINE",
"177 616 LINE",
"293 706 LINE",
"250 730 LINE",
"156 667 LINE",
"89 730 LINE",
"36 706 LINE"
);
}
);
width = 328;
}
);
unicode = 02C7;
},
{
glyphname = cedilla;
lastChange = "2016-08-18 22:35:31 +0000";
layers = (
{
anchors = (
{
name = _bottom;
position = "{113, 0}";
}
);
layerId = "D0976A8A-D56C-4C8B-8CB2-75EC6352B123";
paths = (
{
closed = 1;
nodes = (
"-14 -163 LINE",
"8 -173 OFFCURVE",
"40 -182 OFFCURVE",
"78 -182 CURVE SMOOTH",
"159 -182 OFFCURVE",
"202 -146 OFFCURVE",
"202 -94 CURVE SMOOTH",
"202 -60 OFFCURVE",
"177 -43 OFFCURVE",
"139 -43 CURVE SMOOTH",
"129 -43 OFFCURVE",
"115 -44 OFFCURVE",
"104 -48 CURVE",
"148 7 LINE",
"114 21 LINE",
"35 -88 LINE",
"52 -83 OFFCURVE",
"87 -75 OFFCURVE",
"114 -75 CURVE SMOOTH",
"139 -75 OFFCURVE",
"156 -83 OFFCURVE",
"156 -102 CURVE SMOOTH",
"156 -132 OFFCURVE",
"133 -145 OFFCURVE",
"93 -145 CURVE SMOOTH",
"60 -145 OFFCURVE",
"28 -135 OFFCURVE",
"13 -126 CURVE"
);
}
);
width = 283;
}
);
unicode = 00B8;
},
{
glyphname = circumflex;
lastChange = "2016-08-18 22:35:31 +0000";
layers = (
{
anchors = (
{
name = _top;
position = "{159, 520}";
}
);
layerId = "D0976A8A-D56C-4C8B-8CB2-75EC6352B123";
paths = (
{
closed = 1;
nodes = (
"79 616 LINE",
"173 679 LINE",
"240 616 LINE",
"293 640 LINE",
"216 730 LINE",
"152 730 LINE",
"36 640 LINE"
);
}
);
width = 328;
}
);
unicode = 02C6;
},
{
glyphname = dieresis;
lastChange = "2016-08-18 22:35:31 +0000";
layers = (
{
anchors = (
{
name = _top;
position = "{166, 520}";
}
);
layerId = "D0976A8A-D56C-4C8B-8CB2-75EC6352B123";
paths = (
{
closed = 1;
nodes = (
"128 624 LINE",
"149 726 LINE",
"75 726 LINE",
"53 624 LINE"
);
},
{
closed = 1;
nodes = (
"284 624 LINE",
"305 726 LINE",
"231 726 LINE",
"210 624 LINE"
);
}
);
width = 359;
}
);
unicode = 00A8;
},
{
glyphname = dotaccent;
lastChange = "2016-08-18 22:35:31 +0000";
layers = (
{
anchors = (
{
name = _top;
position = "{72, 520}";
}
);
layerId = "D0976A8A-D56C-4C8B-8CB2-75EC6352B123";
paths = (
{
closed = 1;
nodes = (
"116 624 LINE",
"139 730 LINE",
"59 730 LINE",
"36 624 LINE"
);
}
);
width = 174;
}
);
unicode = 02D9;
},
{
glyphname = grave;
lastChange = "2016-08-18 22:35:31 +0000";
layers = (
{
anchors = (
{
name = _top;
position = "{132, 520}";
}
);
layerId = "D0976A8A-D56C-4C8B-8CB2-75EC6352B123";
paths = (
{
closed = 1;
nodes = (
"108 617 LINE",
"172 629 LINE",
"137 730 LINE",
"51 730 LINE"
);
}
);
width = 223;
}
);
unicode = 0060;
},
{
glyphname = hungarumlaut;
lastChange = "2016-08-18 22:35:31 +0000";
layers = (
{
anchors = (
{
name = _top;
position = "{138, 520}";
}
);
layerId = "D0976A8A-D56C-4C8B-8CB2-75EC6352B123";
paths = (
{
closed = 1;
nodes = (
"170 730 LINE",
"95 730 LINE",
"23 629 LINE",
"70 619 LINE"
);
},
{
closed = 1;
nodes = (
"302 730 LINE",
"227 730 LINE",
"155 629 LINE",
"202 619 LINE"
);
}
);
width = 324;
}
);
unicode = 02DD;
},
{
glyphname = macron;
lastChange = "2016-08-18 22:35:31 +0000";
layers = (
{
anchors = (
{
name = _top;
position = "{176, 520}";
}
);
layerId = "D0976A8A-D56C-4C8B-8CB2-75EC6352B123";
paths = (
{
closed = 1;
nodes = (
"326 654 LINE",
"338 712 LINE",
"60 712 LINE",
"48 654 LINE"
);
}
);
width = 385;
}
);
unicode = 00AF;
},
{
glyphname = caron.alt;
lastChange = "2016-08-18 22:35:31 +0000";
layers = (
{
anchors = (
{
name = _top;
position = "{84, 520}";
}
);
layerId = "D0976A8A-D56C-4C8B-8CB2-75EC6352B123";
paths = (
{
closed = 1;
nodes = (
"83 609 LINE",
"193 730 LINE",
"106 730 LINE",
"30 629 LINE"
);
}
);
width = 222;
}
);
},
{
color = 4;
glyphname = "brevecomb-cy";
lastChange = "2016-08-18 22:35:31 +0000";
layers = (
{
anchors = (
{
name = _top;
position = "{230, 522}";
}
);
layerId = "D0976A8A-D56C-4C8B-8CB2-75EC6352B123";
paths = (
{
closed = 1;
nodes = (
"323 600 OFFCURVE",
"373 644 OFFCURVE",
"376 701 CURVE",
"327 701 LINE",
"318 667 OFFCURVE",
"296 642 OFFCURVE",
"236 642 CURVE SMOOTH",
"173 642 OFFCURVE",
"151 670 OFFCURVE",
"153 701 CURVE",
"104 701 LINE",
"101 644 OFFCURVE",
"145 600 OFFCURVE",
"234 600 CURVE SMOOTH"
);
}
);
width = 372;
}
);
},
{
color = 4;
glyphname = "brevecomb-cy.case";
lastChange = "2016-08-18 22:35:31 +0000";
layers = (
{
anchors = (
{
name = _top;
position = "{330, 710}";
}
);
layerId = "D0976A8A-D56C-4C8B-8CB2-75EC6352B123";
paths = (
{
closed = 1;
nodes = (
"445 801 OFFCURVE",
"512 849 OFFCURVE",
"522 916 CURVE",
"453 916 LINE",
"447 880 OFFCURVE",
"408 857 OFFCURVE",
"343 857 CURVE SMOOTH",
"289 857 OFFCURVE",
"259 883 OFFCURVE",
"265 916 CURVE",
"194 916 LINE",
"184 849 OFFCURVE",
"236 801 OFFCURVE",
"340 801 CURVE SMOOTH"
);
}
);
width = 430;
}
);
},
{
color = 4;
glyphname = "descender-cy";
lastChange = "2016-08-18 22:35:31 +0000";
layers = (
{
anchors = (
{
name = _bottomright;
position = "{-55, 0}";
}
);
layerId = "D0976A8A-D56C-4C8B-8CB2-75EC6352B123";
paths = (
{
closed = 1;
nodes = (
"82 -123 LINE",
"125 77 LINE",
"-39 77 LINE",
"-55 0 LINE",
"28 0 LINE",
"2 -123 LINE"
);
}
);
width = 226;
}
);
},
{
color = 4;
glyphname = "verticalbar-cy";
lastChange = "2016-08-18 22:35:31 +0000";
layers = (
{
anchors = (
{
name = _center;
position = "{82, 226}";
}
);
layerId = "D0976A8A-D56C-4C8B-8CB2-75EC6352B123";
paths = (
{
closed = 1;
nodes = (
"72 88 LINE",
"130 356 LINE",
"92 356 LINE",
"34 88 LINE"
);
}
);
width = 180;
}
);
},
{
color = 4;
glyphname = "descender-cy.case";
lastChange = "2016-08-18 22:35:31 +0000";
layers = (
{
anchors = (
{
name = _bottomright;
position = "{-35, 0}";
}
);
layerId = "D0976A8A-D56C-4C8B-8CB2-75EC6352B123";
paths = (
{
closed = 1;
nodes = (
"92 -135 LINE",
"138 80 LINE",
"-17 80 LINE",
"-35 0 LINE",
"43 0 LINE",
"14 -135 LINE"
);
}
);
width = 204;
}
);
},
{
color = 4;
glyphname = "verticalbar-cy.case";
lastChange = "2016-08-18 22:35:31 +0000";
layers = (
{
anchors = (
{
name = _center;
position = "{132, 310}";
}
);
layerId = "D0976A8A-D56C-4C8B-8CB2-75EC6352B123";
paths = (
{
closed = 1;
nodes = (
"115 153 LINE",
"186 467 LINE",
"148 467 LINE",
"77 153 LINE"
);
}
);
width = 243;
}
);
},
{
glyphname = dotbelow;
lastChange = "2016-08-18 22:35:31 +0000";
layers = (
{
layerId = "D0976A8A-D56C-4C8B-8CB2-75EC6352B123";
paths = (
{
closed = 1;
nodes = (
"93 -161 LINE",
"116 -55 LINE",
"36 -55 LINE",
"13 -161 LINE"
);
}
);
width = 175;
}
);
},
